<svg width="45" height="35" viewBox="0 0 45 35" fill="none" xmlns="http://www.w3.org/2000/svg">
<path d="M7.77797 6.69042L12.683 9.10908C13.1152 9.3222 13.334 9.81325 13.2033 10.2771L12.2513 13.657C12.1092 14.1615 11.6016 14.4707 11.0881 14.3655L4.17273 12.9491C3.47467 12.8061 3.14587 11.9997 3.54493 11.4094L6.50725 7.02726C6.78714 6.61322 7.32973 6.46939 7.77797 6.69042Z" fill="#E54839"/>
<path d="M22.0529 33.3301C12.6909 19.7579 10.9531 18.365 10.9531 13.3771C10.9531 6.54461 16.4919 1.00586 23.3243 1.00586C30.1568 1.00586 35.6955 6.54461 35.6955 13.3771C35.6955 18.365 33.9577 19.7579 24.5957 33.3301C23.9813 34.2176 22.6672 34.2176 22.0529 33.3301Z" fill="#E54839"/>
<path d="M31.5742 18.8503C31.5742 18.8503 35.5177 20.5883 38.1722 20.4998C40.5157 20.4217 42.2959 14.7266 42.2959 14.7266" stroke="#E54839" stroke-width="3" stroke-linecap="round"/>
<path d="M15.4309 20.3255C15.4309 20.3255 11.247 23.5932 8.42061 21.975C6.93496 21.1245 4.29688 18.2637 4.29688 18.2637" stroke="#E54839" stroke-width="3" stroke-linecap="round"/>
<circle cx="23.324" cy="19.1502" r="5.77322" fill="white"/>
<path d="M28.2634 8.73877C28.7257 8.04185 28.6763 7.19604 28.153 6.84961C27.6296 6.50318 26.8306 6.78731 26.3683 7.48423C25.906 8.18114 25.9555 9.02693 26.4788 9.37336C27.0021 9.71979 27.8011 9.43568 28.2634 8.73877Z" fill="#424242"/>
<path d="M21.1072 5.99656C21.5695 5.29965 21.52 4.45386 20.9967 4.10743C20.4734 3.761 19.6744 4.04511 19.2121 4.74202C18.7498 5.43893 18.7992 6.28475 19.3226 6.63118C19.8459 6.97761 20.6449 6.69348 21.1072 5.99656Z" fill="#424242"/>
</svg>
