<svg xmlns="http://www.w3.org/2000/svg" width="45" height="35" fill="none"><path fill="#813300" d="M35.857 5.125h-3.643V1.773c0-.425-.41-.773-.91-.773h-3.036c-.501 0-.91.348-.91.773v3.352h-9.715V1.773c0-.425-.41-.773-.91-.773h-3.037c-.5 0-.91.348-.91.773v3.352H9.143C7.132 5.125 5.5 6.511 5.5 8.219v22.687C5.5 32.614 7.132 34 9.143 34h26.714c2.011 0 3.643-1.386 3.643-3.094V8.22c0-1.708-1.632-3.094-3.643-3.094m-.455 25.781H9.598c-.25 0-.455-.174-.455-.386V11.313h26.714V30.52c0 .212-.205.386-.455.386"/><path fill="#E9B855" d="M23.91 27.432c.424-.037.896-.1.96-.111.164-.061.43-.114.493-.144.062-.03.127-.065.199-.095.32-.118.612-.292.986-.506.398-.229.863-.601 1.123-.805.238-.186.58-.361 1.037-.978.516-.696.91-1.03 1.262-1.992.125-.342.21-.605.213-1.203.003-.47-.012-1.26-.04-1.79-.027-.528-.056-.789-.166-1.181-.257-.912-.482-1.682-.665-2.063-.177-.369-.791-.821-1.814-1.46-.273-.17-.976-.53-2.194-.75-.577-.103-1.094-.105-1.564-.1-.45.004-.848.016-1.257.027l-.05.002c-.86.025-1.555.017-1.997.044-.311.02-.494.05-.673.093-.572.134-1.586.263-2.188.57-.303.154-.68.336-1.06.73-.725.752-.923.975-1.049 1.255-.157.35-.41.79-.66 1.915-.105.474-.255 1.11-.276 1.51-.043.814-.077 1.198.177 2.184.076.297.255.892.62 1.677.222.475.44.782.715.986.576.427 1.543.92 1.86 1.084.304.158.656.282 1.175.383.531.104 1.168.19 1.817.294.728.116 1.206.212 1.423.272a5.2 5.2 0 0 0 1.593.151"/><path fill="#813300" d="M20.39 14.026c.418-.04.961-.067 1.011-.054.351.007 1.621-.014 1.71-.005.183.02.634.051 1.295.097.599.042 1.085.114 1.417.16.186.026.373.044.57.124.357.146.92.22 1.178.477.213.213.596.335.872.574.545.471.38.334.545.471.128.106.3.221.42.4.121.182.31.376.588 1.369.098.35.14.505.16.619.061.359.12.832.033 1.113-.058.191-.189.546-.381.644a.4.4 0 0 1-.212.048.53.53 0 0 1-.258-.107c-.209-.154-.357-.488-.51-.421a2.73 2.73 0 0 0-1.05.94c-.232.355-.392.769-.48 1.156-.075.336-.127.529-.206.585-.227.162-.396.321-.605.46-.193.13-.514.368-.698.243-.066-.045-.4-.56-.674-1.013-.199-.33-.398-.6-.554-.831a3.8 3.8 0 0 0-1.08-1.058c-.188-.115-.28-.132-.379-.113-.238.046-.741.065-.916.274-.074.089-.134.18-.184.258l-.003.005c-.095.144-.258.38-.43 1.018-.121.453-.19.761-.21.882-.04.245-.027.7-.443.933-.257.144-.585.425-1.178.188-.682-.272-1.016-.58-1.219-.866-.199-.282-.353-.89-.44-1.465-.05-.342-.074-1.047-.387-1.256-.207-.137-.536-.398-1.023-.238-.252.083-.485.141-.617.293-.15.172-.26.435-.454.445-.211.01-.376-.002-.435-.044-.122-.085-.252-.19-.312-.334-.07-.169-.083-.664-.005-1.494.02-.223.018-.457.086-.716a2 2 0 0 1 .32-.721c.226-.302.387-.555.477-.678.124-.169.218-.295.38-.53.372-.539.476-.755.997-.937.241-.084.455-.221.71-.336a5.6 5.6 0 0 1 1.071-.342c.676-.125 1.223-.19 1.504-.216z"/><path fill="#08950A" d="M18.68 16.27c.093-.162.2-.297.201-.297.109.016.043.013.058.016.034.006.081.02.305.055.088.016.2.04.263.053a.6.6 0 0 1 .201.073c.023.014.024.023.015.05s-.027.072-.06.155c-.032.084-.078.203-.116.294s-.067.151-.164.162a1.2 1.2 0 0 1-.37-.055c-.175-.049-.282-.07-.348-.09-.035-.01-.06-.017-.073-.04-.017-.03-.032-.065-.023-.09.013-.035.01-.105.112-.285M22.791 17.876c.002.162-.02.308-.02.308-.089.034-.038.009-.05.013-.03.01-.07.02-.253.088-.073.026-.168.055-.22.072a.5.5 0 0 1-.184.03c-.023-.001-.027-.007-.033-.031-.005-.024-.01-.065-.023-.141-.011-.077-.03-.185-.04-.27-.012-.084-.016-.142.052-.19.068-.05.205-.092.302-.116.152-.038.241-.066.299-.08h.001c.03-.008.052-.013.071-.002.026.016.053.036.056.059.006.033.04.083.041.262zM23.37 16.365c-.08.142-.17.26-.171.26-.094-.014-.037-.012-.05-.015-.03-.005-.07-.015-.264-.044-.076-.013-.174-.033-.228-.043a.5.5 0 0 1-.174-.062c-.02-.012-.021-.02-.014-.044l.05-.134c.027-.073.066-.176.098-.255s.057-.13.141-.141.223.019.32.045c.152.04.244.058.301.074h.001c.03.008.053.014.063.034.014.026.028.056.02.078-.011.03-.008.09-.094.248M25.89 15.962c-.056.1-.123.183-.124.183-.066-.01-.026-.008-.035-.01-.02-.004-.05-.012-.187-.034l-.162-.034a.3.3 0 0 1-.124-.046c-.014-.009-.014-.014-.009-.031l.038-.095c.02-.052.048-.125.072-.181s.042-.093.102-.1c.06-.006.16.016.228.036.107.03.172.044.213.056h.001c.021.006.037.01.044.024.01.02.02.04.014.056-.008.022-.006.065-.07.175zM28.797 17.183c-.057.1-.124.183-.124.183-.067-.01-.027-.008-.036-.01-.02-.004-.05-.012-.187-.035l-.162-.033a.3.3 0 0 1-.123-.046c-.014-.009-.015-.014-.01-.032l.038-.095.072-.18c.024-.056.042-.093.102-.1.06-.006.16.016.228.036.107.03.173.044.213.055h.001c.022.006.037.011.045.025.01.019.02.04.014.055-.009.022-.007.065-.07.176zM25.89 17.468c-.056.1-.123.183-.124.183-.066-.01-.026-.008-.035-.01-.02-.004-.05-.012-.187-.034-.055-.01-.124-.026-.162-.034a.3.3 0 0 1-.124-.046c-.014-.009-.014-.014-.009-.031l.038-.096c.02-.051.048-.124.072-.18s.042-.093.102-.1a.7.7 0 0 1 .228.036c.106.03.172.044.213.056h.001c.021.006.037.011.044.025.01.019.02.04.014.055-.008.022-.006.065-.07.176M17.758 17.755c-.057.1-.124.183-.124.183-.067-.01-.027-.008-.036-.01-.02-.004-.05-.012-.187-.034-.054-.01-.124-.026-.162-.034a.3.3 0 0 1-.123-.046c-.014-.009-.015-.014-.01-.031l.038-.096.072-.18c.024-.056.042-.093.102-.1a.7.7 0 0 1 .228.036c.107.03.173.044.213.056h.002c.021.006.037.011.044.025.01.019.02.04.014.055-.008.022-.006.065-.07.176zM20.896 15.005c.113-.032.218-.045.219-.044.04.053.012.024.018.031.012.018.027.044.109.155.03.045.07.104.09.137a.3.3 0 0 1 .056.118c.004.017 0 .02-.016.028l-.094.042c-.052.023-.124.055-.18.078s-.096.037-.143 0a.7.7 0 0 1-.137-.183c-.054-.096-.091-.152-.111-.188-.01-.02-.019-.034-.014-.049.006-.02.015-.042.03-.05.021-.009.05-.04.175-.076z"/></svg>