<svg xmlns="http://www.w3.org/2000/svg" width="141" height="144" fill="none"><path fill="#FACC15" fill-opacity=".3" d="M113.225 16.735c8.079.177 14.941 3.397 19.057 9.038 3.953 5.437 4.913 12.58 2.692 20.124-1.91 8.72-3.046 18.126-4.135 27.266-2.204 18.426-4.492 37.46-13.565 53.809-7.632 12.052-26.832 11.179-46.336 7.687l.01-.049c-6.413-1.148-12.875-2.578-18.95-3.94-8.282-1.831-15.41-3.43-20.651-3.895-10.874-1.524-19.656-6.532-24.135-13.757-3.55-5.739-4.145-12.567-1.767-19.734L21.712 5.206c.026-.144.047-.266.117-.378l.008-.048a1.835 1.835 0 0 1 2.093-1.542zm16.107 11.198c-3.438-4.698-9.252-7.382-16.413-7.544l-2.52-.377L25.123 7.137 9.055 94.105l-.047.265c-2.113 6.243-1.63 11.882 1.375 16.776 3.839 6.214 11.85 10.661 21.406 12.048 1.983.181 4.214.505 6.649.941l-.016-.052c4.219.755 9.078 1.824 14.387 3.023 22.208 4.922 52.62 11.686 61.323-2.04 8.669-15.626 10.917-34.293 13.08-52.353 1.102-9.212 2.256-18.715 4.242-27.72 1.919-6.552 1.154-12.565-2.122-17.06M45.788 74.889c5.047-2.482 11.027-2.109 14.883.947 2.222 1.767 5.694 5.999 3.748 14.364-.225.98-1.198 1.552-2.162 1.38l-6.942-1.392c-.474.288-1.064.382-1.6.186a1.84 1.84 0 0 1-1.096-2.362c.392-1.075.248-2.769-.292-3.364l-.021-.028c-3.559 6.259-5.52 15.268-4.768 22.324.133.372.402 1.092.785 1.036.747-.14 1.793-1.396 1.669-2.788a1.87 1.87 0 0 1 .594-1.511 1.85 1.85 0 0 1 1.547-.446l8.655 1.55a1.854 1.854 0 0 1 1.498 2.061c-.871 6.391-5.164 11.05-11.157 12.143-1.747.309-3.49.32-5.154.022l-.004.024c-4.315-.772-8.176-3.53-10.476-7.775-.036-.081-.095-.166-.125-.272-1.748-4.968-.636-10.071.47-15 .477-2.106.908-4.096 1.133-6.047-.122-6.544 3.168-12.279 8.815-15.052m30.055 3.738c4.678-.98 9.844.743 12.845 4.267 2.756 3.232 3.345 7.445 1.641 11.82-.291.794-1.094 1.247-1.926 1.173l-5.827-.669c-1.021-.133-1.73-1.032-1.602-2.03l.026-.144c-.07-.585-.07-1.283-.032-2.048.009-.745.042-2.182-.115-2.833-.689-.322-1.411-.178-2.123.466-.973.847-1.526 2.266-1.346 3.344 1.432 2.148 3.044 3.707 4.612 5.233 3.817 3.695 7.423 7.178 5.118 16.997-1.307 4.795-4.466 7.989-8.88 9.016-1.792.426-3.66.44-5.469.116-3.037-.543-5.903-2.052-7.933-4.333-3.027-3.38-3.779-7.796-2.128-12.43.3-.842 1.16-1.336 2.056-1.2l6.952 1.195c.578.104 1.06.463 1.316.982.255.518.268 1.144.004 1.644a3.22 3.22 0 0 0 .226 3.327c.38.516.896.832 1.25.796.331-.041.865-.517 1.278-1.713 1.465-3.87-.604-6.357-4.118-10.073-3.32-3.556-7.483-7.962-4.761-14.545 1.296-4.323 4.592-7.443 8.936-8.358m23 48.455-.025-.004.015.002zm.367-42.355c4.645-2.18 10.362-1.455 13.939 1.775 3.425 3.102 4.292 7.987 2.379 13.395a1.85 1.85 0 0 1-1.96 1.218l-3.993-.491c-.21.062-.42.124-.641.109a1.8 1.8 0 0 1-1.58-.904 1.8 1.8 0 0 1-.402-1.367c.03-.169.056-.314.111-.478-.17-2.943-1.139-4.063-1.749-4.272-.517-.167-1.005.194-1.275.593-.725.99-.855 3.109 1.106 5.775.925 1.361 2.278 2.425 3.722 3.53 1.947 1.493 3.957 3.048 5.136 5.499q.111.207.139.474c1.202 6.488-.666 12.054-5.141 15.236-2.937 2.109-6.701 2.877-10.168 2.261a12.5 12.5 0 0 1-4.012-1.439c-4.475-2.519-6.775-7.462-6.283-13.548.055-.861.728-1.562 1.595-1.68 3.589-.453 6.56.327 8.172 2.159.806.916 1.597 2.477 1.165 4.889.44.601.783.489.998.403 1.31-.512 2.685-2.905 2.218-4.607-.031-.105-.062-.21-.065-.335-.181-2.323-2.194-4.002-4.53-5.964-2.834-2.374-6.06-5.068-5.953-9.555-.26-5.772 2.317-10.44 7.072-12.676"/></svg>