<svg xmlns="http://www.w3.org/2000/svg" width="229" height="56" fill="none"><path fill="#fff" d="M17.718 4.674c.128.935.202 2.34.08 3.189-.197 1.176-.454 2.263-.92 3.234-.39.813-.895 1.667-1.594 2.5-1.052 1.226-3.635 3.331-6.17 3.694-1.526.22-2.446-.724-2.78-1.58-.262-.695-.403-2.238 1.077-3.134 1.216-.736 3.835-2.92 4.454-5.036.1-.308.071-.523-.046-.677-.147-.2-.445-.278-.921-.26-.882.03-1.878.1-2.958.254-1.08.155-2.267.398-3.498.673l-.117.017c-.259.037-.627.138-.862.172a2.47 2.47 0 0 1-2.74-1.463C.304 5.29.474 3.923 1.79 3.05 3.892 1.625 8.222.906 9.49.724c2.089-.3 4.412-.461 6.043.6.516.267.937.72 1.318 1.227.418.6.76 1.528.867 2.123M33.92 10.53c0 1.172-.208 2.8-1.264 4.143C31.448 16.243 29.467 17 26.694 17c-4.527 0-7.225-2.403-7.225-6.47 0-1.136.207-2.763 1.264-4.144 1.207-1.533 3.226-2.327 5.961-2.327 2.264 0 3.867.473 5.094 1.4 1.433 1.097 2.131 2.838 2.131 5.07M26.77 8.39h-.246c-1.66 0-2.396.644-2.414 2.082-.076 1.456.698 2.118 2.528 2.194h.188c1.66 0 2.434-.643 2.471-2.043.02-.89-.17-2.12-2.527-2.233M38.4 9.967c-.7-.056-1.306-.352-1.665-.574-.7-.427-1.211-1.056-1.4-1.705-.247-.648-.133-1.371.226-1.927a2.45 2.45 0 0 1 2.007-1.056h.17c.719.074 1.325.37 1.703.593 1.457.926 1.93 2.446 1.155 3.631-.436.649-1.193 1.038-2.025 1.038zm10.58-1.686c-.133.853-.436 1.76-.966 2.798-.605 1.112-1.476 2.205-2.536 3.168-1.306 1.186-2.933 2.168-4.485 2.65-.625.24-1.363.426-2.1.426-.152 0-.285 0-.455-.037-1.079-.13-1.609-.908-1.741-1.52-.038-.333-.133-1.408 1.098-2.093.302-.167.567-.26.832-.39.246-.11.473-.203.682-.296.586-.333 1.892-.945 2.99-2.056 1.344-1.316 2.536-3.335 2.971-4.15.53-.964 1.476-1.094 1.836-1.094.132 0 .303.037.397.074 1.136.297 1.647 1.168 1.477 2.52M52.095 13.96a74 74 0 0 1-.577-4.833 73 73 0 0 1-.26-4.817c.008-.682.049-1.253.08-1.665.225-2.088 1.55-2.409 2.13-2.46.56-.05 1.964.031 2.522 2.05.125.397.241.955.345 1.628.09.514.181 1.051.256 1.658.01.113.107.195.22.186.605-.031 1.235-.041 1.82-.047 1.24.004 2.395.061 3.285.187.524.067.961.165 1.284.25 1.714.531 1.831 1.884 1.866 2.29-.02.547-.216 1.927-2.158 2.394a12 12 0 0 1-1.69.262c-.76.067-1.614.097-2.537.11-.474-.003-.929-.054-1.358-.062-.112.01-.238.112-.228.225.048.814.068 1.562.078 2.197.014.68-.004 1.25-.059 1.664-.202 2.085-1.57 2.41-2.13 2.46-.581.051-1.941-.034-2.522-2.05-.102-.4-.24-.955-.366-1.626M71.85 17.22c-1.44-.205-2.772-.475-3.795-.68-.534-.157-.976-.26-1.299-.366-1.775-.655-1.728-1.994-1.67-2.407.052-.375.371-1.675 2.256-1.81a9 9 0 0 1 1.345.032c.395.016.848.04 1.315.106.122-.022.189-.073.202-.171.022-.44.079-.853.142-1.306s.126-.906.222-1.314c.014-.099-.034-.186-.15-.203-.27-.058-.504-.091-.712-.161-.457-.146-.843-.22-1.138-.383-1.28-.504-1.632-1.538-1.525-2.306.109-.788.732-1.704 2.1-1.831.325-.055.72-.038 1.195-.031.906.048 2.043.15 3.25.322 1.245.177 2.366.397 3.25.603.459.125.842.22 1.14.363 1.28.503 1.63 1.558 1.52 2.346-.107.768-.727 1.664-2.094 1.791-.328.074-.72.038-1.198.05-.22.01-.453-.024-.728-.043-.117-.016-.186.054-.2.153-.018.42-.082.872-.144 1.325-.063.453-.12.867-.22 1.295-.013.099.037.166.148.222.467.066.91.17 1.293.264.542.098.979.24 1.302.346 1.774.655 1.727 1.994 1.675 2.368-.057.414-.377 1.714-2.26 1.848-.34.012-.793-.012-1.349-.01-1.04-.088-2.394-.2-3.873-.411zM84.072 8.755c-.716-.06-1.336-.38-1.704-.619-.716-.459-1.24-1.137-1.433-1.836-.252-.698-.136-1.476.232-2.075a2.47 2.47 0 0 1 2.053-1.137h.174c.736.08 1.356.399 1.743.638 1.492.998 1.976 2.634 1.182 3.911a2.44 2.44 0 0 1-2.073 1.118zm10.826-1.816c-.136.918-.446 1.895-.988 3.013-.62 1.197-1.51 2.374-2.595 3.412-1.336 1.277-3.002 2.334-4.59 2.853-.639.26-1.394.46-2.15.46-.154 0-.29 0-.464-.04-1.104-.14-1.646-.978-1.782-1.637-.038-.359-.135-1.516 1.124-2.255.31-.18.58-.279.852-.419.251-.12.484-.22.697-.319.6-.36 1.936-1.018 3.06-2.215 1.374-1.416 2.594-3.591 3.04-4.47a2.13 2.13 0 0 1 1.878-1.177c.136 0 .31.04.407.08 1.162.32 1.685 1.257 1.51 2.714M98.227 15.64a76 76 0 0 1-.836-4.906 76 76 0 0 1-.514-4.906 26 26 0 0 1-.006-1.705c.117-2.145 1.435-2.545 2.018-2.628.56-.08 1.981-.074 2.649 1.957.147.4.293.964.432 1.645.118.521.238 1.065.346 1.68a.204.204 0 0 0 .23.178 52 52 0 0 1 1.833-.147c1.251-.062 2.417-.066 3.321.015.531.04.977.116 1.307.186 1.755.45 1.944 1.825 1.978 2.241.031.557-.094 1.977-2.027 2.559-.485.14-1.017.263-1.69.36-.292.041-.516.073-.792.066-.516.074-1.083.109-1.603.16-.522.029-1.012-.041-1.528.033-.113.016-.235.127-.219.242.091.828.151 1.591.194 2.24.049.694.061 1.277.028 1.702-.094 2.141-1.457 2.548-2.018 2.628-.584.084-1.959.07-2.65-1.958a26 26 0 0 1-.454-1.641M132.337 11.71c-.425 1.352-.941 2.672-1.637 3.88-.698 1.233-1.382 2.034-1.797 2.453-.908.926-1.697 1.287-2.565 1.21a2.35 2.35 0 0 1-1.567-.761c-.54-.6-.898-1.662-.296-2.878a2 2 0 0 1 .257-.505l.008-.095c.112-.205.201-.413.312-.595a54 54 0 0 0 1.1-2.323c.311-.595.7-1.807.855-2.512.01-.119-.073-.246-.19-.257a10 10 0 0 0-1.307-.211l-.047-.004q-.141-.013-.224.124a6 6 0 0 1-.221.651 17.5 17.5 0 0 1-2.278 4.184c-1.477 2.025-2.533 2.196-3.307 2.127a2.3 2.3 0 0 1-1.368-.6c-.394-.37-1.277-1.384-.589-3.048.119-.277.265-.6.462-.966.058-.114.117-.253.155-.417a36 36 0 0 0 1.036-2.137c.008-.095.013-.142-.028-.218-.043-.051-.086-.103-.157-.11l-.657-.058c-1.573-.14-2.341-1.118-2.448-2.062-.174-.997.31-2.225 1.678-2.726.316-.092.61-.21 1.043-.291a17.6 17.6 0 0 1 2.485-.283.55.55 0 0 0 .179-.152c.038-.165.099-.327.159-.465.702-1.831 2.125-1.873 2.548-1.836.516.046 1.245.374 1.695.918.195.208.491.618.586 1.441.04.076.126.179.197.185.328.03.657.059.958.133.491.068.933.155 1.348.287 1.553.378 2.746 1.082 3.37 2.072.187.304.324.628.421.876.211.57.245 1.005.314 1.298-.001.287.017.625-.014.981-.045 1.075-.29 1.987-.469 2.69M148.518 9.705c-.149.885-.469 1.825-1.02 2.896-.628 1.147-1.522 2.27-2.603 3.254-1.333 1.212-2.985 2.205-4.552 2.68-.632.239-1.376.419-2.117.406a2 2 0 0 1-.456-.047 2.01 2.01 0 0 1-1.721-1.613c-.032-.348-.108-1.469 1.14-2.16.307-.169.574-.26.843-.39.249-.112.479-.205.689-.297.596-.337 1.918-.95 3.04-2.089 1.373-1.346 2.607-3.427 3.058-4.268a2.1 2.1 0 0 1 1.863-1.106c.133.002.304.044.398.084 1.135.33 1.633 1.245 1.438 2.65M163.321 8.726c-.09.747-.318 1.846-.585 2.474-.391.866-.811 1.65-1.367 2.3a9.3 9.3 0 0 1-1.74 1.59c-1.061.723-3.485 1.802-5.518 1.548-1.223-.153-1.743-1.074-1.827-1.804-.062-.591.142-1.81 1.468-2.19 1.089-.31 3.556-1.441 4.464-2.942.14-.216.161-.388.102-.532-.073-.184-.287-.308-.659-.393a22 22 0 0 0-2.337-.429 38 38 0 0 0-2.84-.218l-.094-.012c-.208-.026-.514-.025-.702-.049a2 2 0 0 1-1.819-1.705c-.129-.833.28-1.852 1.475-2.247 1.913-.656 5.405-.297 6.422-.17 1.675.21 3.504.574 4.549 1.735.344.316.577.753.769 1.224.201.55.278 1.338.239 1.82M170.635 11.626c.192-.162.385-.323.56-.52.07-.09.035-.25-.123-.25-.437-.036-.892-.036-1.33-.036-.699 0-1.382.036-2.099.072-.735.071-1.872.286-2.397-.412-.28-.376-.402-.95-.227-1.397.385-1.038 1.679-1.289 2.572-1.45a15.4 15.4 0 0 1 3.114-.34c1.137 0 2.344.09 3.306.752a2.72 2.72 0 0 1 1.173 2.65c-.158 1.074-.84 1.969-1.61 2.595-.612.502-1.137.788-1.487.914-.298.09-.578.16-.822.16h-.07a.16.16 0 0 0-.158.162c0 .09 0 .179-.017.286-.035.537-.193 1.898-.928 2.525a1.67 1.67 0 0 1-1.084.304c-.56-.018-1.26-.376-1.417-1.611-.07-.43-.07-.967-.035-1.54.087-.698.279-2.847 1.907-2.847.262 0 .524.072.752.197.052.054.157.036.175 0 .105-.09.157-.16.245-.214M177.213 5.357c.032-.593.052-1.08.104-1.443.275-1.88 1.567-2.121 1.985-2.116.393-.035 1.736.078 2.188 1.936.089.309.172.786.268 1.41.145 1.19.214 2.47.345 3.998.064.732.061 1.66.388 2.075.348.412.967.336 1.381.067 1.057-.79 1.943-1.627 2.475-2.223.513-.572.942-1.158 1.595-1.554 1.134-.628 2.645-.023 2.947 1.3.07.331.287 1.155-.945 3.057-.495.782-1.644 2.191-3.406 3.507-2.296 1.638-5.481 2.152-7.037 1.024-2.711-1.953-2.403-8.265-2.288-11.038M195.772 9.868c-.665-.094-1.227-.433-1.558-.682-.646-.478-1.101-1.156-1.248-1.837a2.4 2.4 0 0 1 .315-1.98c.448-.647 1.208-1.027 1.965-.985l.163.01c.681.114 1.243.453 1.593.702 1.341 1.036 1.715 2.631.915 3.816a2.24 2.24 0 0 1-1.983.965zM215.604 9.924c.676-.544 1.005-1.184 1.032-1.585.007-.094-.079-.218-.196-.227-.212-.014-.451.016-.709-.002a49 49 0 0 1-3.564-.415c-.561-.087-1.025-.214-1.396-.311-1.894-.63-1.957-2.102-1.924-2.573.028-.4.298-1.897 2.258-2.21.384-.091.858-.105 1.429-.16 1.063.004 2.434.005 3.869.106 1.458.102 2.815.292 3.869.436.605.138 1.048.216 1.416.36 1.012.402 2.189 1.48 1.994 3.265-.1.75-.317 1.492-.63 2.252-.35.946-.863 1.857-1.514 2.734a10 10 0 0 1-.649.83c-.079.114-.019.26.071.337.688.64 1.351 1.302 1.827 1.927 1.471 1.95.814 3.23.276 3.831a2.47 2.47 0 0 1-1.942.74c-.377-.027-1.459-.102-3.941-2.454-.157-.13-.333-.308-.488-.46-.066-.076-.183-.084-.235-.017a18.3 18.3 0 0 1-2.768 1.392c-.729.28-2.134.774-3.145.703-1.2-.084-1.921-.916-2.175-1.69-.226-.822-.024-2.015 1.256-2.754.247-.148.47-.298.764-.443 1.53-.935 3.452-2.055 5.215-3.612M17.78 48.581c-.74.07-2.156.202-8.478-4.15-.27-.105-.604-.205-.564.217.397 4.186-1.647 5.229-3.16 5.37-.804.076-2.828-.029-3.66-2.996a13.6 13.6 0 0 1-.518-2.374c-.378-1.93-.656-4.523-.911-7.216-.256-2.694-.47-5.293-.46-7.258-.06-.977-.012-1.832.062-2.429.26-3.069 2.228-3.548 3.033-3.623.837-.079 2.86.026 3.726 2.99.12.578.286 1.315.437 2.218.086.221.333.427.536.18 3.129-3.306 6.701-5.016 7.667-5.106 1.062-.1 2.07.264 2.733 1.086.432.45 1.631 2.14.064 4.447-.88 1.327-3.731 4.147-6.314 6.354-.182.148-.154.44.049.52 2.184 1.464 6.208 4.525 7.608 5.933 1.976 2.008.896 3.976.52 4.47-.54.803-1.404 1.276-2.37 1.367M22.682 44.673c.126-.531.335-1.167.63-1.96.587-1.56 1.458-3.593 2.411-5.703.978-2.056 1.924-3.952 2.749-5.45 1.11-2.024 2.038-3.464 3.685-3.404 1.699.062 2.572 1.65 3.536 3.669a152 152 0 0 1 2.27 5.633 109 109 0 0 1 2.049 5.866c.21.812.426 1.463.486 2.002.497 2.43-.915 3.264-1.534 3.483-.272.15-.646.217-.991.205-1.779-.065-2.518-1.701-3.429-3.718-.049-.11-.169-.49-.354-.496-.56.033-1.542-.002-2.578-.04s-2.177-.08-2.573-.148c-.16-.006-.359.362-.416.467-1.08 1.945-1.935 3.522-3.74 3.456-.318-.011-.634-.103-.974-.277-.602-.263-1.924-1.196-1.227-3.584m7.956-5.339c.315.092 1.83.094 2.23.082.188-.047.246-.179.2-.395-.114-.513-.57-1.898-.919-2.527-.1-.164-.338-.2-.425-.015-.504.732-1.025 1.893-1.231 2.448-.034.214.04.35.145.407M49.404 38.17c-.295-.323-.56-.622-.877-.89-.091-.126-.272-.057-.256.13.15 1.735.181 3.32.211 4.58.021.86-.031 1.483-.065 2.023-.277 2.338-1.791 2.714-2.4 2.767-.662.059-2.218-.046-2.84-2.304-.152-.524-.29-1.185-.465-1.976-.21-1.488-.495-3.56-.678-5.67-.19-2.188-.26-4.226-.315-5.78.036-.81.058-1.485.124-1.948.118-1.41.885-2.714 2.393-2.847 1.086-.096 1.959-.173 9.508 7.526.316.268.583.567.877.89.113.071.294.002.282-.132a56 56 0 0 1-.215-4.634c-.017-.806.005-1.48.071-1.943.244-2.415 1.785-2.793 2.394-2.847.635-.055 2.164.051 2.847 2.385.118.447.282 1.105.378 1.903.294 1.534.549 3.556.739 5.745.182 2.108.284 4.197.255 5.706.047.856-.005 1.48-.038 2.02-.125 1.33-.967 2.694-2.45 2.825-1.031.091-1.931.17-9.48-7.528M65.659 46.23c-.458-.577-.744-1.24-.944-1.846-.257-1.01-.114-1.99.4-2.683.486-.664 1.316-1.039 2.174-1.039.944 0 1.46.52 2.117 1.125.6.577 1.201 1.183 2.374 1.385.23.058.543.087.801.087.944 0 1.602-.404 1.602-1.01 0-.808-1.001-1.212-2.317-1.731-.944-.346-1.974-.75-2.86-1.356-2.318-1.702-3.433-3.577-3.433-5.51 0-4.586 3.776-7.01 7.523-7.01 2.803 0 5.435 1.155 6.608 2.885 1.058 1.587.486 2.943-.257 3.606-.4.375-1.03.577-1.573.577-.744 0-1.374-.317-1.917-.606-.658-.317-1.316-.72-2.317-.72-.858 0-1.63.518-1.63 1.066 0 .808 1.287 1.385 2.774 1.99.915.404 1.888.809 2.689 1.328 2.174 1.413 3.175 3.346 3.175 5.827 0 3.058-2.06 6.664-7.98 6.664-3.061 0-5.435-1.01-7.009-3.03M82.81 44.907c.141-.527.37-1.156.688-1.94.635-1.542 1.568-3.546 2.585-5.626 1.04-2.024 2.043-3.89 2.913-5.361 1.172-1.989 2.145-3.4 3.788-3.288 1.696.115 2.52 1.728 3.423 3.777.59 1.517 1.36 3.556 2.096 5.7.758 2.2 1.417 4.312 1.868 5.928.185.818.381 1.475.425 2.015.423 2.446-1.015 3.235-1.64 3.434-.276.142-.653.197-.997.174-1.776-.12-2.464-1.778-3.314-3.823-.046-.11-.153-.494-.339-.506-.56.015-1.54-.051-2.575-.121-1.034-.07-2.173-.148-2.567-.228-.16-.01-.37.35-.43.454-1.14 1.91-2.041 3.46-3.844 3.338-.318-.022-.631-.124-.965-.308-.594-.281-1.887-1.255-1.117-3.62zm8.114-5.089c.313.102 1.827.151 2.227.151.189-.041.251-.171.212-.389-.099-.517-.511-1.914-.842-2.554-.095-.167-.332-.21-.424-.028-.527.716-1.083 1.86-1.306 2.408-.04.212.03.351.133.412M110.159 30.157c.143 1.712.201 3.89.201 6.211s-.058 4.5-.201 6.212c-.058.87-.173 1.596-.26 2.09-.46 2.583-2.187 2.874-2.907 2.874-.719 0-2.388-.29-2.906-2.874-.087-.494-.144-1.22-.26-2.09-.086-1.712-.201-3.89-.201-6.212s.115-4.499.201-6.211c.116-.87.173-1.597.26-2.09.518-2.583 2.187-2.874 2.906-2.874s2.447.29 2.907 2.874c.087.493.202 1.22.26 2.09"/><path fill="#fff" d="M204.879 9.053c-.053.317-.071.48-.074.509-.003.032.03.137.032.167s.008.059.044.077c.101.026.416.115.595.008.134-.08.282-.194.685-.195.318-.001.913.022 1.254.011.43-.013.633-.046.766-.15.05-.038.058-.075.046-.115-.028-.086-.205-.16-.256-.337-.01-.035-.002-.076.049-.09.131-.035.369-.028.758-.23.093-.048.176-.119.119-.178-.161-.168-.906.207-1.113-.546-.029-.107.131-.256.042-.29-.214-.078-.636.094-.556-.026.039-.06.105-.194.191-.29.086-.094.202-.204.177-.388-.016-.124-.065-.257-.174-.316a.35.35 0 0 0-.203-.052c-.069.007-.246.033-.534.183-.375.196-.633.335-.727.426-.237.23-.63.564-.792.897-.114.235-.269.564-.33.925z"/><path fill="#fff" d="M193.371 16.652c.224.418.643 1.06.944 1.218-.014.236.027.324.067.421.081.2.128.518.339.845.188.043.429.136.602.024.19-.122.383-.684.916-.747.921-.11 1.284-.147 2.291-.62.279-.133.214-.752.619-.8.507-.058 1.01.018 1.178-.157.144-.15.143-.633.477-.666.466-.047 1.123.155 1.417-.25.366-.507.525-1.177 1.003-1.555.162-.129.634-.052.788-.39.314-.685-.253-2.485.371-2.703.345-.121.79-.296.955-.68.08-.186.125-.396.082-.549-.141-.5-.424-.998-.744-1.142-.159-.072-.563-.142-1.02-.011-.301.086-.411.399-.541.34-.133-.059-1.285-.499-1.748.057-.127.152-.1.506-.354.668-.628.4-.995 1.642-1.39 1.408-.356-.21-1.01-.515-1.472-.187-.198.141-.325.452-.579.65-.107.084-.227.057-.345.09-.498.143-.775.692-1.159.878-.56.271-1.434.403-1.479.674-.068.407-.047.804-.195.927-.143.119-.765.261-.921.809-.155.539-.329 1.024-.102 1.448M138.839 8.71c.097.06.238.225.263.268l.023.062.041.121c.044.13.094.223.134.31.043.094.114.233.15.373.048.187.093.274.144.415.114.315.153.449.212.648.03.1.065.191.094.361.021.123.04.267.057.383.014.103-.02.256.051.266.028.004.171-.025.37-.172.261-.193.626-.276.713-.358.021-.02.046-.052-.123-.201-.112-.099-.2-.056-.51-.56-.129-.209-.198-.36-.345-.628-.072-.13-.196-.302-.257-.504-.059-.197-.131-.354-.178-.458-.074-.166-.078-.39-.114-.501-.044-.14-.1-.19-.057-.398.051-.248.118-.476.223-.618.135-.183.333-.45.485-.668.137-.196.226-.34.272-.408.154-.235.24-.415.386-.536.246-.205.64-.214.581-.403a.4.4 0 0 0-.187-.199c-.153-.08-.288-.234-.448-.298-.109-.044-.192-.081-.333-.075-.296.012-.419.065-.501.022-.021-.011-.048-.033-.037-.057.048-.108.087-.184.058-.2-.033-.017-.149-.008-.298-.018h-.007c-.157-.012-.315-.023-.445.04-.114.054-.255.152-.288.09-.051-.099-.083-.191-.121-.244-.022-.033-.054-.073-.114-.045-.061.029-.148.124-.196.163s-.059.024-.066.004c-.016-.043.004-.203-.083-.247a.07.07 0 0 0-.062-.003c-.166.057-.417.187-.528.307-.089.096-.141.184-.135.29.013.228.036.46.078.606.043.15.112.402.112.548 0 .263.115.4.067.463-.004.007-.024-.006-.039-.02a4 4 0 0 1-.398-.468c-.105-.136-.274-.36-.415-.552-.142-.192-.252-.345-.364-.4s-.223-.014-.391.08a6 6 0 0 0-.512.325c-.157.117-.208.157-.224.195s-.032.092-.017.15c.031.124.236.307.122.424-.022.022-.253-.2-.364-.05-.085.114-.02.285-.111.32-.043.016-.149-.024-.239.026-.044.025-.052.066-.082.105-.078.101-.098.188-.172.428-.032.108-.055.217 0 .272.065.064.191.112.234.213.008.019.005.037-.037.04s-.121-.013-.172-.007c-.129.017-.242.02-.278.084a.2.2 0 0 0-.031.116c.007.126-.001.368.073.62.095.322.221.635.341.784.044.055.065.069.13.026a8 8 0 0 1 .466-.277c.054-.03.198-.104.407-.23.227-.137.426-.277.73-.378a2.8 2.8 0 0 1 .778-.158c.141-.003.199-.01.254-.005.159.012.34.05.486.096.208.066.554.185.744.3M106.475 1.703c.065-.227.154-.401.182-.445a.7.7 0 0 1 .23-.21c.208-.118.303-.189.479-.144.166.043.197.094.711.422.234.15.454.246.776.576.144.148.46.474.802 1.043.482.802.685 1.058.701 1.34.013.216.045.437-.063.597-.113.167-.472.44-.868.597-.399.159-.814.405-1.088.35a.7.7 0 0 1-.321-.138c-.14-.114-.697-.53-.987-1.322-.118-.319-.184-.645-.259-.916-.082-.294-.159-.522-.216-.894-.083-.535-.123-.703-.079-.856"/><path fill="#fff" d="M107.6 5.422c-.042-.042-.155-.114-.211-.284l-.056-.113c-.008-.019.054-.125.056-.17.011-.04.078-.116.211-.227.037-.031.085-.06.147-.114a1.7 1.7 0 0 1 .26-.17c.121-.068.285-.174.506-.283.22-.109.359-.17.562-.227.159-.044.284-.048.337-.056.064-.01.214.005.338 0 .042-.002.186-.013.225 0 .141.045.202.01.254.102.032.057.125.229.139.284.03.113.034.196.03.283-.003.075-.03.18-.03.294s-.079.185-.112.226c-.036.046 0 0-.056.057a1.8 1.8 0 0 1-.281.227c-.042.029-.12.084-.169.113-.085.05-.19.076-.224.114-.049.052-.256.104-.338.135-.072.027-.115.052-.225.091-.047.017-.076.041-.168.07-.104.034-.204.038-.225.044-.043.011-.089.04-.139.046-.052.007-.144-.038-.198-.046-.093-.014-.16-.053-.196-.067-.047-.02-.137-.113-.167-.138-.039-.033-.058-.01-.123-.079-.038-.04-.111-.076-.146-.113zM108.645 2.675a.03.03 0 0 1-.021-.012l-.003-.006c-.039-.066-.075-.127-.099-.165l-.032-.046-.053-.077a4 4 0 0 0-.276-.29c-.081-.076-.151-.139-.194-.177a.3.3 0 0 0-.084-.053.024.024 0 0 1-.019-.029.023.023 0 0 1 .027-.019.3.3 0 0 1 .107.064c.044.039.114.102.196.18q.168.16.281.295l.054.078.033.047.099.167.004.006a.024.024 0 0 1-.008.033l-.012.003"/><path fill="#59671E" d="M91.582 39.39a.14.14 0 0 0-.088.081c-.016.036-.02.05-.027.063q-.011.02-.021.047c-.02.075-.03.147-.037.206-.007.065-.009.14-.117.514-.043.15-.099.341-.141.528a4 4 0 0 0-.083.47c-.01.143-.018.224-.01.337.01.157.016.323.027.447.01.125.014.203.044.277.027.07.081.175.244.384.04.054.105.128.209.21.058.045.12.158.315.218.277.085.456.121.525.126.264.016.388-.01.455-.067a.43.43 0 0 0 .169-.245c.08-.33.101-.438.076-.493-.032-.07-.061-.138-.167-.224-.075-.061-.177-.116-.272-.267-.047-.076-.077-.3-.126-.53q-.041-.195-.057-.274a1.2 1.2 0 0 1-.03-.37c.004-.036.06-.256.117-.567.027-.146.042-.196.044-.247.006-.138.002-.288-.09-.348-.078-.05-.201-.133-.397-.18-.254-.062-.462-.12-.561-.095z"/><path fill="#59671E" d="M92.585 39.933c.12.043.259.118.298.14.016.027.126.098.144.123.039.046.628.221 1.024.314.19.021.4.101.546.002.182-.125.418-.313.5-.513.097-.238.25-.79.153-1.162-.037-.143-.166-.55-.48-1.08-.144-.241-.278-.42-.446-.55-.326-.252-.524-.385-.607-.418a4 4 0 0 0-.773-.205c-.304-.051-.473-.064-.612-.085-.277-.042-.58-.094-.788-.089a4 4 0 0 0-.613.051c-.216.042-.402.084-.547.157-.156.078-.683.451-.949.841-.19.282-.38.555-.448.79-.079.274-.166.534-.138.788.065.59.164.916.33 1.029.216.145.672.414 1.125.32.251-.052.366-.093.555-.219.14-.092.259-.186.752-.35.195-.065.672.01.975.118zM30.584 42.178c.804.06 1.32.1 1.326.101.059-.02.323-.062.518-.083.194-.02.532-.048.723-.07.432-.092.815-.203.984-.303.25-.147.517-.36.712-.592.19-.227.433-.496.563-.816.231-.566.378-.89.371-1.454-.007-.555.015-.953-.137-1.295a2 2 0 0 0-.474-.655c-.187-.176-.599-.544-1.066-.72-.449-.17-.804-.29-.927-.357-.163-.09-.339-.137-.807-.41-.326-.19-.554-.667-.774-.575-.2.083-.443.501-.6.628-.222.18-.37.35-.585.456-.158.078-.44.203-.652.328-.332.195-.685.381-.846.463-.193.099-.367.178-.518.302-.253.21-.663.518-.86 1.018-.17.434-.303.618-.283 1.293.016.547.061.792.145 1.055.076.242.093.505.439.752.325.232.84.558 1.495.717.582.141.91.19 1.252.215z"/><path fill="#59671E" d="M31.545 42.285c.142.008.222.003.321 0l.481.002c.07-.012.08-.012.225-.032.198-.027.363-.036.452-.058.101-.025.178-.051.286-.07.102-.017.28-.1.437-.136.081-.018.325-.068.463-.152.091-.055.28-.185.354-.257.094-.09.179-.163.257-.291.055-.09.148-.257.13-.388-.032-.227.032-.097-.063-.292-.072-.146-.21-.248-.327-.334-.08-.06-.184-.138-.526-.23-.134-.037-.309-.078-1.057-.149-.734-.07-1.983-.168-2.645-.22l-.036-.002c-.652-.051-.672-.054-.689-.053-.03 0-.257-.017-.584.018-.16.017-.235.022-.318.045-.116.033-.265.031-.458.128-.116.058-.386.202-.482.322-.176.218-.244.353-.258.452-.019.142-.065.194.03.388.083.166.238.24.321.325.082.084.245.176.512.305.146.07.245.133.325.167.1.044.243.167.517.208.201.03.333.047.371.055.085.018.18.04.266.065.069.02.125.037.62.075.339.025.476.042.562.04.142-.002.394.06.513.067zM27.351 13.877c.195-.018.411-.047.441-.052.075-.029.197-.053.226-.068q.042-.022.091-.044c.147-.055.281-.137.453-.237.182-.108.396-.282.516-.378.109-.087.266-.17.476-.458.236-.327.417-.483.579-.934.057-.16.096-.284.098-.564.001-.221-.006-.591-.018-.84a2.3 2.3 0 0 0-.077-.554c-.118-.427-.221-.788-.305-.967-.081-.173-.363-.385-.833-.684-.125-.08-.448-.25-1.007-.352a3.6 3.6 0 0 0-.718-.047c-.207.002-.39.008-.577.013h-.023c-.395.013-.714.009-.917.022a1.7 1.7 0 0 0-.309.043c-.262.063-.728.123-1.004.267-.14.073-.313.158-.487.342-.332.353-.423.458-.481.589-.073.164-.189.37-.303.898-.048.222-.117.52-.127.708-.02.381-.035.562.081 1.024.035.14.117.418.285.786.102.223.202.367.328.462.264.2.708.432.854.509.14.074.301.132.54.18.243.048.536.088.833.137q.503.084.654.128c.221.063.53.088.731.07"/><path fill="#59671E" d="M25.734 7.591c.191-.018.44-.031.463-.025.162.003.745-.007.785-.002.085.01.292.023.595.045.275.02.498.054.65.075.086.012.172.02.262.058.164.069.422.103.541.224.098.1.273.157.4.269.25.22.174.157.25.22.06.05.138.105.193.188.056.086.143.177.27.642.045.164.064.237.073.29.029.169.056.39.016.522-.027.09-.087.256-.175.302a.17.17 0 0 1-.098.023.24.24 0 0 1-.118-.05c-.096-.073-.164-.23-.234-.198a1.26 1.26 0 0 0-.482.44c-.107.167-.18.361-.22.543-.035.158-.059.248-.095.274-.104.076-.182.15-.278.216-.088.06-.236.173-.32.114-.03-.021-.184-.263-.31-.475-.09-.155-.182-.281-.254-.39a1.8 1.8 0 0 0-.496-.496c-.086-.054-.128-.062-.173-.053-.11.022-.34.03-.42.129a1 1 0 0 0-.086.12l-.001.003c-.044.068-.118.178-.197.477a5 5 0 0 0-.097.414c-.018.115-.012.328-.203.437-.118.068-.269.2-.54.089-.314-.128-.467-.272-.56-.407-.092-.132-.163-.417-.202-.687-.024-.16-.034-.49-.178-.588-.095-.065-.246-.187-.47-.112-.115.039-.222.066-.283.137-.069.08-.12.204-.209.209-.096.005-.172 0-.2-.02a.4.4 0 0 1-.142-.157c-.032-.08-.038-.312-.003-.701.01-.104.009-.214.04-.335a1 1 0 0 1 .147-.339c.104-.141.177-.26.219-.317.057-.08.1-.139.175-.25.17-.251.218-.353.457-.438.11-.04.209-.104.326-.158.108-.05.329-.13.491-.16.31-.059.562-.09.691-.101z"/><path fill="#59671E" d="M24.951 8.644a1 1 0 0 1 .092-.14c.05.008.02.006.027.008.015.003.037.009.14.025l.12.025a.3.3 0 0 1 .093.034c.01.007.01.011.006.024l-.027.073-.053.138c-.018.042-.031.07-.076.075a.5.5 0 0 1-.17-.026c-.08-.022-.129-.033-.16-.041-.016-.005-.027-.008-.033-.019-.008-.014-.015-.03-.01-.042.006-.017.004-.05.051-.134M26.838 9.397a1 1 0 0 1-.01.144c-.04.016-.017.004-.022.006-.014.005-.032.01-.116.041l-.101.034a.2.2 0 0 1-.084.014c-.011 0-.013-.003-.016-.014l-.01-.067c-.006-.036-.014-.086-.019-.126s-.007-.066.024-.09a.5.5 0 0 1 .139-.053c.07-.018.11-.032.137-.038q.021-.008.033 0c.012.007.024.016.026.027.003.015.018.038.019.122M27.103 8.688a1 1 0 0 1-.079.122c-.043-.007-.017-.006-.023-.007-.013-.002-.032-.007-.12-.02l-.105-.021a.2.2 0 0 1-.08-.029c-.01-.006-.01-.01-.006-.02l.022-.063c.013-.034.03-.083.045-.12s.026-.061.065-.066a.5.5 0 0 1 .147.021c.07.019.112.027.138.035q.023.004.03.016c.006.012.012.026.009.036-.005.015-.004.043-.043.116M28.26 8.5a1 1 0 0 1-.056.085c-.03-.004-.012-.003-.017-.004-.01-.002-.023-.006-.086-.016l-.074-.016a.2.2 0 0 1-.056-.022c-.007-.004-.007-.006-.005-.015l.017-.044.034-.085c.01-.026.019-.043.047-.047a.3.3 0 0 1 .104.017c.049.015.08.02.098.026q.015.003.02.012.01.015.007.026c-.004.01-.003.03-.032.082M29.593 9.072a1 1 0 0 1-.057.086c-.03-.005-.012-.004-.017-.005-.01-.002-.022-.006-.086-.016l-.074-.016a.2.2 0 0 1-.057-.021c-.006-.005-.006-.007-.004-.015l.018-.045.033-.085c.01-.026.019-.043.046-.046a.3.3 0 0 1 .105.016c.05.015.08.021.098.026q.015.004.02.012.01.015.007.026c-.004.01-.003.03-.032.082M28.26 9.205a1 1 0 0 1-.056.085c-.03-.004-.012-.003-.017-.004-.01-.002-.023-.006-.086-.016l-.074-.016a.2.2 0 0 1-.056-.022q-.01-.004-.005-.014l.017-.045.034-.085c.01-.026.019-.043.047-.046a.3.3 0 0 1 .104.016c.049.015.08.02.098.027q.015.003.02.011.01.016.007.026c-.004.01-.003.03-.032.082M24.526 9.34a1 1 0 0 1-.057.085c-.03-.005-.012-.004-.016-.005l-.086-.016c-.025-.004-.057-.012-.074-.015a.2.2 0 0 1-.057-.022q-.009-.005-.004-.015l.017-.044.033-.085c.011-.026.02-.044.047-.047a.3.3 0 0 1 .105.017l.098.026q.015.003.02.012.01.014.007.026c-.004.01-.003.03-.032.082M25.969 8.05a1 1 0 0 1 .1-.02c.018.024.006.01.009.014.005.008.012.02.05.073.014.02.032.048.041.064q.018.025.026.055.003.01-.008.013l-.043.02-.082.037c-.026.01-.044.017-.066 0a.3.3 0 0 1-.063-.087c-.024-.044-.042-.07-.051-.088q-.009-.013-.006-.022.003-.017.013-.023c.01-.005.024-.02.08-.036"/><path fill="#fff" d="M110.717 1.865c.065-.227.154-.401.182-.445a.7.7 0 0 1 .23-.21c.208-.118.303-.189.479-.143.167.042.197.093.711.421.235.15.455.246.776.576a5.4 5.4 0 0 1 .802 1.043c.482.802.685 1.058.701 1.34.013.216.046.437-.063.597-.113.167-.472.44-.868.597-.398.159-.814.405-1.088.35a.7.7 0 0 1-.321-.138c-.14-.114-.696-.53-.987-1.321-.118-.32-.184-.646-.259-.917-.082-.294-.159-.522-.216-.894-.082-.535-.123-.703-.079-.856"/><path fill="#fff" d="M111.842 5.584c-.041-.042-.155-.114-.211-.284l-.056-.113c-.008-.019.054-.125.056-.17.011-.04.078-.116.211-.227.037-.03.085-.06.147-.113a1.7 1.7 0 0 1 .26-.17c.121-.069.286-.175.506-.284s.359-.17.562-.227c.159-.044.284-.048.338-.056.063-.01.213.005.337 0 .042-.002.186-.013.225 0 .142.046.202.01.254.102.032.057.125.23.139.284.03.113.034.196.03.283-.003.075-.029.181-.029.294s-.08.185-.113.227c-.036.045 0 0-.056.056a1.7 1.7 0 0 1-.281.227c-.042.029-.12.084-.168.113-.085.05-.191.076-.225.114-.049.052-.256.104-.338.135-.072.027-.115.052-.225.091-.047.018-.076.041-.168.07-.104.035-.204.038-.225.044-.043.011-.088.04-.139.046-.052.007-.143-.038-.198-.046-.093-.014-.16-.053-.196-.067-.047-.02-.137-.113-.167-.138-.038-.033-.058-.01-.122-.078-.039-.04-.112-.077-.147-.114zM112.887 2.837a.03.03 0 0 1-.021-.012c-.04-.068-.077-.131-.102-.17l-.032-.047-.053-.077a4 4 0 0 0-.276-.29 7 7 0 0 0-.194-.177.3.3 0 0 0-.084-.053.025.025 0 0 1-.019-.028.023.023 0 0 1 .027-.02.3.3 0 0 1 .107.064c.064.056.132.118.196.18q.168.16.281.295l.054.078.033.047c.025.04.063.105.103.173a.024.024 0 0 1-.008.033zM214.099 23.696c-4.543-1.912-13.552-2.217-15.438 6.96-.296-.22-1.5-.986-3.996-2.334a.534.534 0 0 0-.642.102c-1.084 1.135-3.069 2.778-4.343 3.779a.48.48 0 0 0 .145.833c2.387.79 6.362 1.91 9.223 3.39-.134.971.122 3.23 2.213 4.49-.622.285-2.404.75-4.55.327-1.513-.31-4.897-1.404-6.334-3.292-.478-.85-1.735-2.651-2.934-3.067-.225-.108-.694-.032-.771 1.14.008.584.547 2.277 2.639 4.378 2.076 1.632 7.061 4.714 10.398 3.983-.45.483-1.79 1.59-3.555 2.145-1.238.105-3.921.496-4.749 1.226-.246.217-.551.762.2 1.204 1.147.216 4.072.369 6.599-.752-.854.62-2.655 2.023-3.032 2.67-.108.227.054.662 1.563.595.973-.31 3.313-1.209 4.892-2.337-.668 1.333-1.861 4.135-1.283 4.678.061.12.418.21 1.35-.4.347-.328 1.415-1.602 2.916-4.08-.098 1.138-.156 3.646.396 4.58.104.17.474.423 1.11.073.137.032.608-.562 1.395-3.2.199 1.205.735 3.86 1.284 4.85.243.179.81.389 1.128-.206.244-.894.725-2.978.691-4.157l1.056 1.962c.324.722 1.153 2.177 1.874 2.226.957.274 1.846-2.637-.61-7.676 1.935.596 6.478 1.3 9.17-.651 1.262-1.177 3.627-4.298 2.993-7.366-.117-.568-1.338-.846-1.415.326-2.781 5.209-3.359 6.572-9.927 4.734 4.398-3.304 12.452-12.412.344-21.132"/><path fill="#59671E" d="M212.275 30.774c.317-.481.283-1.066-.076-1.305-.36-.24-.908-.043-1.226.438-.317.482-.283 1.066.076 1.306s.908.043 1.226-.439M205.865 28.061c.317-.481.283-1.066-.076-1.305-.36-.24-.908-.043-1.226.438-.317.482-.283 1.067.076 1.306s.908.043 1.226-.439M203.681 44.003c-.019 0-.028.016-.03.024-.003.013-.004.031.011.044l.664.599a.464.464 0 0 1-.419.794.4.4 0 0 1-.189-.112l-1.39-1.26a.45.45 0 0 1-.136-.459.46.46 0 0 1 .349-.33l1.835-.39a.5.5 0 0 1 .216.008c.162.044.29.18.321.349a.48.48 0 0 1-.061.346.44.44 0 0 1-.295.195l-.877.192zm4.082-1.006c.091.07.157.18.174.304a.48.48 0 0 1-.1.335l-1.968 2.524a.46.46 0 0 1-.477.163.5.5 0 0 1-.164-.086.43.43 0 0 1-.172-.309.44.44 0 0 1 .091-.337l1.975-2.522a.46.46 0 0 1 .477-.159.4.4 0 0 1 .164.086m1.433 2.583c.019-.004.028-.02.032-.033q.01-.027-.014-.035l-.661-.612a.459.459 0 0 1 .609-.683l1.39 1.26a.48.48 0 0 1 .134.468.45.45 0 0 1-.348.322l-1.826.392a.4.4 0 0 1-.218 0 .458.458 0 0 1 .026-.892z"/><path fill="#fff" d="M180.259 30.45c.166.67-.143 1.555-.975 2.657-.071.144-.047.311.119.335.856.311 1.64.814 2.282 1.437 1.259 1.316 1.948 3.184 1.948 5.243s-.689 3.878-1.948 5.195c-1.141 1.15-2.828 1.867-4.492 1.867-1.711 0-3.398-.718-4.539-1.867-1.877-1.94-1.996-4.549-1.924-6.368.047-1.605.499-3.304 1.307-4.908.784-1.604 1.924-3.041 3.136-3.999.666-.55 1.688-1.269 2.804-1.269 1.022 0 2.02.743 2.282 1.676m-1.973 11.204c.333-.36.547-.886.499-1.532.048-.623-.166-1.221-.499-1.557a1.52 1.52 0 0 0-1.14-.478h-.048c-.38 0-.713.143-.998.359-.428.359-.665.957-.618 1.676-.047.215 0 .455.024.646.214.838.808 1.34 1.592 1.34h.048a1.6 1.6 0 0 0 1.14-.454M155.411 45.98c-1.26-.335-2.044-1.269-2.044-2.418.048-.838.452-1.556 1.378-2.394.832-.814 1.854-1.437 2.805-2.083 1.211-.838 2.518-1.724 3.231-2.993.381-.718.428-1.508.095-2.107a1.22 1.22 0 0 0-1.021-.598c-.832 0-1.26.886-1.64 1.532-.238.55-.832 1.652-2.21 1.652-.808 0-1.545-.479-1.972-1.15-.262-.502-.499-1.22-.048-2.752v-.024c.428-1.365 1.307-2.586 2.4-3.376A6.1 6.1 0 0 1 160.116 28c.927 0 1.83.192 2.685.622 1.783.814 3.137 2.538 3.589 4.573.475 1.94.142 3.95-.88 5.65-.332.623-.831 1.221-1.378 1.82-.119.12-.048.335.119.383.594.072 1.045.168 1.236.191 1.449.384 1.996 1.485 1.996 2.37 0 .887-.547 1.94-1.996 2.37-1.426.384-2.947.432-4.492.432h-1.045c-1.593 0-3.113-.048-4.539-.431M147.298 30.712c1.592 1.556 2.353 3.998 2.353 7.254 0 3.16-.808 5.65-2.4 7.255-1.26 1.269-2.9 1.915-4.729 1.915-1.878 0-3.517-.647-4.729-1.915-1.592-1.604-2.448-4.118-2.4-7.255-.048-3.256.76-5.698 2.352-7.254 1.212-1.269 2.852-1.915 4.777-1.915 1.877 0 3.564.646 4.776 1.915m-3.683 10.894c.546-.6.879-1.94.879-3.64 0-1.723-.309-3.088-.832-3.639-.095-.072-.38-.359-1.14-.359-.808 0-1.046.287-1.141.36-.547.55-.832 1.867-.832 3.638 0 1.724.285 3.04.88 3.64.166.167.451.383 1.093.383.617 0 .926-.216 1.093-.383M119.676 45.783c-1.259-.336-2.043-1.27-2.043-2.418.047-.838.451-1.557 1.378-2.395.832-.813 1.854-1.436 2.804-2.082 1.212-.838 2.519-1.724 3.232-2.993.38-.718.428-1.508.095-2.107a1.22 1.22 0 0 0-1.022-.598c-.832 0-1.259.885-1.639 1.532-.238.55-.832 1.652-2.21 1.652-.808 0-1.545-.48-1.973-1.15-.261-.502-.499-1.22-.047-2.753v-.024c.427-1.364 1.307-2.585 2.4-3.375a6.1 6.1 0 0 1 3.731-1.27c.926 0 1.829.192 2.685.623 1.782.814 3.137 2.538 3.588 4.573.475 1.94.143 3.95-.879 5.65-.333.623-.832 1.221-1.378 1.82-.119.12-.048.335.118.383.595.072 1.046.167 1.236.191 1.45.383 1.996 1.485 1.996 2.37 0 .886-.546 1.94-1.996 2.37-1.426.384-2.947.432-4.491.432h-1.046c-1.592 0-3.113-.048-4.539-.431"/></svg>