<svg xmlns="http://www.w3.org/2000/svg" width="138" height="171" fill="none"><path fill="#FACC15" fill-opacity=".25" d="M110.279 28.973c.705.014 1.306-.015 1.829.356.524.37.895.932.967 1.587 5.149 34.934 8.585 70.542 10.168 105.83.029.76-.297 1.497-.907 1.942-15.865 12.344-26.286 18.297-37.06 20.525l.036.024c-11.173 2.311-22.667.602-41.04-2.109l-4.381-.658a2.35 2.35 0 0 1-1.9-1.617c-10.278-32.884-20.42-66.34-30.087-99.51a2.34 2.34 0 0 1-1.366-1.663 2.38 2.38 0 0 1 1.784-2.795A16348 16348 0 0 1 110.28 28.973m-1.469 5.09C76.7 40.864 44.4 47.83 12.632 54.75a5176 5176 0 0 0 29.407 97.287l2.933.448c34.971 5.183 43.562 6.437 73.562-16.744-1.58-33.885-4.823-68.096-9.724-101.676M32.508 67.97c12.368-3.483 25.092-5.859 37.424-8.122 8.426-1.55 17.157-3.165 25.623-5.138.735-.152 1.435-.01 1.977.452.574.456.872 1.128.889 1.827l-.029 12.676c.007 1.115-.851 2.058-1.916 2.31-14.867 2.82-29.772 6.38-44.36 10.545q.346.983.693 1.964c.8 2.324 1.613 4.709 2.771 6.607 8.293-1.268 16.747-3.144 24.957-4.969 5.797-1.294 11.777-2.627 17.674-3.75.642-.133 1.318.046 1.842.417.53.4.877 1 .942 1.624a1009 1009 0 0 0 4.403 36.269 2.33 2.33 0 0 1-1.314 2.442 120 120 0 0 0-23.06 14.597 2.65 2.65 0 0 1-.991.461l.024-.037a2.4 2.4 0 0 1-.925 0c-4.254-.812-8.351-1.018-11.963-1.197-11.585-.604-21.586-1.121-22.95-21.296a2.35 2.35 0 0 1 1.825-2.451l12.836-2.91c1.157-.271 2.276.359 2.694 1.454l3.087 7.978c9.334 1.453 16.746-.367 22.047-5.452-.753-4.567-1.2-9.199-1.42-13.813l-41.039 9.317c-1.206.185-2.388-.433-2.757-1.601l-11.133-35.93a2.15 2.15 0 0 1-.632-1.05 2.36 2.36 0 0 1 .66-2.37 2.07 2.07 0 0 1 1.147-.78c.33-.1.674-.14.974-.074m18.446-53.28c1.102-.228 2.53.498 2.795 1.784.26 1.255-.499 2.528-1.784 2.794l-6.309 1.43 3.437 12.47c.351 1.236-.4 2.54-1.636 2.892l-.153.032a2.353 2.353 0 0 1-2.74-1.668L41.07 21.735l-5.174 1.174-.03.006c-1.255.26-2.474-.541-2.765-1.79-.259-1.254.5-2.528 1.785-2.794zm-23.832 1.768c1.268-.198 2.475.7 2.674 1.968.909 5.94 2.29 11.846 4.141 17.559.412 1.222-.271 2.544-1.494 2.957l-.246.051-.025.037a2.31 2.31 0 0 1-2.688-1.582 112 112 0 0 1-1.864-6.383c-2.326.141-4.619.528-6.863 1.162l1.404 6.224c.26 1.254-.499 2.529-1.784 2.795l-.03.006c-1.256.26-2.475-.542-2.766-1.79l-3.837-17.015c-.26-1.255.5-2.528 1.785-2.794l.03-.006c1.256-.26 2.475.541 2.765 1.79l1.394 6.181a37 37 0 0 1 6.79-1.206 123 123 0 0 1-1.354-7.281c-.198-1.267.64-2.462 1.968-2.673m44.095-6.436c.423-.886 1.31-1.388 2.278-1.333.969.055 1.777.718 2.065 1.647a420 420 0 0 1 4.553 15.846c.32 1.242-.401 2.54-1.674 2.867-1.303.333-2.54-.4-2.867-1.673a528 528 0 0 0-2.617-9.416 79 79 0 0 0-2.06 6.714 2.32 2.32 0 0 1-1.693 1.69c-.875.245-1.736-.056-2.31-.671a101 101 0 0 0-5.239-5.268c.683 3.146 1.457 6.273 2.188 9.345.29 1.249-.468 2.522-1.71 2.843l-.031.006c-1.225.253-2.467-.51-2.751-1.729-1.291-5.317-2.627-10.85-3.618-16.262-.196-.949.27-1.939 1.093-2.428a2.36 2.36 0 0 1 2.656.185 96 96 0 0 1 8.023 7.15 70.5 70.5 0 0 1 3.714-9.513M82.3 7.28c1.223-.413 2.545.27 2.957 1.494l4.39 13.198c2.418-.5 4.798-1.184 7.16-1.96 1.223-.412 2.545.272 2.958 1.495s-.272 2.546-1.495 2.959c-2.692.875-5.47 1.641-8.255 2.217l-.037-.024-1.5.31c-1.133.234-2.296-.45-2.653-1.557l-5.021-15.175c-.412-1.223.272-2.545 1.495-2.958"/></svg>