<svg xmlns="http://www.w3.org/2000/svg" width="119" height="120" fill="none"><path fill="#FACC15" fill-opacity=".3" d="M2.213 15.778c32.49-5.59 65.498-10.89 98.123-15.74.401-.062.807.04 1.134.297.323.238.544.614.586 1.018 4.513 33.088 9.983 66.522 16.297 99.314a1.55 1.55 0 0 1-1.122 1.771 573 573 0 0 1-49.164 9.742l-.023-.017a570 570 0 0 1-50.723 5.469 1.504 1.504 0 0 1-1.59-1.274L.016 17.365a1.517 1.517 0 0 1 1.272-1.733c.392.022.656.002.924.146m97.02-12.516c-31.901 4.76-64.167 9.947-95.96 15.41L18.48 114.5l.02-.004a571.6 571.6 0 0 0 96.58-14.704 1873 1873 0 0 1-15.848-96.53M82.771 49.487c5.996-1.82 11.97.075 16.331 5.232.502.6.478 1.506-.093 2.065L94.435 61.3a1.53 1.53 0 0 1-.945 1.456c-2.218.914-3.936-.648-5.178-1.79-.55-.511-1.124-1.039-1.657-1.306-1.962.178-2.933.798-2.916 1.842.072 2.47 4.06 6.27 7.427 6.287a.46.46 0 0 1 .23.026c7.206 1.112 12.204 4.674 14.074 10.028 1.762 5.062.339 11.146-3.669 15.492-2.724 2.96-6.237 4.79-10.124 5.385l.003.02c-2.625.403-5.44.239-8.324-.51-6.224-2.061-9.637-3.713-10.087-6.638-.376-2.445 1.499-4.926 6.262-8.362a1.505 1.505 0 0 1 2 .206c4.108 4.437 8.075 4.752 10.394 3.556 1.653-.848 2.513-2.456 2.2-4.09-.572-2.784-4.614-6-14.324-6.728a1.4 1.4 0 0 1-.645-.189c-7.754-4.412-8.344-10.248-7.999-13.337.638-5.86 5.425-11.27 11.615-13.161m-29.626 5.275c.267 0 .544.06.768.19l7.226-1.29c.44-.067.847.034 1.17.271.324.238.55.635.594 1.059.29 2.683 1.143 6.367 2.048 10.248 3.199 13.867 7.593 32.842-5.337 37.591a19 19 0 0 1-2.34.522l.007.04c-6.473.991-13.977-1.388-16.992-7.653a1.51 1.51 0 0 1 .488-1.9 28 28 0 0 0 5.17-4.791c.346-.422.891-.608 1.437-.528.529.104.974.466 1.157.992.55 1.577 2.266 2.73 3.943 2.698 1.244-.314 2.169-.968 2.809-2.009 2.78-4.466.358-14.74-1.608-22.991-1.05-4.433-1.965-8.252-2.022-10.889a1.526 1.526 0 0 1 1.482-1.56"/></svg>