<svg xmlns="http://www.w3.org/2000/svg" width="156" height="162" fill="none"><path fill="#FACC15" fill-opacity=".3" d="M26.981 17.64c.525-.43 1.264-.528 1.868-.193L53.6 30.487c.576.183 1.067.674 1.186 1.303 1.959 10.211 4.03 19.854 6.027 29.188 1.882 8.801 3.827 17.876 5.684 27.438 7.132-5.502 14.06-11.192 20.26-17.197q.137-.127.292-.222l-4.125-28.71c-.092-.558.136-1.122.553-1.512a263 263 0 0 1 24.143-19.163 1.69 1.69 0 0 1 1.595-.195l27.546 10.779c.237.09.443.233.611.408.155.103.297.23.414.386.376.506.421 1.148.191 1.684.631 4.846 1.281 8.936 1.79 12.278 3.045 19.582 2.735 20.205-16.557 33.508q-2.088 1.436-4.501 3.115c1.253 5.718 2.356 11.458 3.529 17.518.7 3.686 1.425 7.391 2.184 11.159a1.72 1.72 0 0 1-.598 1.656c-5.295 4.286-12.153 10.202-18.791 15.923-20.492 17.691-26.833 22.721-29.687 23.192l.04-.029a2.6 2.6 0 0 1-.916-.01c-8.55-2.117-15.58-3.637-21.798-4.948-33.957-7.294-34.079-8.167-40.29-53.333-1.896-13.725-4.236-30.835-8.223-53.628l-.04-.245s-.006-.182.005-.252c.049-.398.216-.77.514-1.047 2.479-2.333 5.136-5.107 7.977-8.026 4.656-4.821 9.492-9.81 14.366-13.865m88.826 68.484c-.543.456-1.15.945-1.793 1.486-23.464 19.644-36.16 29.346-42.304 32.116.618 4.149 1.286 8.201 1.932 12.257a739 739 0 0 1 2.628 17.011c4.566-2.776 17.103-13.599 26.568-21.778 6.315-5.461 12.853-11.096 18.084-15.348-.681-3.437-1.352-6.808-1.999-10.182-1.046-5.37-2.029-10.498-3.116-15.562M7.972 43.217c3.707 21.51 5.959 37.81 7.767 51q6.013 43.688 37.641 50.474c5.638 1.203 11.95 2.565 19.478 4.393-.811-5.688-1.7-11.204-2.56-16.55a798 798 0 0 1-1.89-11.966 2 2 0 0 1-.276-.043c-.88-.198-1.994-.426-3.271-.674-11.514-2.315-22.939-5.057-25.41-10.604-.041-.107-.078-.193-.096-.305-3.975-17.16-7.134-37.983-10.007-57.914-7.163-2.735-14.47-5.514-21.38-7.833zm80.423 31.121c-10.507 10.045-22.862 19.16-34.83 27.98a1390 1390 0 0 0-9.689 7.209c4.17 3.499 15.732 5.83 21.677 7.027 1.304.266 2.441.49 3.344.685 2.917.045 17.389-10.814 42.951-32.204l1.495-1.252a157.3 157.3 0 0 0-24.948-9.445M52.1 35.744a82.1 82.1 0 0 1-19.363 15c2.76 19.16 5.775 39.096 9.53 55.757a925 925 0 0 1 9.314-6.903c3.953-2.92 7.95-5.874 11.909-8.88-1.95-10.153-4.01-19.745-5.997-29.032-1.783-8.34-3.624-16.927-5.393-25.942M90.483 71.04a1.6 1.6 0 0 1 .015.373 159 159 0 0 1 24.881 9.575l-4.174-25.967a263 263 0 0 1-24.527-10.576zm44.415-33.757a187 187 0 0 0-20.154 17.94q-.03.032-.063.062l3.906 24.297c.944-.653 1.846-1.274 2.704-1.875q17.911-12.364 15.13-30.203a515 515 0 0 1-1.523-10.22m-26.064-12.345a259 259 0 0 0-20.812 16.378 261 261 0 0 0 25.059 10.77 187 187 0 0 1 19.994-17.674zM28.279 20.93c-4.436 3.8-8.895 8.429-13.22 12.898-2.086 2.17-4.099 4.238-6.022 6.154 7.071 2.359 14.494 5.185 21.724 7.95A78.8 78.8 0 0 0 50.38 32.585z"/></svg>