<svg width="246" height="64" viewBox="0 0 246 64" fill="none" xmlns="http://www.w3.org/2000/svg">
<path d="M21.0888 5.26581C21.2281 6.35972 21.3083 8.00569 21.1754 8.99878C20.9621 10.3759 20.6833 11.6488 20.1796 12.785C19.7564 13.7373 19.2095 14.7372 18.4521 15.7125C17.3122 17.1474 14.5143 19.6117 11.7677 20.0372C10.1145 20.2936 9.11801 19.1895 8.7571 18.1873C8.47186 17.3736 8.31948 15.5668 9.92339 14.5174C11.24 13.6557 14.078 11.0994 14.7478 8.62193C14.8574 8.2617 14.8252 8.00946 14.6985 7.82897C14.5392 7.59637 14.216 7.50348 13.7003 7.52613C12.745 7.55974 11.6663 7.6413 10.4963 7.82255C9.32655 8.0038 8.04007 8.28889 6.70633 8.61023L6.57929 8.62986C6.29953 8.67329 5.89993 8.79223 5.64551 8.83188C3.58549 9.15133 2.79724 7.44306 2.67807 7.11832C2.22265 5.98778 2.40756 4.38599 3.83341 3.36458C6.11052 1.69596 10.8014 0.854658 12.1745 0.641691C14.4379 0.290898 16.9554 0.100965 18.7216 1.3429C19.2804 1.65669 19.7369 2.18646 20.1495 2.78043C20.6022 3.48239 20.9741 4.56875 21.0888 5.26581Z" fill="#59671E"/>
<path d="M38.6357 12.1203C38.6357 13.4936 38.4108 15.3985 37.2663 16.9711C35.9583 18.8096 33.8124 19.6956 30.8081 19.6956C25.903 19.6956 22.9805 16.8825 22.9805 12.1203C22.9805 10.7913 23.2053 8.88634 24.3498 7.26938C25.6578 5.47523 27.8446 4.54492 30.8081 4.54492C33.2606 4.54492 34.9978 5.09867 36.3262 6.18403C37.8795 7.46874 38.6357 9.50655 38.6357 12.1203ZM30.8898 9.6173H30.6241C28.8256 9.6173 28.0286 10.3704 28.0081 12.0538C27.9264 13.7594 28.7643 14.5346 30.7468 14.6232H30.9511C32.7496 14.6232 33.5876 13.8701 33.6285 12.231C33.6489 11.19 33.4445 9.7502 30.8898 9.6173Z" fill="#59671E"/>
<path d="M43.491 11.461C42.7323 11.3959 42.0763 11.0489 41.6867 10.7886C40.9281 10.2897 40.3745 9.55221 40.1695 8.79303C39.903 8.03384 40.026 7.18789 40.4155 6.53717C40.8871 5.77798 41.7277 5.30078 42.5888 5.30078H42.7734C43.5525 5.38755 44.2085 5.7346 44.6186 5.99489C46.1973 7.07944 46.7099 8.8581 45.8693 10.2463C45.3977 11.0055 44.5776 11.461 43.6755 11.461H43.491ZM54.952 9.4875C54.8085 10.4853 54.4805 11.5481 53.9064 12.7628C53.2503 14.0643 52.3072 15.3441 51.159 16.472C49.7443 17.8602 47.9811 19.0098 46.2998 19.5738C45.6232 19.8558 44.8236 20.0727 44.024 20.0727C43.86 20.0727 43.7165 20.0727 43.532 20.0293C42.3633 19.8775 41.7892 18.9665 41.6457 18.2507C41.6047 17.8602 41.5022 16.6021 42.8349 15.7996C43.1629 15.6044 43.4499 15.4959 43.737 15.3441C44.0035 15.2139 44.2496 15.1055 44.4751 14.997C45.1107 14.6066 46.5254 13.8908 47.7145 12.5893C49.1702 11.0493 50.4619 8.68494 50.9335 7.73054C51.5076 6.60261 52.5327 6.45077 52.9222 6.45077C53.0658 6.45077 53.2503 6.49415 53.3528 6.53753C54.583 6.88459 55.1366 7.90406 54.952 9.4875Z" fill="#59671E"/>
<path d="M58.3291 16.138C58.1092 14.6163 57.8753 12.6169 57.7037 10.4791C57.5362 8.39378 57.4479 6.38081 57.4219 4.8406C57.4309 4.04192 57.475 3.37269 57.5094 2.89046C57.7527 0.446721 59.1873 0.0708486 59.8173 0.0106637C60.4229 -0.0468716 61.9445 0.0473803 62.5491 2.41011C62.6842 2.87607 62.8097 3.52902 62.9219 4.31635C63.0192 4.91895 63.1186 5.54768 63.1999 6.25816C63.2106 6.39027 63.3159 6.48641 63.4372 6.47506C64.0935 6.4391 64.7763 6.42736 65.4104 6.42017C66.7537 6.42509 68.0043 6.49209 68.9685 6.63971C69.5362 6.71845 70.0095 6.83314 70.3594 6.93269C72.2159 7.55384 72.3431 9.13758 72.3813 9.61262C72.3594 10.2531 72.1474 11.869 70.0428 12.4156C69.5647 12.5409 68.9389 12.6537 68.212 12.7229C67.3882 12.8013 66.4633 12.8365 65.4636 12.852C64.9504 12.8478 64.4573 12.7884 63.9928 12.7793C63.8715 12.7907 63.7346 12.9103 63.7454 13.0424C63.7975 13.9951 63.819 14.8707 63.8298 15.6145C63.8451 16.4109 63.8253 17.0778 63.7666 17.5623C63.5477 20.0038 62.0644 20.3842 61.4587 20.4421C60.8288 20.5023 59.3559 20.4031 58.727 18.0427C58.6161 17.5744 58.4664 16.9238 58.3298 16.1387L58.3291 16.138Z" fill="#59671E"/>
<path d="M79.728 19.9545C78.1679 19.7145 76.7249 19.399 75.6164 19.1578C75.0377 18.9749 74.559 18.8543 74.2094 18.7299C72.2867 17.964 72.3379 16.3961 72.4 15.9119C72.4563 15.4735 72.8025 13.951 74.8437 13.7943C75.2111 13.7801 75.7077 13.7624 76.3011 13.8304C76.7287 13.8492 77.2197 13.8774 77.7256 13.9555C77.8581 13.9288 77.9302 13.8695 77.945 13.7541C77.968 13.2403 78.0302 12.7561 78.0985 12.2256C78.1665 11.6952 78.2348 11.1648 78.3392 10.687C78.354 10.5717 78.3025 10.4699 78.1761 10.4504C77.8839 10.382 77.6308 10.3429 77.4048 10.261C76.9107 10.0909 76.4921 10.003 76.1723 9.81288C74.786 9.22349 74.4041 8.01242 74.5199 7.11275C74.6383 6.19016 75.3138 5.11807 76.7949 4.96932C77.1469 4.90583 77.5748 4.92461 78.0896 4.93325C79.0714 4.98998 80.3032 5.10906 81.6102 5.31003C82.9594 5.51738 84.1737 5.7747 85.1315 6.01586C85.6288 6.16274 86.0443 6.27393 86.3671 6.44109C87.7534 7.03048 88.1322 8.26485 88.0137 9.18743C87.898 10.0871 87.2259 11.1359 85.7448 11.2847C85.3897 11.3711 84.965 11.3294 84.4471 11.344C84.2091 11.3545 83.9564 11.3155 83.6579 11.2933C83.5316 11.2738 83.4564 11.3564 83.4416 11.4717C83.4217 11.9627 83.3533 12.4931 83.2853 13.0235C83.217 13.5539 83.1549 14.0381 83.0477 14.5392C83.0329 14.6546 83.0872 14.7335 83.2077 14.7992C83.7139 14.8769 84.1926 14.9975 84.6085 15.1087C85.1957 15.2225 85.6689 15.3893 86.0185 15.5137C87.9413 16.2796 87.8901 17.8475 87.8338 18.2859C87.7716 18.7701 87.4255 20.2926 85.3843 20.4493C85.0168 20.4635 84.5261 20.435 83.9237 20.4365C82.7974 20.3339 81.3307 20.2025 79.7283 19.956L79.728 19.9545Z" fill="#59671E"/>
<path d="M92.9738 10.0425C92.1976 9.97238 91.5263 9.59862 91.1276 9.3183C90.3514 8.78102 89.7849 7.98678 89.5751 7.16918C89.3024 6.35157 89.4283 5.44053 89.8269 4.73973C90.3094 3.92212 91.1696 3.4082 92.0507 3.4082H92.2396C93.0368 3.50164 93.7081 3.8754 94.1277 4.15573C95.7432 5.32373 96.2676 7.23926 95.4075 8.7343C94.925 9.5519 94.0858 10.0425 93.1627 10.0425H92.9738ZM104.701 7.9167C104.555 8.99126 104.219 10.1359 103.631 11.4441C102.96 12.8457 101.995 14.2239 100.82 15.4386C99.3726 16.9337 97.5684 18.1718 95.8481 18.7791C95.1557 19.0828 94.3375 19.3164 93.5193 19.3164C93.3515 19.3164 93.2046 19.3164 93.0158 19.2697C91.82 19.1062 91.2325 18.125 91.0857 17.3542C91.0437 16.9337 90.9388 15.5788 92.3025 14.7145C92.6382 14.5042 92.9319 14.3874 93.2256 14.2239C93.4983 14.0838 93.7501 13.967 93.9809 13.8502C94.6312 13.4297 96.0788 12.6588 97.2956 11.2572C98.7852 9.59862 100.107 7.05238 100.589 6.02453C101.177 4.80981 102.226 4.64629 102.624 4.64629C102.771 4.64629 102.96 4.69301 103.065 4.73973C104.324 5.11349 104.89 6.21141 104.701 7.9167Z" fill="#59671E"/>
<path d="M108.305 18.103C108.01 16.5614 107.677 14.5328 107.4 12.3588C107.13 10.2382 106.944 8.18734 106.843 6.61529C106.813 5.79877 106.825 5.11251 106.836 4.61823C106.963 2.1077 108.391 1.63977 109.023 1.54189C109.631 1.44741 111.169 1.45531 111.893 3.83371C112.052 4.30164 112.21 4.96155 112.361 5.75925C112.488 6.36909 112.619 7.00567 112.735 7.72657C112.752 7.86058 112.863 7.95319 112.985 7.93399C113.596 7.86661 114.332 7.80713 114.971 7.76271C116.325 7.6893 117.589 7.68478 118.568 7.77927C119.144 7.8267 119.627 7.91592 119.984 7.99761C121.886 8.52351 122.09 10.134 122.128 10.6211C122.161 11.2727 122.026 12.9362 119.931 13.6169C119.406 13.7802 118.829 13.9244 118.1 14.0377C117.784 14.0867 117.541 14.1243 117.242 14.116C116.683 14.2026 116.069 14.2433 115.506 14.3035C114.94 14.3366 114.409 14.2549 113.85 14.3415C113.728 14.3603 113.596 14.4902 113.613 14.6246C113.712 15.5947 113.776 16.488 113.823 17.247C113.877 18.0597 113.89 18.7422 113.854 19.2402C113.751 21.747 112.275 22.2225 111.667 22.3166C111.035 22.4148 109.546 22.3994 108.797 20.0248C108.663 19.5531 108.48 18.8969 108.305 18.103H108.305Z" fill="#59671E"/>
<path d="M145.262 13.5038C144.802 15.0868 144.243 16.6323 143.488 18.0469C142.732 19.4897 141.991 20.4283 141.542 20.9186C140.558 22.0027 139.704 22.4258 138.762 22.3358C138.075 22.2701 137.511 21.9633 137.065 21.4437C136.48 20.7426 136.093 19.4991 136.745 18.0747C136.813 17.8567 136.905 17.6692 137.023 17.4842L137.032 17.3728C137.153 17.132 137.25 16.8889 137.369 16.6758C137.741 15.8697 138.178 14.9015 138.561 13.9565C138.898 13.2596 139.319 11.8408 139.488 11.0155C139.499 10.8764 139.408 10.7274 139.281 10.7151C138.98 10.6303 138.349 10.5136 137.866 10.4675L137.815 10.4626C137.713 10.4528 137.632 10.5012 137.573 10.6078C137.5 10.8812 137.429 11.1269 137.332 11.3704C136.7 13.1894 135.792 14.9262 134.864 16.2681C133.265 18.6396 132.121 18.8388 131.282 18.7586C130.722 18.7049 130.204 18.4588 129.8 18.0556C129.373 17.6219 128.417 16.4361 129.163 14.4877C129.291 14.1632 129.449 13.7859 129.663 13.3575C129.725 13.2232 129.789 13.0611 129.83 12.8687C130.228 12.0651 130.604 11.2035 130.953 10.3673C130.962 10.2559 130.967 10.2004 130.922 10.1118C130.876 10.0515 130.829 9.99068 130.753 9.98355C130.346 9.94454 130.041 9.91528 130.041 9.91528C128.336 9.7521 127.505 8.60645 127.388 7.50133C127.2 6.33318 127.725 4.89643 129.207 4.30898C129.549 4.20132 129.868 4.06365 130.337 3.96837C131.013 3.8367 131.975 3.67652 133.029 3.63713C133.11 3.58874 133.165 3.53809 133.223 3.45932C133.264 3.26688 133.33 3.07669 133.394 2.91463C134.155 0.771147 135.697 0.722379 136.155 0.766269C136.715 0.819913 137.504 1.20404 137.992 1.83989C138.203 2.08447 138.523 2.56426 138.626 3.52759C138.67 3.61612 138.763 3.73691 138.839 3.74442C139.196 3.77855 139.552 3.81269 139.878 3.90009C140.41 3.97924 140.889 4.0809 141.338 4.23621C143.02 4.67773 144.313 5.50302 144.989 6.66179C145.191 7.01779 145.34 7.39667 145.445 7.68739C145.674 8.35437 145.71 8.86304 145.785 9.20666C145.784 9.54315 145.804 9.93779 145.77 10.3553C145.721 11.6131 145.456 12.6819 145.262 13.5049L145.262 13.5038Z" fill="#59671E"/>
<path d="M162.789 11.1567C162.628 12.1928 162.281 13.2932 161.684 14.5469C161.004 15.8895 160.035 17.2038 158.864 18.3563C157.42 19.7745 155.63 20.9379 153.932 21.4928C153.248 21.7733 152.442 21.9838 151.639 21.9687C151.474 21.9657 151.33 21.9627 151.145 21.9141C149.974 21.7338 149.412 20.7737 149.28 20.0256C149.246 19.6183 149.164 18.3062 150.515 17.4964C150.848 17.2995 151.138 17.1918 151.429 17.0393C151.699 16.909 151.947 16.8006 152.176 16.6922C152.821 16.298 154.253 15.5797 155.469 14.2473C156.956 12.6716 158.292 10.2346 158.782 9.24973C159.377 8.08637 160.409 7.94783 160.8 7.95536C160.945 7.95799 161.129 8.00693 161.231 8.054C162.461 8.43915 163 9.51139 162.789 11.1563V11.1567Z" fill="#59671E"/>
<path d="M178.827 10.0115C178.73 10.8865 178.482 12.1735 178.193 12.9087C177.77 13.9215 177.315 14.8393 176.713 15.6001C176.207 16.2378 175.596 16.8837 174.828 17.463C173.678 18.3093 171.052 19.5715 168.85 19.2743C167.524 19.0954 166.961 18.0174 166.87 17.1628C166.803 16.4706 167.024 15.0435 168.461 14.5998C169.64 14.2352 172.314 12.9117 173.296 11.1543C173.449 10.9015 173.471 10.6997 173.407 10.5317C173.328 10.3159 173.096 10.1709 172.693 10.071C171.948 9.87933 171.099 9.69628 170.161 9.56973C169.223 9.44318 168.175 9.36973 167.084 9.31361L166.982 9.29968C166.758 9.26955 166.427 9.2703 166.223 9.24281C164.571 9.01983 164.282 7.52343 164.251 7.24623C164.111 6.2711 164.555 5.07865 165.849 4.61576C167.922 3.84816 171.705 4.26812 172.807 4.41689C174.622 4.66209 176.603 5.08882 177.735 6.4485C178.108 6.81761 178.361 7.32984 178.568 7.88162C178.786 8.52568 178.87 9.4477 178.828 10.0112L178.827 10.0115Z" fill="#59671E"/>
<path d="M186.75 13.4043C186.959 13.2156 187.167 13.027 187.357 12.7964C187.433 12.6916 187.395 12.503 187.224 12.503C186.75 12.4611 186.257 12.4611 185.784 12.4611C185.025 12.4611 184.286 12.503 183.509 12.5449C182.713 12.6288 181.481 12.8803 180.912 12.0628C180.609 11.6227 180.477 10.952 180.666 10.428C181.083 9.21233 182.486 8.9189 183.452 8.73026C184.552 8.47875 185.727 8.33203 186.826 8.33203C188.058 8.33203 189.366 8.43683 190.408 9.21234C191.337 9.88304 191.849 11.0987 191.678 12.3144C191.508 13.5719 190.768 14.6199 189.934 15.3535C189.271 15.9404 188.702 16.2757 188.323 16.4224C188.001 16.5272 187.698 16.6111 187.433 16.6111H187.357C187.262 16.6111 187.186 16.6949 187.186 16.7997C187.186 16.9045 187.186 17.0093 187.167 17.1351C187.129 17.7639 186.959 19.3568 186.163 20.0904C185.897 20.3 185.461 20.4886 184.988 20.4467C184.381 20.4257 183.623 20.0065 183.452 18.5603C183.376 18.0573 183.376 17.4285 183.414 16.7578C183.509 15.9404 183.718 13.4252 185.48 13.4252C185.765 13.4252 186.049 13.5091 186.295 13.6558C186.352 13.7186 186.466 13.6977 186.485 13.6558C186.599 13.551 186.655 13.4671 186.75 13.4043Z" fill="#59671E"/>
<path d="M193.875 6.06706C193.91 5.37236 193.932 4.80233 193.988 4.37725C194.286 2.17599 195.686 1.89398 196.138 1.89999C196.564 1.85944 198.019 1.99162 198.509 4.16696C198.605 4.52821 198.695 5.08735 198.799 5.81809C198.956 7.2105 199.031 8.70954 199.173 10.4981C199.242 11.3558 199.239 12.4425 199.593 12.9269C199.971 13.4095 200.64 13.3205 201.09 13.0062C202.235 12.0817 203.194 11.1012 203.771 10.4039C204.327 9.73357 204.791 9.04713 205.499 8.58412C206.727 7.84925 208.364 8.55709 208.691 10.1057C208.767 10.4936 209.002 11.4587 207.668 13.6851C207.131 14.6006 205.887 16.2506 203.978 17.791C201.49 19.7079 198.039 20.3099 196.354 18.9896C193.417 16.7027 193.751 9.31299 193.875 6.06668V6.06706Z" fill="#59671E"/>
<path d="M213.978 11.348C213.258 11.2372 212.649 10.8406 212.29 10.5494C211.591 9.99027 211.098 9.1959 210.938 8.39925C210.72 7.59918 210.877 6.73135 211.279 6.08124C211.765 5.32341 212.588 4.87808 213.409 4.92756C213.468 4.93099 213.545 4.93593 213.585 4.93822C214.323 5.07258 214.932 5.46919 215.31 5.76151C216.764 6.97343 217.168 8.84154 216.302 10.2285C215.817 10.9864 215.013 11.4104 214.154 11.3586C214.115 11.3563 214.037 11.3514 213.978 11.348Z" fill="#59671E"/>
<path d="M235.468 11.4104C236.2 10.773 236.556 10.024 236.586 9.55508C236.593 9.44486 236.5 9.29915 236.373 9.28944C236.144 9.27225 235.885 9.30812 235.605 9.28682C234.255 9.18445 232.682 8.95468 231.744 8.80076C231.137 8.69914 230.634 8.55044 230.232 8.43686C228.18 7.69973 228.112 5.97589 228.148 5.42444C228.178 4.95556 228.47 3.20408 230.593 2.83794C231.01 2.73072 231.523 2.71428 232.142 2.65039C233.294 2.6545 234.779 2.65599 236.333 2.77368C237.913 2.89324 239.383 3.11553 240.524 3.28478C241.18 3.44543 241.66 3.53697 242.059 3.70584C243.155 4.17696 244.43 5.43752 244.219 7.52787C244.111 8.4066 243.875 9.27562 243.536 10.1644C243.158 11.2722 242.602 12.3385 241.896 13.3659C241.696 13.6835 241.444 14.0246 241.193 14.338C241.108 14.4703 241.173 14.6414 241.27 14.7318C242.015 15.4809 242.733 16.2561 243.249 16.988C244.843 19.2704 244.131 20.7686 243.548 21.4729C242.998 22.0688 242.26 22.4009 241.444 22.3389C241.036 22.3079 239.864 22.2193 237.175 19.4658C237.005 19.3145 236.814 19.106 236.646 18.9271C236.575 18.8385 236.448 18.8288 236.391 18.9077C235.108 19.7528 234.051 20.2549 233.393 20.5377C232.604 20.8661 231.081 21.4437 229.986 21.3608C228.686 21.2625 227.904 20.2885 227.63 19.381C227.385 18.4201 227.603 17.0232 228.99 16.1583C229.257 15.9845 229.499 15.8089 229.818 15.6389C231.476 14.545 233.557 13.2336 235.468 11.4104H235.468Z" fill="#59671E"/>
<path d="M21.1549 56.6674C20.3528 56.7487 18.8189 56.9039 11.9707 51.8103C11.6787 51.6867 11.3167 51.5698 11.3599 52.0636C11.7892 56.9646 9.57458 58.1855 7.93594 58.3518C7.06445 58.4402 4.87254 58.3175 3.97039 54.8441C3.77125 54.1742 3.54515 53.2009 3.41025 52.0643C3.00127 49.8059 2.70036 46.7699 2.42402 43.6165C2.14768 40.4631 1.91663 37.4199 1.92599 35.1195C1.86101 33.9762 1.91386 32.9742 1.99375 32.2761C2.27708 28.6828 4.40869 28.1218 5.28065 28.0334C6.18711 27.9416 8.37902 28.0643 9.31606 31.5339C9.44582 32.2109 9.62662 33.0739 9.78964 34.1305C9.88243 34.3894 10.15 34.6309 10.3706 34.3401C13.7603 30.4705 17.6303 28.4685 18.6765 28.3623C19.827 28.2457 20.9196 28.6716 21.637 29.6338C22.1052 30.1612 23.404 32.1381 21.706 34.8399C20.7518 36.3933 17.6638 39.6958 14.8648 42.2792C14.6687 42.4525 14.6988 42.7941 14.9179 42.8873C17.2843 44.6024 21.6431 48.1852 23.1594 49.8331C25.2999 52.1845 24.1296 54.4879 23.7232 55.0657C23.1374 56.0066 22.2011 56.5612 21.1549 56.6674Z" fill="#A73D2A"/>
<path d="M26.3825 51.0073C26.5182 50.3852 26.7447 49.6407 27.0637 48.7117C27.7007 46.885 28.6438 44.5053 29.6766 42.0351C30.7358 39.6286 31.7605 37.4094 32.6542 35.6554C33.8563 33.2861 34.8628 31.5995 36.6463 31.6701C38.4874 31.7428 39.4334 33.6008 40.4777 35.9649C41.168 37.7183 42.0689 40.0772 42.9367 42.5594C43.8314 45.106 44.6138 47.5537 45.1563 49.4274C45.3837 50.3779 45.6178 51.1406 45.6831 51.7711C46.2218 54.6172 44.6915 55.5927 44.0209 55.8489C43.7268 56.0256 43.321 56.1035 42.9473 56.0889C41.0203 56.0126 40.2197 54.0976 39.2329 51.7361C39.1797 51.6085 39.0501 51.1636 38.8491 51.1558C38.2433 51.1945 37.1788 51.1526 36.0568 51.1082C34.9347 51.0638 33.698 51.0151 33.2687 50.9352C33.096 50.9284 32.8801 51.3591 32.8182 51.4825C31.6478 53.7588 30.7224 55.6058 28.7666 55.5284C28.4217 55.5148 28.0792 55.4072 27.7118 55.2043C27.0593 54.8959 25.6269 53.8037 26.3825 51.0083V51.0073ZM35.0009 44.7567C35.3429 44.8644 36.9845 44.8665 37.4172 44.8524C37.6206 44.7975 37.6834 44.6433 37.634 44.3903C37.5103 43.7891 37.0167 42.1684 36.6382 41.4318C36.5293 41.2388 36.2717 41.1975 36.1781 41.4135C35.6313 42.2708 35.0676 43.6296 34.8441 44.28C34.8071 44.5299 34.8882 44.6898 35.0009 44.7567Z" fill="#A73D2A"/>
<path d="M55.4118 44.4815C55.0923 44.1025 54.8044 43.7522 54.4615 43.4385C54.3631 43.2906 54.1674 43.3721 54.1847 43.5906C54.3478 45.6217 54.3809 47.4766 54.413 48.9535C54.436 49.9588 54.3789 50.6886 54.343 51.3217C54.0427 54.0586 52.4021 54.4983 51.7425 54.561C51.0258 54.6295 49.3401 54.5066 48.6656 51.8628C48.5006 51.2491 48.3519 50.4759 48.1619 49.5495C47.9355 47.808 47.6251 45.3812 47.427 42.9126C47.2212 40.3504 47.1454 37.9643 47.0859 36.144C47.1253 35.1956 47.1488 34.4062 47.2207 33.864C47.3483 32.2146 48.1792 30.687 49.8136 30.5312C50.9893 30.4193 51.9353 30.3289 60.1134 39.3419C60.4564 39.6556 60.7447 40.0058 61.0637 40.3849C61.186 40.4675 61.3817 40.3859 61.3693 40.2296C61.2061 38.1985 61.1366 36.2527 61.1361 34.8045C61.1184 33.8614 61.1414 33.072 61.2133 32.5299C61.4777 29.7021 63.1466 29.2598 63.8062 29.197C64.4945 29.1317 66.1515 29.2566 66.8907 31.9888C67.0193 32.5116 67.1967 33.2822 67.3008 34.2169C67.6184 36.0127 67.8952 38.3794 68.1005 40.9422C68.2986 43.4108 68.4085 45.8564 68.3768 47.6224C68.4286 48.6252 68.3715 49.355 68.3356 49.9881C68.2003 51.5439 67.2888 53.1421 65.6828 53.2953C64.5646 53.402 63.5898 53.495 55.4118 44.482V44.4815Z" fill="#A73D2A"/>
<path d="M73.0214 53.9177C72.5254 53.2423 72.2155 52.4654 71.9987 51.7565C71.72 50.5745 71.8749 49.4264 72.4323 48.6155C72.9591 47.8387 73.858 47.3995 74.7877 47.3995C75.8104 47.3995 76.3683 48.0075 77.0807 48.7164C77.7317 49.3919 78.3822 50.1013 79.6529 50.3376C79.9009 50.4051 80.2415 50.4391 80.5207 50.4391C81.5434 50.4391 82.2563 49.9664 82.2563 49.257C82.2563 48.3113 81.1717 47.8387 79.746 47.2307C78.7232 46.8255 77.6079 46.3524 76.6471 45.6434C74.1367 43.6511 72.9284 41.4558 72.9284 39.1932C72.9284 33.8235 77.0188 30.9863 81.0786 30.9863C84.1156 30.9863 86.9665 32.3372 88.2373 34.3636C89.3838 36.2211 88.764 37.8083 87.9586 38.5852C87.5249 39.0243 86.8428 39.2606 86.2542 39.2606C85.4483 39.2606 84.7666 38.8889 84.178 38.5512C83.4651 38.1795 82.7523 37.7069 81.6677 37.7069C80.738 37.7069 79.9014 38.3149 79.9014 38.9564C79.9014 39.9021 81.2959 40.5776 82.9072 41.2865C83.8988 41.7591 84.9527 42.2322 85.82 42.8402C88.1754 44.4949 89.26 46.758 89.26 49.6622C89.26 53.2423 87.0289 57.4639 80.6142 57.4639C77.2985 57.4639 74.7263 56.2818 73.0219 53.9177H73.0214Z" fill="#A73D2A"/>
<path d="M91.6026 52.366C91.7562 51.7486 92.0037 51.0119 92.3486 50.0939C93.037 48.2897 94.0472 45.9429 95.1491 43.5082C96.276 41.1384 97.363 38.9547 98.3056 37.2315C99.5744 34.9035 100.628 33.252 102.409 33.3822C104.246 33.5171 105.14 35.4059 106.117 37.804C106.757 39.5799 107.591 41.9676 108.388 44.478C109.209 47.0533 109.923 49.5261 110.412 51.4171C110.612 52.3749 110.824 53.1449 110.872 53.777C111.33 56.6398 109.773 57.5636 109.095 57.7968C108.796 57.9636 108.388 58.0279 108.015 58.0007C106.091 57.8595 105.345 55.9189 104.425 53.525C104.375 53.3954 104.259 52.9468 104.058 52.9322C103.451 52.9505 102.388 52.8726 101.268 52.7905C100.148 52.7084 98.9134 52.618 98.4865 52.5239C98.3142 52.5113 98.0859 52.9348 98.0211 53.0555C96.7869 55.2915 95.8097 57.1062 93.8568 56.9629C93.5124 56.9378 93.1732 56.8186 92.8115 56.6032C92.1682 56.2734 90.7675 55.1331 91.6017 52.3649L91.6026 52.366ZM100.394 46.4082C100.732 46.5274 102.374 46.5849 102.806 46.5849C103.011 46.5368 103.078 46.3847 103.036 46.1301C102.929 45.5247 102.482 43.8888 102.124 43.1397C102.021 42.9436 101.764 42.8934 101.665 43.1062C101.094 43.9448 100.492 45.2837 100.25 45.9262C100.206 46.1745 100.282 46.3371 100.393 46.4082H100.394Z" fill="#A73D2A"/>
<path d="M121.234 35.0999C121.39 37.1049 121.453 39.6535 121.453 42.372C121.453 45.0906 121.39 47.6392 121.234 49.6441C121.172 50.6636 121.047 51.5131 120.954 52.0908C120.455 55.1152 118.584 55.455 117.804 55.455C117.025 55.455 115.216 55.1152 114.655 52.0908C114.562 51.5131 114.499 50.6636 114.375 49.6441C114.281 47.6392 114.156 45.0906 114.156 42.372C114.156 39.6535 114.281 37.1049 114.375 35.0999C114.499 34.0805 114.562 33.2309 114.655 32.6533C115.216 29.6289 117.025 29.2891 117.804 29.2891C118.584 29.2891 120.455 29.6289 120.954 32.6533C121.047 33.2309 121.172 34.0805 121.234 35.0999Z" fill="#A73D2A"/>
<path d="M223.846 10.3922C223.789 10.7627 223.769 10.9534 223.766 10.988C223.763 11.0259 223.798 11.1485 223.8 11.1839C223.802 11.2193 223.809 11.252 223.849 11.2734C223.957 11.3043 224.299 11.4084 224.493 11.2832C224.638 11.1903 224.798 11.0553 225.235 11.0541C225.58 11.0534 226.224 11.0808 226.594 11.0681C227.059 11.0519 227.279 11.0132 227.424 10.8924C227.478 10.8469 227.487 10.8037 227.473 10.7574C227.443 10.657 227.251 10.5694 227.196 10.3625C227.185 10.3219 227.194 10.2737 227.249 10.2576C227.39 10.217 227.649 10.2245 228.07 9.98866C228.171 9.93187 228.261 9.84875 228.199 9.77918C228.024 9.58323 227.217 10.0221 226.994 9.14019C226.962 9.0157 227.136 8.84044 227.039 8.8017C226.807 8.70918 226.349 8.91114 226.436 8.77048C226.479 8.70128 226.55 8.54332 226.644 8.432C226.737 8.32105 226.862 8.19242 226.835 7.9773C226.818 7.83212 226.764 7.67604 226.647 7.60647C226.588 7.57149 226.512 7.53764 226.427 7.54629C226.352 7.55381 226.16 7.58465 225.848 7.76067C225.442 7.98971 225.162 8.15293 225.061 8.25937C224.804 8.52715 224.378 8.91904 224.203 9.30868C224.079 9.58474 223.911 9.96911 223.846 10.3918L223.846 10.3922Z" fill="#ED6222"/>
<path d="M211.38 19.2891C211.622 19.7776 212.077 20.5294 212.403 20.7148C212.388 20.9909 212.432 21.0943 212.476 21.2079C212.563 21.4418 212.615 21.8142 212.843 22.197C213.046 22.2474 213.308 22.3557 213.495 22.2252C213.701 22.0816 213.91 21.4238 214.487 21.3497C215.485 21.2211 215.878 21.1786 216.969 20.6234C217.272 20.4692 217.201 19.7438 217.64 19.6888C218.189 19.6204 218.734 19.7088 218.916 19.5038C219.072 19.3289 219.071 18.7625 219.433 18.7238C219.938 18.6696 220.649 18.9054 220.967 18.4308C221.364 17.8381 221.536 17.0539 222.054 16.6109C222.23 16.4604 222.741 16.5503 222.908 16.155C223.248 15.3524 222.634 13.2448 223.31 12.9894C223.683 12.8484 224.166 12.6442 224.345 12.194C224.432 11.9758 224.48 11.7306 224.434 11.5516C224.281 10.966 223.975 10.3831 223.627 10.2138C223.455 10.13 223.018 10.048 222.523 10.201C222.196 10.3022 222.077 10.6682 221.937 10.6005C221.792 10.5309 220.544 10.0156 220.042 10.6659C219.905 10.8438 219.935 11.2583 219.659 11.4482C218.979 11.9172 218.582 13.3704 218.154 13.0966C217.768 12.8499 217.059 12.4934 216.559 12.8781C216.344 13.0428 216.207 13.4065 215.931 13.6397C215.815 13.7375 215.685 13.7059 215.558 13.745C215.018 13.912 214.718 14.554 214.302 14.7717C213.696 15.0892 212.748 15.2434 212.699 15.5608C212.626 16.0373 212.649 16.5025 212.489 16.6458C212.334 16.785 211.66 16.9524 211.49 17.5929C211.323 18.2243 211.134 18.7919 211.38 19.2883L211.38 19.2891Z" fill="#F8C10B"/>
<path d="M152.304 9.9932C152.409 10.0628 152.562 10.2565 152.589 10.3065C152.598 10.3321 152.607 10.3569 152.614 10.3798C152.629 10.4238 152.641 10.466 152.658 10.5216C152.706 10.6736 152.761 10.7826 152.804 10.8842C152.851 10.994 152.927 11.1568 152.966 11.3212C153.019 11.5397 153.067 11.642 153.122 11.8064C153.246 12.1749 153.288 12.3321 153.352 12.565C153.384 12.683 153.422 12.7891 153.453 12.9881C153.476 13.1321 153.497 13.3002 153.515 13.436C153.53 13.5563 153.494 13.7365 153.571 13.7482C153.601 13.7527 153.756 13.7184 153.971 13.5462C154.254 13.3205 154.649 13.2231 154.744 13.1268C154.766 13.1046 154.793 13.0659 154.611 12.8914C154.49 12.7759 154.394 12.826 154.058 12.2362C153.918 11.9918 153.843 11.8143 153.684 11.5013C153.607 11.349 153.472 11.1478 153.406 10.9105C153.342 10.6807 153.264 10.4964 153.213 10.3746C153.132 10.1801 153.129 9.91798 153.09 9.78785C153.042 9.62425 152.981 9.56633 153.028 9.32225C153.083 9.03228 153.156 8.76525 153.27 8.59826C153.416 8.38501 153.63 8.07097 153.795 7.81673C153.943 7.58731 154.04 7.41957 154.089 7.33871C154.256 7.06379 154.35 6.8528 154.508 6.71138C154.774 6.47181 155.201 6.46165 155.137 6.23976C155.122 6.1871 155.056 6.07615 154.935 6.00733C154.769 5.9133 154.623 5.7324 154.449 5.65756C154.331 5.60679 154.241 5.56316 154.089 5.56993C153.767 5.58422 153.635 5.64665 153.546 5.59588C153.522 5.58272 153.494 5.55714 153.506 5.52969C153.558 5.40256 153.6 5.31381 153.568 5.29575C153.532 5.27545 153.407 5.2856 153.246 5.27356H153.238C153.068 5.26002 152.897 5.24724 152.756 5.32058C152.633 5.38451 152.48 5.49922 152.444 5.42551C152.388 5.31042 152.354 5.20248 152.313 5.14005C152.289 5.10244 152.255 5.05468 152.189 5.08815C152.124 5.12162 152.03 5.23295 151.977 5.27883C151.925 5.32471 151.914 5.30666 151.906 5.28297C151.888 5.23257 151.91 5.04603 151.816 4.99375C151.799 4.98435 151.778 4.97983 151.748 4.99074C151.569 5.05769 151.296 5.20963 151.176 5.34954C151.079 5.46237 151.023 5.56542 151.03 5.6899C151.045 5.95656 151.069 6.22735 151.114 6.39847C151.161 6.57411 151.236 6.86972 151.236 7.04009C151.236 7.34887 151.36 7.50796 151.309 7.5828C151.304 7.59032 151.283 7.57603 151.267 7.55986C151.183 7.47824 151.051 7.31351 150.835 7.01075C150.722 6.85167 150.538 6.58877 150.385 6.36462C150.232 6.14084 150.113 5.96107 149.991 5.89638C149.87 5.83169 149.749 5.87983 149.567 5.99078C149.385 6.10173 149.146 6.26533 149.013 6.37139C148.843 6.50754 148.788 6.5553 148.77 6.59893C148.752 6.64406 148.736 6.70725 148.752 6.77457C148.786 6.92049 149.007 7.13374 148.884 7.27139C148.86 7.29734 148.61 7.03708 148.489 7.21234C148.398 7.34623 148.468 7.54632 148.369 7.58693C148.323 7.60612 148.208 7.55873 148.111 7.61815C148.063 7.64711 148.054 7.69525 148.021 7.74114C147.937 7.85923 147.915 7.96078 147.836 8.2421C147.8 8.36847 147.776 8.49558 147.836 8.56027C147.905 8.63512 148.042 8.69153 148.088 8.81C148.097 8.83182 148.095 8.85288 148.049 8.85739C148.004 8.86153 147.917 8.84084 147.862 8.84874C147.723 8.8683 147.6 8.87055 147.562 8.94615C147.543 8.98376 147.525 9.02626 147.528 9.08267C147.536 9.22973 147.527 9.51293 147.607 9.80779C147.71 10.185 147.847 10.5517 147.976 10.7262C148.024 10.7902 148.046 10.8067 148.117 10.7571C148.317 10.6171 148.516 10.4957 148.622 10.4321C148.68 10.3968 148.836 10.3099 149.063 10.1624C149.309 10.003 149.524 9.83825 149.854 9.72053C150.08 9.6393 150.398 9.54377 150.696 9.53549C150.849 9.53135 150.912 9.52459 150.972 9.52948C151.144 9.54414 151.34 9.58815 151.498 9.64193C151.724 9.71865 152.099 9.85856 152.304 9.99358L152.304 9.9932Z" fill="#F5D000"/>
<path d="M117.242 1.78867C117.312 1.52277 117.409 1.31893 117.439 1.2674C117.519 1.13276 117.655 1.04363 117.688 1.02294C117.914 0.883785 118.017 0.801044 118.208 0.854073C118.388 0.904094 118.421 0.963518 118.977 1.34789C119.232 1.52353 119.47 1.63598 119.818 2.02185C119.975 2.19561 120.317 2.57697 120.687 3.24304C121.209 4.18178 121.429 4.48153 121.447 4.81137C121.46 5.06486 121.496 5.32361 121.378 5.51053C121.256 5.70648 120.867 6.02503 120.438 6.2097C120.006 6.39549 119.556 6.68395 119.259 6.61964C119.155 6.59708 119.023 6.5557 118.912 6.45792C118.76 6.32403 118.157 5.83661 117.842 4.91066C117.714 4.53682 117.643 4.15508 117.561 3.83728C117.473 3.49352 117.389 3.22687 117.327 2.79097C117.238 2.16477 117.195 1.96845 117.242 1.78867H117.242Z" fill="#CA810C"/>
<path d="M118.462 6.14285C118.417 6.09358 118.294 6.00971 118.233 5.81076C118.231 5.80211 118.176 5.68777 118.173 5.67799C118.165 5.65656 118.232 5.53169 118.233 5.47904C118.245 5.43353 118.318 5.34327 118.462 5.21351C118.502 5.17741 118.555 5.14243 118.621 5.08075C118.673 5.03261 118.759 4.96943 118.903 4.88142C119.034 4.80169 119.212 4.6772 119.451 4.5497C119.69 4.42221 119.84 4.35075 120.06 4.28418C120.232 4.23228 120.367 4.22777 120.426 4.21799C120.494 4.20633 120.657 4.22438 120.791 4.21799C120.837 4.21573 120.993 4.20332 121.035 4.21799C121.188 4.27177 121.254 4.23115 121.31 4.33834C121.345 4.40453 121.445 4.60612 121.461 4.67006C121.493 4.80282 121.497 4.89947 121.493 5.00177C121.49 5.08978 121.461 5.21351 121.461 5.3459C121.461 5.47829 121.375 5.56253 121.34 5.61105C121.301 5.66408 121.34 5.61105 121.279 5.67762C121.206 5.75697 121.12 5.83633 120.974 5.94276C120.928 5.97661 120.845 6.0413 120.792 6.07553C120.7 6.13457 120.586 6.16429 120.548 6.20829C120.496 6.26922 120.271 6.3309 120.183 6.36663C120.104 6.39822 120.058 6.42793 119.939 6.47381C119.888 6.49375 119.856 6.52158 119.757 6.55618C119.644 6.59567 119.535 6.59981 119.513 6.60658C119.467 6.62011 119.417 6.65284 119.362 6.66073C119.306 6.66863 119.207 6.61635 119.147 6.60658C119.047 6.59003 118.975 6.5449 118.936 6.52797C118.885 6.50578 118.787 6.39596 118.755 6.36663C118.713 6.32864 118.692 6.35421 118.622 6.27486C118.58 6.22747 118.501 6.18497 118.463 6.1421L118.462 6.14285Z" fill="#7A4C33"/>
<path d="M119.597 2.92537C119.588 2.92537 119.579 2.92048 119.574 2.91145L119.57 2.9043C119.529 2.82796 119.49 2.75612 119.464 2.71212L119.429 2.65796C119.408 2.62637 119.392 2.60004 119.372 2.5677C119.292 2.4654 119.194 2.3537 119.073 2.22884C118.985 2.13857 118.909 2.06561 118.862 2.02048C118.814 1.97497 118.776 1.95955 118.771 1.95842C118.757 1.95541 118.748 1.94075 118.75 1.92533C118.753 1.91028 118.766 1.90013 118.78 1.90276C118.798 1.90614 118.844 1.92909 118.896 1.9776C118.944 2.02311 119.02 2.09645 119.108 2.18746C119.231 2.31383 119.33 2.42666 119.413 2.5331C119.434 2.56732 119.451 2.59365 119.471 2.62486L119.506 2.68015C119.533 2.72603 119.573 2.79825 119.615 2.87497L119.619 2.88212C119.626 2.89565 119.622 2.91296 119.61 2.92085C119.606 2.92349 119.601 2.92461 119.597 2.92461L119.597 2.92537Z" fill="#E7C3A6"/>
<path d="M101.106 45.9093C101.04 45.9271 101.01 46.0029 101.011 46.0034C100.994 46.0452 100.989 46.0609 100.982 46.0771C100.975 46.0933 100.965 46.1101 100.959 46.1315C100.937 46.2193 100.926 46.304 100.919 46.373C100.911 46.4494 100.909 46.5382 100.793 46.9748C100.746 47.151 100.685 47.3747 100.639 47.5932C100.593 47.8118 100.558 48.0183 100.55 48.1437C100.539 48.3105 100.53 48.4057 100.538 48.5374C100.549 48.722 100.556 48.9164 100.568 49.0618C100.579 49.2071 100.584 49.2986 100.616 49.3854C100.645 49.4664 100.704 49.5898 100.88 49.8355C100.924 49.8982 100.994 49.9845 101.106 50.0802C101.169 50.134 101.237 50.2663 101.448 50.3364C101.748 50.4357 101.942 50.478 102.017 50.4833C102.303 50.5026 102.437 50.4712 102.509 50.4048C102.585 50.3348 102.658 50.2668 102.692 50.1189C102.78 49.7325 102.802 49.606 102.774 49.5407C102.74 49.4591 102.708 49.3802 102.594 49.2793C102.512 49.2071 102.402 49.1433 102.299 48.9661C102.248 48.8777 102.216 48.6153 102.162 48.3461C102.132 48.195 102.113 48.0862 102.101 48.0251C102.064 47.8473 102.057 47.6853 102.068 47.5912C102.073 47.5493 102.133 47.2926 102.195 46.9282C102.224 46.7573 102.24 46.6987 102.243 46.6391C102.249 46.4776 102.245 46.3014 102.146 46.2319C102.061 46.1728 101.927 46.0761 101.715 46.0201C101.44 45.948 101.215 45.88 101.107 45.9093H101.106Z" fill="#FFF0CA"/>
<path d="M102.19 46.5447C102.32 46.5949 102.47 46.6822 102.513 46.7083C102.53 46.7402 102.649 46.8228 102.669 46.8516C102.711 46.906 103.349 47.1114 103.778 47.2191C103.984 47.2447 104.212 47.3383 104.37 47.2217C104.567 47.0753 104.822 46.8553 104.911 46.621C105.017 46.3434 105.182 45.6973 105.077 45.2607C105.037 45.0934 104.897 44.6182 104.556 43.9966C104.401 43.7143 104.256 43.5046 104.074 43.353C103.721 43.0577 103.506 42.9024 103.416 42.8637C103.29 42.8093 102.992 42.6975 102.579 42.6232C102.249 42.5636 102.067 42.549 101.916 42.5244C101.615 42.4747 101.287 42.4141 101.062 42.4204C100.858 42.4266 100.606 42.4355 100.398 42.4794C100.163 42.5286 99.9625 42.5783 99.8056 42.6629C99.6363 42.7544 99.065 43.1915 98.7776 43.6484C98.5704 43.9783 98.366 44.2972 98.2922 44.5727C98.2063 44.8937 98.1123 45.198 98.1425 45.4955C98.213 46.1866 98.32 46.5677 98.5004 46.6995C98.7335 46.8699 99.2281 47.1841 99.7188 47.0748C99.9908 47.0142 100.115 46.9656 100.32 46.8187C100.471 46.7104 100.6 46.6001 101.134 46.4083C101.346 46.3319 101.863 46.4198 102.191 46.5463L102.19 46.5447Z" fill="#E8740F"/>
<path d="M34.9475 48.0876C35.8191 48.1592 36.3784 48.2057 36.3842 48.2063C36.448 48.1838 36.7349 48.1336 36.9455 48.1095C37.1561 48.0855 37.5216 48.0526 37.7283 48.0269C38.197 47.9193 38.612 47.7891 38.7952 47.672C39.0653 47.5 39.355 47.2516 39.5666 46.9793C39.7729 46.7137 40.0348 46.399 40.1763 46.0241C40.4267 45.3617 40.586 44.9817 40.5783 44.3214C40.5701 43.6715 40.5941 43.2057 40.4291 42.8058C40.2775 42.4382 40.0727 42.1978 39.9163 42.0388C39.7129 41.8323 39.2677 41.4026 38.7616 41.1961C38.2752 40.9974 37.89 40.8563 37.7571 40.7778C37.5801 40.6733 37.3902 40.6173 36.8821 40.2979C36.5296 40.0762 36.282 39.5169 36.0436 39.6251C35.8282 39.7223 35.5639 40.2117 35.3946 40.3596C35.1533 40.5708 34.9935 40.7705 34.7604 40.8944C34.5891 40.9854 34.2845 41.1318 34.0538 41.2782C33.695 41.5056 33.3122 41.7241 33.138 41.8203C32.9284 41.9358 32.7399 42.0278 32.5763 42.1737C32.3024 42.4184 31.8577 42.7796 31.6452 43.3657C31.4614 43.8733 31.3161 44.0887 31.3382 44.8792C31.3559 45.5191 31.4044 45.8066 31.495 46.1146C31.578 46.3974 31.5962 46.7053 31.9704 46.9944C32.3225 47.2663 32.8804 47.6474 33.5899 47.8335C34.2207 47.9992 34.5767 48.0557 34.947 48.086L34.9475 48.0876Z" fill="#C08C48"/>
<path d="M35.9897 48.2102C36.1437 48.2207 36.23 48.2139 36.3375 48.2113C36.3375 48.2113 36.5716 48.2123 36.5888 48.2128C36.6061 48.2134 36.8402 48.2144 36.8584 48.2128C36.9342 48.1987 36.9443 48.1992 37.1016 48.1757C37.3166 48.1438 37.495 48.1334 37.5914 48.1078C37.7013 48.0785 37.7847 48.0482 37.9018 48.0267C38.0121 48.0063 38.204 47.908 38.3743 47.8667C38.4626 47.8453 38.7264 47.7873 38.8761 47.689C38.9754 47.6242 39.1788 47.4715 39.2599 47.3879C39.362 47.2828 39.4537 47.1976 39.5386 47.047C39.598 46.9414 39.6988 46.7464 39.6791 46.5927C39.6451 46.3276 39.7141 46.4792 39.6105 46.2513C39.5323 46.0798 39.3831 45.9601 39.257 45.8603C39.1692 45.7907 39.0579 45.6982 38.6866 45.59C38.5417 45.5476 38.3522 45.5001 37.542 45.4164C36.7467 45.3338 35.3939 45.2198 34.6767 45.1592L34.6369 45.1561C33.9313 45.0965 33.9092 45.0933 33.891 45.0938C33.8583 45.0949 33.6122 45.075 33.2577 45.1153C33.0841 45.1351 33.0035 45.1409 32.9138 45.1681C32.7881 45.2068 32.6264 45.2047 32.4178 45.3176C32.2921 45.3856 31.9995 45.5544 31.8954 45.6945C31.7049 45.9507 31.6306 46.1081 31.6162 46.2236C31.5956 46.3904 31.5457 46.451 31.6493 46.6784C31.738 46.8729 31.9064 46.9592 31.9961 47.0585C32.0849 47.1573 32.2614 47.2655 32.5507 47.4156C32.7094 47.4982 32.8164 47.5714 32.9028 47.6116C33.0117 47.6629 33.1661 47.8072 33.4631 47.8552C33.6808 47.8908 33.8238 47.9101 33.8651 47.9196C33.9572 47.9399 34.0603 47.9656 34.1534 47.9954C34.2272 48.0194 34.2886 48.0387 34.8249 48.0827C35.1919 48.113 35.3406 48.1323 35.4337 48.1308C35.5872 48.1276 35.8606 48.1998 35.9897 48.2087V48.2102Z" fill="#FFE9C2"/>
<path d="M31.5237 16.0393C31.7345 16.019 31.9692 15.9847 32.0013 15.9783C32.0828 15.9449 32.2153 15.9159 32.246 15.8994C32.277 15.8828 32.3091 15.864 32.345 15.8475C32.5041 15.7828 32.6498 15.6872 32.8354 15.5695C33.0332 15.4439 33.2647 15.2397 33.3941 15.128C33.5125 15.0257 33.6823 14.9294 33.9097 14.5909C34.1661 14.2088 34.3621 14.0256 34.5371 13.4976C34.5996 13.3096 34.6413 13.1651 34.643 12.8372C34.6448 12.5788 34.6372 12.1452 34.6237 11.8548C34.6099 11.5648 34.5958 11.4216 34.5409 11.206C34.4132 10.7055 34.301 10.2831 34.2099 10.0736C34.1219 9.87128 33.8165 9.62306 33.3082 9.27254C33.1722 9.17889 32.8226 8.98106 32.2167 8.86109C31.9299 8.8043 31.6728 8.80279 31.4391 8.80542C31.2148 8.80806 31.0174 8.81445 30.8138 8.82084L30.789 8.8216C30.3611 8.83551 30.0156 8.831 29.7958 8.84604C29.6412 8.85657 29.5504 8.8735 29.461 8.89682C29.1767 8.97053 28.6725 9.04124 28.3729 9.20973C28.2221 9.29435 28.0344 9.39402 27.8456 9.61027C27.4853 10.0236 27.387 10.1455 27.3242 10.2993C27.2458 10.4911 27.1202 10.7325 26.996 11.3508C26.9439 11.6107 26.869 11.9601 26.8586 12.1794C26.8372 12.6262 26.8203 12.8372 26.9466 13.3784C26.9846 13.5416 27.0733 13.8677 27.2552 14.2987C27.3652 14.5593 27.474 14.7282 27.6106 14.8399C27.897 15.0742 28.3778 15.345 28.5355 15.4353C28.687 15.5218 28.8619 15.5898 29.1201 15.6455C29.3841 15.7023 29.7009 15.7493 30.0235 15.8065C30.3859 15.8704 30.6233 15.9231 30.7313 15.9562C30.9715 16.0295 31.3063 16.0596 31.5237 16.0389V16.0393Z" fill="#E9B855"/>
<path d="M29.7721 8.6818C29.9795 8.66036 30.2498 8.64494 30.2746 8.65209C30.4492 8.65622 31.0808 8.64456 31.1246 8.64983C31.216 8.66111 31.4404 8.67766 31.7692 8.70286C32.0667 8.7258 32.3086 8.76567 32.4736 8.79087C32.5661 8.80478 32.6592 8.81494 32.7569 8.85894C32.9346 8.93905 33.2145 8.97929 33.3432 9.1207C33.4492 9.23729 33.6393 9.30424 33.7767 9.4355C34.0476 9.69425 33.9654 9.61903 34.0476 9.69425C34.1114 9.75255 34.1967 9.81573 34.2564 9.91389C34.3171 10.0136 34.411 10.1204 34.549 10.665C34.5977 10.8571 34.6187 10.9425 34.6284 11.0049C34.6591 11.202 34.6884 11.4619 34.6453 11.6161C34.616 11.721 34.5511 11.9159 34.4555 11.9696C34.4203 11.9896 34.384 11.9997 34.3499 11.9956C34.3168 11.9915 34.2709 11.9775 34.2219 11.9373C34.118 11.8523 34.0445 11.6691 33.9682 11.706C33.9082 11.735 33.64 11.8952 33.4464 12.2216C33.3305 12.4168 33.2511 12.644 33.2076 12.8565C33.17 13.0411 33.1441 13.1468 33.1048 13.1777C32.9919 13.2668 32.9077 13.3541 32.8038 13.4304C32.7079 13.5011 32.5481 13.6324 32.457 13.5635C32.4239 13.5387 32.2575 13.2559 32.1216 13.0073C32.0229 12.8264 31.9238 12.6782 31.8462 12.5511C31.7199 12.3446 31.518 12.1126 31.3089 11.9704C31.2157 11.9072 31.1701 11.8982 31.1208 11.9087C31.0021 11.9339 30.7519 11.9441 30.6653 12.0588C30.6283 12.1077 30.5983 12.1581 30.5735 12.2006L30.5717 12.2032C30.5248 12.2826 30.4437 12.4123 30.3585 12.7621C30.2977 13.0107 30.2639 13.1799 30.2539 13.2465C30.2339 13.3808 30.2401 13.6301 30.0334 13.7584C29.9057 13.8373 29.7425 13.9915 29.4477 13.8618C29.1082 13.7121 28.9422 13.5436 28.8414 13.386C28.7424 13.2314 28.6658 12.8978 28.623 12.5819C28.5974 12.3943 28.5857 12.0072 28.4301 11.8929C28.3269 11.8173 28.1633 11.674 27.921 11.762C27.7961 11.8075 27.6802 11.8395 27.6146 11.9226C27.54 12.017 27.4848 12.1618 27.3885 12.1671C27.2836 12.1727 27.2015 12.166 27.1722 12.143C27.1118 12.096 27.0469 12.0388 27.0172 11.9595C26.9827 11.867 26.9758 11.595 27.0145 11.1392C27.0248 11.0174 27.0234 10.8884 27.0572 10.7466C27.0907 10.6067 27.1363 10.4694 27.217 10.3505C27.3292 10.1847 27.4089 10.0459 27.4538 9.97858C27.5155 9.88606 27.5621 9.81648 27.6432 9.68711C27.8279 9.39187 27.8796 9.27302 28.1384 9.17336C28.2585 9.1271 28.3648 9.05188 28.4915 8.98907C28.6092 8.93077 28.8483 8.83675 29.0243 8.80102C29.3604 8.73257 29.6324 8.69684 29.7725 8.68255L29.7721 8.6818Z" fill="#813300"/>
<path d="M28.9202 9.91555C28.9661 9.82604 29.0192 9.75195 29.0199 9.75195C29.0737 9.76098 29.0413 9.7591 29.0486 9.76098C29.0655 9.76436 29.0889 9.77151 29.2004 9.79107C29.2442 9.79972 29.3001 9.81288 29.3312 9.82003C29.3681 9.8283 29.3995 9.83808 29.4313 9.86027C29.4427 9.86817 29.443 9.87306 29.4385 9.8881C29.434 9.90314 29.4251 9.92721 29.4088 9.9731C29.3926 10.019 29.3698 10.0844 29.3512 10.1344C29.3322 10.1841 29.3177 10.2172 29.2694 10.2232C29.2211 10.2292 29.1407 10.2097 29.0851 10.1927C28.9985 10.166 28.9454 10.154 28.9126 10.1438H28.9119C28.8946 10.1382 28.8822 10.1344 28.876 10.122C28.8677 10.1051 28.8601 10.0859 28.8646 10.0724C28.8712 10.0528 28.8694 10.0145 28.9202 9.91555Z" fill="#08950A"/>
<path d="M30.9675 10.7958C30.9685 10.8845 30.9578 10.9646 30.9571 10.965C30.9133 10.9834 30.9385 10.9695 30.9323 10.9718C30.9181 10.977 30.8978 10.9831 30.8067 11.0203C30.7704 11.0342 30.7232 11.0504 30.6973 11.0598C30.6662 11.0707 30.639 11.0782 30.6062 11.0763C30.5944 11.0756 30.5924 11.0722 30.5896 11.059C30.5872 11.0459 30.5844 11.0233 30.5782 10.9816C30.5724 10.9394 30.5634 10.88 30.5579 10.8338C30.5523 10.7875 30.5503 10.7559 30.5841 10.7288C30.6179 10.7017 30.6859 10.6788 30.7342 10.6656C30.8098 10.645 30.8543 10.6292 30.8829 10.6216H30.8836C30.8985 10.6175 30.9095 10.6145 30.9188 10.6209C30.9316 10.6295 30.9451 10.6404 30.9468 10.6528C30.9496 10.6709 30.9661 10.6984 30.9672 10.7965L30.9675 10.7958Z" fill="#08950A"/>
<path d="M31.2545 9.96679C31.2155 10.0446 31.1703 10.109 31.1696 10.109C31.123 10.1018 31.1513 10.1029 31.1448 10.1014C31.1303 10.0984 31.1099 10.0928 31.0136 10.077C30.9757 10.0698 30.9274 10.0589 30.9004 10.0533C30.8687 10.0465 30.8414 10.0383 30.8135 10.0194C30.8035 10.0127 30.8031 10.0085 30.8069 9.99538C30.8107 9.98259 30.8183 9.96153 30.8318 9.92166C30.8452 9.88179 30.8646 9.825 30.8804 9.78175C30.8963 9.7385 30.9087 9.70992 30.9505 9.70428C30.9922 9.69864 31.0616 9.71481 31.1099 9.7291C31.1852 9.75129 31.231 9.76107 31.2593 9.76972H31.26C31.2749 9.77423 31.2859 9.77762 31.2911 9.78815C31.2983 9.80281 31.3052 9.81899 31.3011 9.83102C31.2956 9.84795 31.2973 9.88104 31.2545 9.96717V9.96679Z" fill="#08950A"/>
<path d="M32.5041 9.74633C32.4758 9.80124 32.4427 9.84674 32.4423 9.84674C32.4092 9.8411 32.4292 9.84223 32.4247 9.8411C32.4144 9.83885 32.3999 9.83471 32.3315 9.8223C32.3046 9.81666 32.2701 9.80838 32.2511 9.80387C32.2283 9.7986 32.209 9.79259 32.1897 9.77867C32.1828 9.77378 32.1824 9.77077 32.1852 9.76137C32.188 9.75234 32.1935 9.7373 32.2038 9.70909C32.2139 9.68089 32.228 9.64064 32.2397 9.6098C32.2515 9.57934 32.2604 9.55903 32.2905 9.55527C32.3201 9.55188 32.3698 9.56392 32.4037 9.57483C32.4568 9.59175 32.4896 9.5989 32.5096 9.60529H32.5103C32.521 9.60867 32.5286 9.61131 32.5324 9.61883C32.5376 9.62936 32.542 9.64102 32.5393 9.64929C32.5351 9.66133 32.5362 9.68502 32.5048 9.74557L32.5041 9.74633Z" fill="#08950A"/>
<path d="M33.9533 10.4162C33.925 10.4712 33.8919 10.5167 33.8915 10.5167C33.8584 10.511 33.8784 10.5122 33.8739 10.511C33.8636 10.5088 33.8491 10.5046 33.7807 10.4922C33.7538 10.4866 33.7193 10.4783 33.7003 10.4738C33.6776 10.4685 33.6582 10.4625 33.6389 10.4486C33.632 10.4437 33.6317 10.4407 33.6344 10.4313C33.6372 10.4223 33.6427 10.4072 33.6531 10.379C33.6631 10.3508 33.6772 10.3106 33.689 10.2797C33.7007 10.2493 33.7097 10.229 33.7397 10.2252C33.7694 10.2218 33.8191 10.2338 33.8529 10.2447C33.906 10.2613 33.9388 10.2688 33.9588 10.2752H33.9595C33.9702 10.2786 33.9778 10.2812 33.9816 10.2888C33.9868 10.2993 33.9913 10.3109 33.9885 10.3192C33.9844 10.3313 33.9854 10.3549 33.954 10.4155L33.9533 10.4162Z" fill="#08950A"/>
<path d="M32.508 10.5725C32.4797 10.6274 32.4466 10.6729 32.4462 10.6729C32.4131 10.6673 32.4331 10.6684 32.4286 10.6673C32.4183 10.665 32.4038 10.6609 32.3354 10.6485C32.3085 10.6428 32.274 10.6346 32.255 10.63C32.2323 10.6248 32.2129 10.6188 32.1936 10.6048C32.1867 10.6 32.1864 10.5969 32.1891 10.5875C32.1919 10.5785 32.1974 10.5635 32.2077 10.5353C32.2178 10.5071 32.2319 10.4668 32.2436 10.436C32.2554 10.4055 32.2643 10.3852 32.2944 10.3814C32.324 10.3781 32.3734 10.3901 32.4076 10.401C32.4607 10.4179 32.4935 10.4251 32.5135 10.4318H32.5142C32.5249 10.4352 32.5325 10.4379 32.5363 10.4454C32.5415 10.4559 32.5459 10.4676 32.5432 10.4758C32.539 10.4879 32.5401 10.5116 32.5087 10.5721L32.508 10.5725Z" fill="#08950A"/>
<path d="M28.4611 10.7287C28.4328 10.7837 28.3997 10.8292 28.3993 10.8292C28.3662 10.8235 28.3862 10.8247 28.3817 10.8235C28.3714 10.8213 28.3569 10.8171 28.2886 10.8047C28.2616 10.7991 28.2271 10.7908 28.2082 10.7863C28.1854 10.781 28.1661 10.775 28.1467 10.7611C28.1398 10.7562 28.1395 10.7532 28.1422 10.7438C28.145 10.7348 28.1505 10.7197 28.1609 10.6915C28.1709 10.6633 28.185 10.6231 28.1968 10.5922C28.2085 10.5618 28.2175 10.5415 28.2475 10.5377C28.2772 10.5343 28.3265 10.5463 28.3607 10.5572C28.4138 10.5742 28.4466 10.5817 28.467 10.5881H28.4677C28.4784 10.5915 28.486 10.5941 28.4898 10.6016C28.4949 10.6122 28.4994 10.6238 28.4967 10.6321C28.4925 10.6441 28.4936 10.6678 28.4621 10.7284L28.4611 10.7287Z" fill="#08950A"/>
<path d="M30.0237 9.2194C30.0796 9.2021 30.1321 9.19495 30.1324 9.19533C30.1521 9.22466 30.1386 9.20849 30.1414 9.21263C30.1472 9.22203 30.1548 9.23632 30.1956 9.29762C30.2111 9.32207 30.2301 9.35442 30.2408 9.37247C30.2535 9.39353 30.2632 9.41271 30.2684 9.43753C30.2701 9.44656 30.2684 9.44882 30.2604 9.45295C30.2525 9.45747 30.239 9.46348 30.2135 9.47589C30.188 9.48831 30.1521 9.50598 30.1241 9.51877C30.0962 9.53156 30.0765 9.53908 30.053 9.51877C30.0296 9.49846 30.0023 9.45182 29.985 9.41798C29.9581 9.36532 29.9395 9.33486 29.9295 9.31493C29.9243 9.30402 29.9202 9.29612 29.9226 9.28822C29.9257 9.27694 29.9302 9.2649 29.9374 9.26114C29.9481 9.25588 29.9626 9.2382 30.0244 9.21902L30.0237 9.2194Z" fill="#08950A"/>
<path d="M121.84 1.97813C121.91 1.71223 122.006 1.50838 122.037 1.45686C122.116 1.32221 122.253 1.23308 122.286 1.21239C122.512 1.07324 122.614 0.990497 122.805 1.04353C122.985 1.09355 123.018 1.15297 123.575 1.53734C123.829 1.71298 124.068 1.82543 124.416 2.21131C124.573 2.38506 124.914 2.76643 125.285 3.4325C125.807 4.37123 126.027 4.67098 126.044 5.00082C126.058 5.25431 126.093 5.51306 125.976 5.69998C125.853 5.89593 125.465 6.21449 125.036 6.39915C124.604 6.58494 124.154 6.87341 123.857 6.80909C123.753 6.78653 123.62 6.74516 123.509 6.64737C123.357 6.51348 122.755 6.02606 122.439 5.10011C122.312 4.72627 122.24 4.34453 122.159 4.02673C122.071 3.68298 121.987 3.41632 121.925 2.98043C121.836 2.35422 121.792 2.1579 121.84 1.97813H121.84Z" fill="#CA810C"/>
<path d="M123.06 6.3323C123.015 6.28303 122.892 6.19916 122.831 6.00021C122.828 5.99156 122.774 5.87722 122.77 5.86745C122.762 5.84601 122.829 5.72115 122.831 5.66849C122.843 5.62298 122.916 5.53272 123.06 5.40297C123.1 5.36686 123.152 5.33189 123.219 5.27021C123.271 5.22207 123.357 5.15888 123.501 5.07087C123.632 4.99114 123.81 4.86665 124.049 4.73916C124.288 4.61166 124.438 4.5402 124.658 4.47363C124.83 4.42173 124.965 4.41722 125.023 4.40744C125.092 4.39578 125.254 4.41383 125.389 4.40744C125.434 4.40518 125.591 4.39277 125.632 4.40744C125.786 4.46122 125.852 4.4206 125.908 4.52779C125.943 4.59398 126.043 4.79557 126.059 4.85951C126.091 4.99227 126.095 5.08893 126.091 5.19123C126.087 5.27923 126.059 5.40297 126.059 5.53535C126.059 5.66774 125.973 5.75198 125.937 5.8005C125.898 5.85353 125.937 5.8005 125.876 5.86707C125.804 5.94643 125.718 6.02578 125.572 6.13222C125.526 6.16607 125.442 6.23076 125.389 6.26498C125.297 6.32403 125.183 6.35374 125.146 6.39774C125.093 6.45867 124.869 6.52035 124.78 6.55608C124.702 6.58767 124.655 6.61738 124.537 6.66327C124.486 6.6832 124.454 6.71103 124.354 6.74563C124.241 6.78512 124.133 6.78926 124.111 6.79603C124.064 6.80957 124.015 6.84229 123.96 6.85019C123.903 6.85808 123.804 6.80581 123.745 6.79603C123.644 6.77948 123.573 6.73435 123.534 6.71742C123.482 6.69523 123.384 6.58541 123.352 6.55608C123.311 6.51809 123.289 6.54367 123.22 6.46431C123.178 6.41692 123.099 6.37442 123.06 6.33155L123.06 6.3323Z" fill="#7A4C33"/>
<path d="M124.19 3.11529C124.181 3.11529 124.173 3.11041 124.168 3.10138C124.125 3.02202 124.084 2.94718 124.057 2.90167L124.023 2.84751C124.002 2.81592 123.985 2.7896 123.965 2.75725C123.886 2.65495 123.788 2.54325 123.666 2.41839C123.598 2.34768 123.525 2.27547 123.456 2.21003C123.407 2.16452 123.37 2.1491 123.365 2.14797C123.351 2.14497 123.342 2.1303 123.344 2.11488C123.347 2.09983 123.36 2.0893 123.374 2.09231C123.392 2.0957 123.438 2.11864 123.489 2.16715C123.559 2.23297 123.633 2.30556 123.702 2.37702C123.825 2.50339 123.924 2.61621 124.006 2.72265C124.028 2.75687 124.045 2.7832 124.065 2.81442L124.1 2.8697C124.128 2.91709 124.169 2.99231 124.212 3.07204C124.22 3.08558 124.216 3.10288 124.203 3.11078C124.199 3.11341 124.195 3.11454 124.19 3.11454V3.11529Z" fill="#E7C3A6"/>
<path d="M233.02 26.1459C228.298 23.9355 218.513 24.645 217.155 35.2485C216.811 35.0089 215.369 34.1628 212.359 32.6938C211.203 34.3173 208.226 37.269 207.046 38.3627C209.407 39.1054 214.425 40.1354 217.967 41.796C217.893 42.9138 218.321 45.469 220.623 46.7465C219.984 47.1191 218.129 47.7844 215.827 47.4651C214.203 47.2255 210.514 46.0528 208.89 44.1915C207.046 42.2752 206.898 41.3418 205.57 40.9177C205.276 40.8242 204.832 40.9337 204.832 42.2752C204.881 42.9405 205.57 44.8302 207.931 47.0659C210.243 48.7693 215.738 51.9046 219.221 50.8186C218.779 51.4041 217.436 52.7669 215.606 53.5333C214.302 53.7462 211.488 54.3956 210.662 55.29C210.416 55.5561 210.13 56.2002 210.957 56.6472C212.187 56.8069 215.296 56.7591 217.893 55.29C217.032 56.0618 214.868 57.9498 214.868 58.5885C214.868 58.9329 215.679 59.4965 216.565 59.1225C217.64 58.6684 219.989 57.4936 221.583 56.0883C220.968 57.6586 219.9 60.943 220.55 61.5179C220.623 61.651 221.287 61.7289 221.952 60.959C222.296 60.5597 223.339 59.0266 224.756 56.0883C224.731 57.3925 224.844 60.2563 225.494 61.2783C225.617 61.4647 226.025 61.7256 226.674 61.2783C226.87 61.1435 227.279 60.5916 227.929 57.5257C228.224 58.8829 229.109 62.1017 229.626 62.955C229.995 63.5644 230.659 63.2195 230.807 62.6357C231.003 61.5978 231.367 59.1863 231.249 57.845L232.504 60.0008C232.897 60.7993 233.876 62.3961 234.644 62.3961C235.677 62.6357 236.415 59.2503 233.463 53.693C235.554 54.2254 240.547 54.4366 243.13 52.2558C244.606 51.0097 246.672 47.0818 245.786 43.6326C245.622 42.9942 244.679 42.7792 244.31 44.1116C241.728 50.2597 241.211 51.8566 234.127 50.2597C238.555 46.1609 246.598 33.8365 233.02 26.1459Z" fill="#E54839"/>
<path d="M229.585 51.5929C229.604 51.583 229.608 51.5633 229.608 51.5483C229.608 51.5286 229.604 51.5136 229.585 51.5136L228.757 51.0485C228.519 50.9198 228.433 50.6127 228.547 50.3604C228.625 50.1869 228.789 50.0781 228.972 50.0781C229.046 50.0781 229.119 50.0978 229.183 50.1325L230.917 51.083C231.077 51.1821 231.178 51.3554 231.178 51.5483C231.178 51.7366 231.077 51.9148 230.917 51.9989L229.192 52.9592C229.119 53.0038 229.046 53.0237 228.972 53.0237C228.794 53.0237 228.625 52.9098 228.547 52.7414C228.487 52.6226 228.483 52.4791 228.519 52.3504C228.561 52.2168 228.643 52.1127 228.757 52.0533L229.585 51.5929Z" fill="white"/>
<path d="M227.448 49.2262C227.557 49.2757 227.653 49.3746 227.704 49.5033C227.745 49.632 227.745 49.7757 227.695 49.8944L226.405 53.1963C226.331 53.3895 226.153 53.5133 225.97 53.5133C225.906 53.5133 225.842 53.4934 225.782 53.4687C225.663 53.4141 225.572 53.3201 225.526 53.1865C225.476 53.0676 225.476 52.9241 225.526 52.7954L226.825 49.4935C226.899 49.3104 227.068 49.1816 227.26 49.1816C227.324 49.1816 227.388 49.1964 227.448 49.2262Z" fill="white"/>
<path d="M223.623 51.5136C223.605 51.5186 223.6 51.5385 223.6 51.5483C223.6 51.5633 223.605 51.583 223.623 51.5929L224.451 52.0435C224.689 52.1771 224.785 52.4889 224.662 52.7414C224.584 52.9098 224.419 53.0237 224.246 53.0237C224.163 53.0237 224.09 53.0038 224.026 52.9592L222.292 52.0088C222.132 51.9246 222.031 51.7464 222.031 51.5533C222.031 51.3554 222.132 51.1821 222.292 51.093L224.026 50.1325C224.09 50.0978 224.163 50.0781 224.246 50.0781C224.419 50.0781 224.584 50.1869 224.662 50.3604C224.721 50.4839 224.726 50.6227 224.694 50.7515C224.657 50.8851 224.566 50.9889 224.451 51.0485L223.623 51.5136Z" fill="white"/>
<path d="M230.167 35.1469C230.592 35.4094 231.198 35.1257 231.522 34.5131C231.846 33.9006 231.764 33.1911 231.339 32.9286C230.915 32.666 230.308 32.9497 229.984 33.5623C229.661 34.1748 229.743 34.8843 230.167 35.1469Z" fill="#424242"/>
<path d="M223.269 32.5375C223.694 32.8 224.3 32.5163 224.624 31.9038C224.947 31.2912 224.865 30.5817 224.441 30.3192C224.016 30.0566 223.41 30.3403 223.086 30.9529C222.762 31.5655 222.844 32.2749 223.269 32.5375Z" fill="#424242"/>
<path d="M197.175 35.4425C197.356 36.2273 197.021 37.2643 196.12 38.5537C196.043 38.7218 196.068 38.918 196.249 38.9461C197.175 39.3104 198.025 39.8991 198.72 40.6278C200.084 42.1694 200.831 44.3556 200.831 46.7661C200.831 49.1766 200.084 51.3068 198.72 52.8483C197.484 54.1937 195.656 55.0346 193.854 55.0346C192.001 55.0346 190.173 54.1937 188.937 52.8483C186.903 50.578 186.775 47.5229 186.852 45.3927C186.903 43.5148 187.393 41.5247 188.268 39.6468C189.117 37.7689 190.353 36.0871 191.666 34.966C192.387 34.3213 193.494 33.4805 194.704 33.4805C195.811 33.4805 196.892 34.3494 197.175 35.4425ZM195.039 48.5599C195.399 48.1395 195.631 47.5229 195.579 46.7661C195.631 46.0373 195.399 45.3366 195.039 44.9442C194.704 44.5799 194.318 44.3837 193.803 44.3837H193.751C193.339 44.3837 192.979 44.5518 192.67 44.8041C192.207 45.2245 191.949 45.9252 192.001 46.7661C191.949 47.0184 192.001 47.2986 192.026 47.5229C192.258 48.5039 192.902 49.0925 193.751 49.0925H193.803C194.318 49.0925 194.704 48.8963 195.039 48.5599Z" fill="#59671E"/>
<path d="M170.257 53.6238C168.893 53.2314 168.043 52.1383 168.043 50.7929C168.094 49.8119 168.532 48.971 169.536 47.99C170.437 47.0371 171.544 46.3083 172.574 45.5515C173.887 44.5705 175.303 43.5335 176.075 42.0479C176.487 41.2071 176.539 40.2821 176.178 39.5814C175.972 39.189 175.535 38.8807 175.071 38.8807C174.17 38.8807 173.707 39.9177 173.295 40.6745C173.037 41.3192 172.394 42.6085 170.901 42.6085C170.025 42.6085 169.227 42.0479 168.764 41.2631C168.481 40.6745 168.223 39.8337 168.712 38.0398V38.0118C169.176 36.4142 170.128 34.9847 171.312 34.0597C172.445 33.1068 173.887 32.5742 175.354 32.5742C176.358 32.5742 177.337 32.7984 178.263 33.303C180.194 34.2559 181.662 36.274 182.151 38.6565C182.666 40.9268 182.305 43.2812 181.198 45.2712C180.838 46 180.297 46.7007 179.705 47.4014C179.576 47.5416 179.654 47.7938 179.834 47.8499C180.477 47.934 180.967 48.0461 181.172 48.0741C182.743 48.5226 183.335 49.8119 183.335 50.849C183.335 51.886 182.743 53.1193 181.172 53.6238C179.628 54.0723 177.98 54.1283 176.307 54.1283H175.174C173.449 54.1283 171.802 54.0723 170.257 53.6238Z" fill="#59671E"/>
<path d="M161.47 35.7501C163.195 37.572 164.019 40.4309 164.019 44.2428C164.019 47.9426 163.144 50.8576 161.419 52.7355C160.054 54.2211 158.278 54.9778 156.296 54.9778C154.262 54.9778 152.486 54.2211 151.173 52.7355C149.448 50.8576 148.521 47.9146 148.572 44.2428C148.521 40.4309 149.396 37.572 151.121 35.7501C152.434 34.2646 154.21 33.5078 156.296 33.5078C158.329 33.5078 160.157 34.2646 161.47 35.7501ZM157.48 48.5032C158.072 47.8025 158.432 46.2329 158.432 44.2428C158.432 42.2248 158.098 40.6271 157.531 39.9825C157.428 39.8984 157.119 39.562 156.296 39.562C155.42 39.562 155.163 39.8984 155.06 39.9825C154.468 40.6271 154.159 42.1687 154.159 44.2428C154.159 46.2609 154.468 47.8025 155.111 48.5032C155.292 48.6994 155.601 48.9517 156.296 48.9517C156.965 48.9517 157.3 48.6994 157.48 48.5032Z" fill="#59671E"/>
<path d="M131.546 53.3933C130.182 53.0009 129.332 51.9078 129.332 50.5624C129.384 49.5814 129.821 48.7406 130.825 47.7596C131.726 46.8066 132.833 46.0778 133.863 45.3211C135.176 44.3401 136.592 43.303 137.364 41.8175C137.776 40.9766 137.828 40.0517 137.467 39.3509C137.261 38.9585 136.824 38.6502 136.36 38.6502C135.459 38.6502 134.996 39.6873 134.584 40.4441C134.326 41.0887 133.683 42.378 132.19 42.378C131.314 42.378 130.516 41.8175 130.053 41.0327C129.77 40.4441 129.512 39.6032 130.001 37.8094V37.7813C130.465 36.1837 131.417 34.7542 132.602 33.8293C133.734 32.8763 135.176 32.3438 136.643 32.3438C137.647 32.3438 138.626 32.568 139.552 33.0725C141.483 34.0255 142.951 36.0435 143.44 38.426C143.955 40.6963 143.594 43.0507 142.487 45.0408C142.127 45.7695 141.586 46.4702 140.994 47.171C140.865 47.3111 140.943 47.5634 141.123 47.6194C141.766 47.7035 142.256 47.8156 142.462 47.8436C144.032 48.2921 144.624 49.5814 144.624 50.6185C144.624 51.6556 144.032 52.8888 142.462 53.3933C140.917 53.8418 139.269 53.8979 137.596 53.8979H136.463C134.738 53.8979 133.091 53.8418 131.546 53.3933Z" fill="#59671E"/>
</svg>
