<svg xmlns="http://www.w3.org/2000/svg" width="680" height="420" fill="none"><path fill="#59671E" d="M580.989 102.47c-.687-2.314-1.62-5.53-2.506-9.42-1.479-7.55-3.126-17.478-4.466-28.112-1.307-10.372-2.174-20.399-2.613-28.079-.107-3.987-.001-7.335.091-9.747.834-12.242 8.481-14.407 11.859-14.833 3.249-.41 11.453-.245 15.167 11.424.817 2.297 1.621 5.53 2.377 9.436.64 2.987 1.297 6.105 1.873 9.633a1.18 1.18 0 0 0 1.319 1.034c3.264-.278 7.195-.507 10.606-.67 7.229-.246 13.972-.163 19.188.38 3.07.28 5.638.756 7.54 1.183 10.111 2.725 11.103 10.603 11.271 12.982.137 3.184-.689 11.29-11.909 14.44-2.808.753-5.893 1.41-9.791 1.901-1.689.213-2.989.377-4.581.311-2.988.377-6.27.525-9.274.77-3.021.114-5.849-.329-8.838.048-.649.082-1.363.706-1.28 1.362.466 4.742.751 9.107.955 12.816.236 3.972.259 7.303.038 9.732-.704 12.225-8.611 14.423-11.859 14.833-3.378.425-11.322.227-15.167-11.424M551.517 30.336c6.677 1.79 9.682 7.046 8.68 15.21-.779 5.146-2.559 10.626-5.676 16.89-3.561 6.71-8.68 13.309-14.911 19.125-7.679 7.157-17.249 13.085-26.374 15.993-3.672 1.454-8.013 2.573-12.352 2.573-.89 0-1.67 0-2.671-.224-6.343-.782-9.459-5.48-10.238-9.17-.223-2.015-.779-8.501 6.455-12.64 1.78-1.006 3.338-1.565 4.896-2.348 1.446-.671 2.782-1.23 4.006-1.79 3.45-2.013 11.128-5.704 17.582-12.414 7.901-7.941 14.912-20.132 17.471-25.053 3.117-5.816 8.681-6.6 10.795-6.6.779 0 1.78.224 2.337.448m-52.525 25.389h-1.001c-4.118-.336-7.679-2.125-9.794-3.468-4.117-2.572-7.122-6.375-8.234-10.29-1.447-3.914-.779-8.276 1.335-11.63 2.56-3.915 7.122-6.376 11.796-6.376h1.002c4.228.447 7.789 2.237 10.015 3.579 8.569 5.592 11.351 14.763 6.788 21.921-2.559 3.915-7.011 6.264-11.907 6.264M446.865 106.412c-6.07-.493-13.974-1.124-22.611-2.321-8.41-1.165-16.188-2.706-22.165-3.881-3.119-.896-5.702-1.485-7.586-2.095-10.368-3.753-10.11-11.483-9.779-13.87.299-2.161 2.149-9.67 13.146-10.464 1.979-.074 4.656-.166 7.854.16 2.304.088 4.949.223 7.677.6.714-.133 1.101-.427 1.18-.995.119-2.533.449-4.921.811-7.537s.724-5.23 1.282-7.587c.078-.569-.2-1.07-.882-1.165-1.575-.334-2.939-.523-4.157-.924-2.665-.833-4.922-1.261-6.646-2.195-7.476-2.89-9.546-8.856-8.933-13.29.629-4.55 4.257-9.842 12.237-10.59 1.897-.317 4.201-.23 6.976-.193 5.29.27 11.929.841 18.975 1.817 7.274 1.008 13.818 2.262 18.983 3.44 2.68.72 4.922 1.262 6.661 2.083 7.476 2.89 9.531 8.969 8.901 13.517-.613 4.435-4.225 9.614-12.205 10.363-1.912.43-4.201.23-6.991.306-1.282.054-2.646-.135-4.253-.241-.681-.095-1.086.313-1.164.882-.103 2.419-.465 5.034-.827 7.65-.362 2.615-.693 5.003-1.265 7.474-.079.568.214.956.865 1.278 2.728.378 5.31.968 7.551 1.51 3.166.555 5.717 1.372 7.602 1.98 10.368 3.755 10.11 11.484 9.811 13.644-.331 2.388-2.18 9.897-13.178 10.692-1.979.073-4.624-.061-7.87-.048M309.029 96.26c-.593-2.347-1.395-5.607-2.12-9.539-1.163-7.622-2.392-17.634-3.279-28.34-.864-10.44-1.301-20.518-1.407-28.227.068-3.998.322-7.346.522-9.758 1.381-12.224 9.207-14.07 12.641-14.356 3.302-.274 11.591.237 14.832 12.078.726 2.335 1.395 5.606 1.988 9.549.516 3.018 1.043 6.168 1.471 9.725.055.661.627 1.146 1.287 1.091 3.578-.163 7.297-.206 10.754-.226 7.319.058 14.132.425 19.382 1.187 3.093.409 5.668.993 7.572 1.5 10.103 3.155 10.76 11.085 10.957 13.464-.133 3.205-1.326 11.288-12.807 13.97-2.609.616-6.021 1.165-9.984 1.494-4.491.372-9.532.524-14.98.577-2.796-.034-5.481-.344-8.013-.4-.66.055-1.409.65-1.354 1.31.262 4.77.359 9.152.402 12.875.064 3.987-.059 7.324-.39 9.747-1.249 12.213-9.34 14.082-12.642 14.356-3.434.284-11.458-.247-14.832-12.078M280.308 39.768c6.736 1.79 9.768 7.046 8.757 15.21-.786 5.145-2.582 10.626-5.726 16.889-3.593 6.71-8.758 13.31-15.045 19.125-7.747 7.158-17.403 13.086-26.609 15.994-3.706 1.454-8.084 2.572-12.463 2.572-.898 0-1.684 0-2.695-.223-6.399-.783-9.543-5.48-10.329-9.171-.224-2.014-.785-8.5 6.512-12.639 1.796-1.007 3.369-1.566 4.94-2.349 1.46-.67 2.807-1.23 4.042-1.789 3.48-2.013 11.228-5.704 17.739-12.415 7.972-7.94 15.045-20.132 17.628-25.053 3.144-5.816 8.758-6.599 10.89-6.599.786 0 1.797.224 2.359.448m-52.995 25.388h-1.01c-4.154-.335-7.747-2.125-9.881-3.467-4.154-2.572-7.184-6.375-8.307-10.29-1.46-3.914-.786-8.276 1.347-11.631 2.582-3.915 7.185-6.375 11.901-6.375h1.011c4.266.447 7.859 2.236 10.104 3.579 8.646 5.592 11.452 14.763 6.849 21.921-2.582 3.915-7.073 6.263-12.014 6.263M185.396 37.28c8.416 6.458 12.513 16.702 12.513 29.842 0 6.904-1.218 16.48-7.42 24.387-7.086 9.242-18.713 13.696-34.99 13.696-26.575 0-42.409-14.142-42.409-38.083 0-6.681 1.218-16.258 7.419-24.386 7.086-9.02 18.934-13.697 34.99-13.697 13.288 0 22.7 2.784 29.897 8.24M170.78 67.678c.111-5.234-.996-12.472-14.838-13.14h-1.44c-9.744 0-14.062 3.786-14.173 12.249-.443 8.574 4.097 12.472 14.838 12.917h1.107c9.744 0 14.285-3.786 14.506-12.026M99.248 20.664c2.463 3.521 4.483 8.961 5.105 12.45.751 5.472 1.177 13.705.445 18.666-1.175 6.881-2.704 13.24-5.46 18.908-2.315 4.75-5.306 9.737-9.445 14.596-6.228 7.147-21.51 19.401-36.496 21.464-9.02 1.242-14.447-4.301-16.41-9.32-1.55-4.076-2.368-13.113 6.389-18.321 7.188-4.278 22.689-16.991 26.36-29.362.602-1.798.428-3.061-.262-3.967-.867-1.167-2.629-1.64-5.443-1.538-5.211.145-11.097.527-17.48 1.405-6.383.88-13.402 2.274-20.679 3.848l-.694.096c-1.526.21-3.708.796-5.095.987-11.24 1.547-15.527-7.012-16.175-8.638-2.476-5.664-1.455-13.667 6.33-18.742 12.434-8.288 38.028-12.383 45.52-13.415 12.35-1.7 26.084-2.59 35.71 3.662 3.045 1.583 5.531 4.243 7.78 7.221M574.816 205.173c8.836-5.301 19.928-11.653 30.119-20.512 3.907-3.096 5.813-6.747 5.984-9.038.041-.539-.45-1.254-1.127-1.305-1.218-.09-2.592.078-4.081-.034-7.175-.536-15.527-1.704-20.506-2.483-3.228-.512-5.895-1.254-8.031-1.82-10.889-3.661-11.212-12.087-11.011-14.782.172-2.291 1.763-10.844 13.055-12.574 2.216-.512 4.944-.579 8.233-.875 6.122.052 14.014.1 22.271.718 8.393.628 16.204 1.755 22.265 2.615 3.48.802 6.032 1.265 8.147 2.1 5.815 2.332 12.566 8.529 11.395 18.741-.593 4.292-1.863 8.533-3.684 12.869-2.037 5.403-5.013 10.601-8.79 15.604-1.068 1.545-2.417 3.206-3.756 4.732-.457.643-.111 1.483.4 1.927 3.945 3.683 7.744 7.491 10.47 11.083 8.42 11.2 4.607 18.503 1.492 21.928-2.939 2.898-6.87 4.501-11.202 4.176-2.166-.161-8.393-.628-22.627-14.16-.898-.745-1.91-1.769-2.797-2.648-.376-.435-1.053-.486-1.354-.102-6.84 4.096-12.466 6.521-15.971 7.884-4.203 1.583-12.305 4.364-18.127 3.929-6.903-.516-11.038-5.298-12.475-9.742-1.283-4.703-.092-11.526 7.3-15.715 1.424-.842 2.713-1.694 4.408-2.516M482.074 179.713l-.995-.112c-4.053-.795-7.39-2.965-9.341-4.53-3.803-3.007-6.363-7.106-7.031-11.103-.999-4.034.152-8.274 2.627-11.354 2.98-3.584 7.788-5.505 12.431-4.979l.995.112c4.152.918 7.489 3.088 9.55 4.666 7.888 6.494 9.626 15.878 4.293 22.445-2.98 3.583-7.665 5.406-12.529 4.855M384.11 217.044c-15.81-11.827-12.994-48.664-11.882-64.85.283-3.462.48-6.304.845-8.418 1.927-10.945 9.643-12.156 12.122-12.062 2.341-.143 10.308.722 12.708 11.649.482 1.815.901 4.62 1.372 8.281.674 6.972.885 14.465 1.432 23.412.263 4.291.1 9.714 1.982 12.182 2.006 2.462 5.694 2.113 8.199.605 6.405-4.452 11.802-9.212 15.056-12.61 3.139-3.268 5.777-6.629 9.723-8.839 6.835-3.495 15.721.267 17.31 8.044.366 1.946 1.529 6.796-6.088 17.721-3.064 4.494-10.114 12.554-20.789 19.975-13.904 9.218-32.917 11.736-41.99 4.91M334.126 187.292c1.222-.994 2.444-1.988 3.555-3.202.444-.551.222-1.545-.778-1.545-2.777-.22-5.665-.22-8.442-.22-4.443 0-8.775.22-13.33.441-4.665.441-11.886 1.766-15.218-2.539-1.778-2.318-2.555-5.851-1.445-8.61 2.444-6.403 10.664-7.948 16.33-8.942 6.443-1.324 13.33-2.097 19.772-2.097 7.221 0 14.885.552 20.995 4.636 5.443 3.533 8.442 9.935 7.443 16.337-1 6.624-5.332 12.143-10.22 16.007-3.888 3.091-7.22 4.857-9.442 5.629-1.888.552-3.666.994-5.221.994h-.444c-.555 0-1 .441-1 .993s0 1.104-.111 1.767c-.222 3.311-1.222 11.7-5.888 15.564-1.555 1.104-4.109 2.097-6.887 1.876-3.554-.11-7.997-2.317-8.997-9.934-.444-2.65-.444-5.961-.223-9.493.556-4.305 1.778-17.552 12.108-17.552 1.667 0 3.333.441 4.777 1.215.334.33 1 .22 1.111 0 .667-.552.999-.994 1.555-1.325M289.328 159.027c1.287 3.139 1.891 7.674 1.755 10.463-.383 4.335-1.509 10.734-2.953 14.414-2.126 5.078-4.435 9.69-7.572 13.557-2.634 3.24-5.832 6.541-9.898 9.542-6.089 4.389-20.096 11.101-32.072 10.039-7.208-.64-10.434-5.856-11.067-10.057-.481-3.404.482-10.489 8.188-12.943 6.325-2.015 20.583-9.041 25.614-17.894.784-1.274.873-2.275.498-3.092-.466-1.049-1.747-1.723-3.945-2.143-4.064-.808-8.692-1.555-13.793-2.008-5.101-.452-10.786-.62-16.702-.697l-.555-.05c-1.22-.108-3.014-.042-4.123-.141-8.982-.797-10.791-8.128-11.006-9.491-.917-4.787 1.288-10.753 8.218-13.276 11.098-4.169 31.653-2.794 37.641-2.262 9.869.876 20.667 2.618 27.021 9.12 2.08 1.752 3.536 4.234 4.751 6.919M109.803 173.028c-.155 6.23-1.499 11.546-2.48 15.638-2.36 7.88-5.264 15.583-9.24 22.657-3.985 7.211-7.936 11.929-10.337 14.397-5.256 5.459-9.866 7.635-14.997 7.277-3.744-.26-6.847-1.725-9.319-4.254-3.246-3.416-5.468-9.535-2.047-16.646.354-1.086.837-2.023 1.459-2.951l.038-.552c.641-1.203 1.143-2.417 1.775-3.482 1.952-4.025 4.239-8.858 6.239-13.573 1.775-3.483 3.938-10.544 4.78-14.646.048-.69-.459-1.418-1.152-1.467-1.645-.392-5.092-.909-7.727-1.092l-.277-.02q-.832-.058-1.306.741c-.373 1.361-.737 2.584-1.24 3.798-3.277 9.063-8.06 17.745-12.988 24.475-8.49 11.891-14.697 12.984-19.274 12.666-3.05-.212-5.895-1.381-8.128-3.34-2.362-2.105-7.673-7.884-3.793-17.6a67 67 0 0 1 2.622-5.642c.326-.671.66-1.48.866-2.436 2.091-4.015 4.062-8.316 5.885-12.489.038-.552.058-.827-.19-1.261-.26-.295-.517-.591-.933-.62l-3.883-.27c-9.29-.647-13.918-6.239-14.654-11.699-1.131-5.765 1.596-12.926 9.611-15.974 1.85-.564 3.572-1.277 6.116-1.793 3.673-.715 8.89-1.6 14.624-1.895a3.2 3.2 0 0 0 1.038-.898c.205-.957.55-1.903.885-2.712 3.947-10.682 12.335-11.069 14.83-10.896 3.052.213 7.383 2.04 10.094 5.141 1.171 1.191 2.96 3.535 3.603 8.295.25.434.765 1.024 1.181 1.053 1.942.135 3.883.271 5.666.672 2.903.341 5.519.8 7.976 1.526 9.195 2.027 16.305 5.989 20.091 11.662 1.133 1.743 1.979 3.605 2.576 5.033 1.305 3.281 1.548 5.795 1.987 7.489.024 1.666.167 3.618.023 5.688"/><path fill="#A73D2A" d="M488.18 273.193c.353 2.066.824 5.104 1.059 8.75.589 7.17.825 16.285.825 26.007s-.236 18.837-.825 26.006c-.235 3.646-.706 6.684-1.059 8.751-1.884 10.815-8.947 12.03-11.89 12.03s-9.772-1.215-11.891-12.03c-.353-2.067-.589-5.105-1.059-8.751-.353-7.169-.824-16.284-.824-26.006s.471-18.837.824-26.007c.47-3.646.706-6.684 1.059-8.75 2.119-10.815 8.947-12.031 11.891-12.031 2.943 0 10.006 1.216 11.89 12.031M379.65 353.061c-2.477-1.192-7.857-5.284-4.551-15.081.612-2.187 1.59-4.792 2.951-8.039 2.714-6.381 6.688-14.677 11.02-23.28 4.427-8.373 8.693-16.089 12.388-22.173 4.973-8.22 9.096-14.049 15.974-13.528 7.1.538 10.496 7.27 14.202 15.812 2.423 6.323 5.574 14.823 8.58 23.759 3.101 9.166 5.783 17.966 7.618 24.692.746 3.406 1.544 6.145 1.708 8.391 1.686 10.175-4.36 13.402-6.987 14.208-1.16.582-2.738.798-4.18.688-7.433-.562-10.258-7.475-13.742-16-.188-.461-.625-2.057-1.402-2.116-2.346.046-6.451-.265-10.778-.592-4.327-.328-9.097-.689-10.745-1.036-.665-.051-1.559 1.445-1.815 1.872-4.836 7.895-8.668 14.304-16.212 13.733-1.331-.101-2.637-.535-4.029-1.31m29.067-37.656c-.179.879.112 1.459.539 1.715 1.306.434 7.647.69 9.319.705.794-.163 1.058-.701.903-1.606-.395-2.151-2.075-7.973-3.436-10.643-.393-.7-1.383-.886-1.775-.135-2.232 2.958-4.598 7.691-5.55 9.964M332.435 352.104c-13.127 0-23.31-4.339-30.057-13.017-1.963-2.48-3.189-5.332-4.049-7.935-1.104-4.34-.49-8.555 1.719-11.53 2.085-2.852 5.643-4.464 9.323-4.464 4.048 0 6.257 2.231 9.079 4.836 2.576 2.479 5.152 5.082 10.182 5.951.982.247 2.331.371 3.435.371 4.049 0 6.87-1.735 6.87-4.339 0-3.471-4.294-5.207-9.937-7.439-4.048-1.488-8.465-3.224-12.268-5.827-9.937-7.315-14.722-15.374-14.722-23.68 0-19.714 16.194-30.129 32.265-30.129 12.023 0 23.309 4.96 28.34 12.399 4.539 6.819 2.085 12.646-1.104 15.498-1.718 1.611-4.417 2.479-6.748 2.479-3.19 0-5.889-1.364-8.22-2.603-2.821-1.364-5.643-3.1-9.936-3.1-3.681 0-6.993 2.232-6.993 4.587 0 3.472 5.52 5.951 11.9 8.555 3.925 1.736 8.097 3.472 11.532 5.704 9.323 6.075 13.617 14.381 13.617 25.044 0 13.142-8.833 28.639-34.228 28.639M275.716 342.277c-4.325.347-8.096.65-39.478-31.561-1.225-1.353-2.33-2.604-3.648-3.727-.377-.528-1.136-.244-1.074.533.58 7.212.662 13.795.748 19.038.063 3.569-.176 6.156-.33 8.403-1.23 9.703-7.582 11.219-10.133 11.424-2.773.222-9.285-.259-11.826-9.66-.622-2.184-1.177-4.931-1.887-8.224-.832-6.188-1.971-14.807-2.674-23.574-.731-9.1-.964-17.569-1.148-24.031.177-3.365.286-6.166.578-8.088.535-5.85 3.785-11.249 10.107-11.757 4.546-.366 8.206-.66 39.589 31.551 1.318 1.123 2.423 2.374 3.647 3.728.471.297 1.229.012 1.185-.542-.58-7.213-.799-14.12-.765-19.26-.046-3.347.064-6.148.357-8.07 1.092-10.027 7.555-11.552 10.106-11.757 2.661-.214 9.063.277 11.852 9.993.484 1.859 1.151 4.598 1.528 7.918 1.183 6.383 2.193 14.789 2.923 23.888.704 8.767 1.065 17.449.899 23.717.174 3.559-.064 6.148-.219 8.393-.561 5.518-4.127 11.166-10.337 11.665M127.329 355.053c-2.484-1.175-7.894-5.228-4.657-15.049.596-2.191 1.555-4.803 2.894-8.059 2.668-6.4 6.584-14.724 10.854-23.359 4.367-8.404 8.578-16.15 12.23-22.26 4.914-8.255 8.995-14.113 15.877-13.641 7.104.486 10.548 7.195 14.314 15.71 2.468 6.307 5.679 14.784 8.75 23.698 3.165 9.143 5.909 17.924 7.792 24.636.771 3.401 1.588 6.135 1.768 8.379 1.758 10.164-4.265 13.433-6.886 14.258-1.156.59-2.732.817-4.175.718-7.437-.51-10.311-7.402-13.855-15.902-.192-.46-.64-2.053-1.417-2.106-2.346.063-6.453-.219-10.782-.516-4.329-.296-9.102-.623-10.752-.959-.666-.046-1.55 1.456-1.802 1.884-4.78 7.93-8.566 14.366-16.114 13.849-1.332-.092-2.641-.516-4.039-1.281m28.799-37.863c-.172.881.123 1.459.552 1.711 1.309.425 7.651.637 9.324.64.792-.17 1.052-.709.891-1.613-.411-2.149-2.132-7.958-3.511-10.618-.399-.697-1.39-.877-1.776-.122-2.211 2.973-4.543 7.723-5.48 10.002M109.402 344.193c-2.114 3.406-5.614 5.501-9.591 6.027-3.05.404-8.884 1.177-35.684-15.796-1.131-.394-2.528-.753-2.298.984 2.28 17.231-6.012 21.863-12.244 22.689-3.315.438-11.694.325-15.592-11.798-.848-2.334-1.838-5.737-2.5-9.727-1.857-7.909-3.403-18.577-4.87-29.664s-2.748-21.791-3.013-29.91c-.397-4.025-.326-7.568-.114-10.043.61-12.721 8.672-15.012 11.987-15.451 3.447-.457 11.827-.344 15.857 11.763.583 2.369 1.387 5.388 2.147 9.094.39.9 1.441 1.712 2.246.654 12.428-14.151 26.934-21.781 30.912-22.308 4.375-.579 8.6.764 11.464 4.054 1.856 1.793 7.071 8.578.945 18.36-3.439 5.62-14.79 17.725-25.131 27.25-.725.64-.567 1.842.282 2.137 9.255 5.706 26.358 17.711 32.36 23.304 8.476 7.984 4.313 16.282 2.837 18.381"/><path fill="#CA810C" d="M625.337 8.936c.415-1.453.99-2.567 1.171-2.849.474-.735 1.285-1.223 1.483-1.335 1.343-.761 1.956-1.214 3.092-.923 1.072.274 1.267.599 4.581 2.7 1.515.96 2.933 1.575 5.007 3.682.933.949 2.967 3.034 5.171 6.673 3.108 5.13 4.417 6.768 4.521 8.57.081 1.386.292 2.799-.406 3.822-.73 1.07-3.041 2.813-5.595 3.82-2.572 1.016-5.252 2.592-7.02 2.242-.621-.123-1.407-.35-2.067-.884-.905-.731-4.493-3.396-6.369-8.456-.757-2.044-1.184-4.13-1.669-5.866-.525-1.879-1.022-3.336-1.391-5.719-.53-3.423-.789-4.495-.509-5.477"/><path fill="#7A4C33" d="M632.599 32.734c-.268-.27-1-.727-1.362-1.814-.016-.047-.339-.672-.362-.725-.047-.117.351-.8.362-1.088.072-.25.506-.743 1.363-1.451.237-.197.55-.388.946-.725.31-.264.822-.61 1.679-1.09.779-.435 1.841-1.115 3.262-1.812 1.422-.696 2.314-1.088 3.625-1.45 1.025-.284 1.828-.309 2.174-.363.409-.064 1.376.035 2.175 0 .271-.012 1.202-.08 1.45 0 .915.295 1.305.072 1.64.657.207.363.805 1.463.898 1.814.189.725.214 1.253.189 1.813-.021.48-.189 1.157-.189 1.882s-.514 1.184-.725 1.45c-.232.29 0 0-.363.363-.433.434-.944.867-1.812 1.45-.274.184-.772.54-1.088.725-.548.322-1.225.486-1.45.726-.311.333-1.649.671-2.174.865-.468.173-.744.335-1.45.586-.304.108-.495.26-1.088.45-.671.216-1.316.24-1.45.275-.275.074-.571.253-.897.296-.335.044-.924-.242-1.277-.296-.6-.09-1.027-.337-1.26-.43-.305-.12-.887-.721-1.078-.88-.249-.209-.376-.068-.791-.503-.247-.259-.716-.492-.947-.725"/><path stroke="#E7C3A6" stroke-linecap="round" stroke-width="1.5" d="M634.445 9.72c.074.014.323.122.615.375a40 40 0 0 1 1.26 1.143c.637.603 1.255 1.229 1.8 1.876.183.267.318.459.551.792.16.25.407.667.66 1.096"/><path fill="#CA810C" d="M652.408 14.762c.414-1.453.989-2.567 1.17-2.848.474-.736 1.285-1.223 1.484-1.336 1.342-.761 1.955-1.213 3.092-.923 1.072.274 1.266.599 4.581 2.7 1.514.96 2.932 1.575 5.006 3.682.934.949 2.967 3.034 5.172 6.673 3.107 5.13 4.416 6.769 4.521 8.57.08 1.386.292 2.799-.407 3.822-.731 1.07-3.041 2.813-5.595 3.82-2.572 1.016-5.252 2.592-7.019 2.242-.621-.123-1.408-.35-2.069-.883-.904-.732-4.492-3.397-6.367-8.457-.757-2.044-1.185-4.13-1.67-5.866-.525-1.879-1.023-3.335-1.391-5.718-.53-3.423-.789-4.496-.508-5.478"/><path fill="#7A4C33" d="M659.669 38.558c-.267-.27-1-.727-1.362-1.814-.015-.047-.339-.671-.362-.725-.047-.117.351-.799.362-1.088.072-.25.507-.743 1.363-1.451.237-.197.55-.388.947-.725.309-.263.82-.61 1.678-1.089.779-.436 1.841-1.116 3.262-1.812 1.421-.697 2.314-1.088 3.625-1.451 1.025-.284 1.828-.308 2.175-.363.409-.064 1.375.035 2.175 0 .271-.011 1.202-.08 1.45 0 .914.295 1.304.072 1.639.658.208.362.806 1.462.898 1.813.19.725.214 1.253.19 1.814-.021.48-.19 1.156-.19 1.881s-.514 1.184-.725 1.45c-.231.29 0 0-.363.364-.432.433-.943.866-1.812 1.45-.274.184-.771.539-1.087.724-.549.322-1.226.486-1.45.726-.312.333-1.65.671-2.175.865-.468.173-.744.335-1.45.586-.304.108-.494.26-1.087.451-.672.216-1.318.239-1.45.274-.276.074-.572.253-.898.296-.335.044-.923-.242-1.277-.296-.6-.09-1.027-.337-1.26-.43-.305-.12-.887-.721-1.078-.88-.249-.208-.376-.068-.791-.503-.247-.258-.716-.492-.947-.725"/><path stroke="#E7C3A6" stroke-linecap="round" stroke-width="1.5" d="M661.52 15.545c.073.013.322.121.614.374.192.168.672.587 1.26 1.143a23 23 0 0 1 1.8 1.876c.182.267.319.459.551.792.16.251.406.667.661 1.096"/><path fill="#E9B855" d="M160.153 85.583a52 52 0 0 0 2.805-.329c.477-.18 1.256-.335 1.438-.426s.372-.19.582-.28c.934-.347 1.791-.863 2.879-1.497 1.162-.677 2.522-1.779 3.281-2.382.695-.552 1.693-1.072 3.028-2.896 1.506-2.06 2.656-3.048 3.684-5.896.366-1.014.612-1.794.624-3.562.009-1.392-.035-3.732-.115-5.296s-.164-2.337-.486-3.5c-.749-2.7-1.409-4.977-1.943-6.105-.516-1.092-2.311-2.43-5.296-4.321-.798-.506-2.852-1.573-6.411-2.219-1.685-.306-3.195-.314-4.567-.3-1.319.014-2.476.049-3.674.084l-.146.005c-2.513.074-4.542.05-5.834.13-.908.057-1.441.15-1.966.274-1.67.398-4.632.779-6.39 1.687-.885.457-1.989.993-3.097 2.16-2.116 2.23-2.694 2.886-3.063 3.717-.46 1.035-1.197 2.336-1.927 5.672-.308 1.4-.745 3.285-.807 4.467-.126 2.409-.226 3.547.516 6.466.223.881.743 2.64 1.812 4.963.646 1.405 1.286 2.317 2.088 2.92 1.682 1.263 4.506 2.722 5.433 3.21.89.466 1.918.833 3.434 1.133 1.551.305 3.411.56 5.307.868 2.128.345 3.521.63 4.157.807 1.411.395 3.377.558 4.654.446"/><path fill="#813300" d="M149.866 45.901c1.218-.115 2.805-.198 2.952-.16 1.025.023 4.736-.04 4.992-.01.538.06 1.855.149 3.785.285 1.749.124 3.168.34 4.138.475.543.075 1.09.13 1.663.367 1.044.43 2.687.65 3.442 1.411.623.628 1.739.99 2.546 1.698 1.59 1.395 1.107.99 1.59 1.395.375.315.877.656 1.227 1.184.356.539.907 1.113 1.719 4.05.287 1.036.41 1.496.467 1.832.179 1.064.353 2.465.099 3.297-.173.565-.553 1.617-1.116 1.907-.206.107-.42.163-.619.14a1.53 1.53 0 0 1-.752-.313c-.61-.46-1.042-1.446-1.489-1.248-.353.156-1.927 1.019-3.065 2.78-.68 1.053-1.147 2.277-1.402 3.424-.221.996-.374 1.566-.604 1.732-.663.48-1.157.951-1.766 1.363-.564.38-1.503 1.089-2.038.718-.195-.135-1.173-1.659-1.97-3-.58-.976-1.161-1.774-1.617-2.46-.743-1.112-1.927-2.363-3.156-3.131-.547-.342-.815-.39-1.106-.333-.697.136-2.167.19-2.675.81a8 8 0 0 0-.54.764l-.009.015c-.277.428-.753 1.128-1.254 3.013-.356 1.34-.556 2.253-.614 2.611-.118.723-.082 2.07-1.296 2.76-.749.426-1.708 1.258-3.44.558-1.995-.807-2.968-1.715-3.561-2.566-.58-.834-1.031-2.632-1.284-4.337-.15-1.012-.218-3.1-1.133-3.715-.606-.408-1.566-1.18-2.99-.706-.734.244-1.415.418-1.799.865-.437.51-.763 1.29-1.328 1.318-.617.03-1.099-.007-1.272-.13-.355-.252-.736-.562-.91-.99-.202-.5-.243-1.965-.015-4.423.061-.657.053-1.352.252-2.118.196-.755.464-1.494.938-2.136.66-.894 1.126-1.643 1.392-2.007.363-.498.637-.874 1.112-1.571 1.085-1.592 1.389-2.233 2.909-2.77.705-.25 1.329-.656 2.074-.994.691-.314 2.096-.82 3.129-1.014a51 51 0 0 1 4.394-.64"/><path fill="#08950A" d="M144.877 52.546a7 7 0 0 1 .585-.882c.316.048.125.039.168.048.099.02.238.056.891.162.257.047.586.118.768.156.216.046.4.097.588.218.068.044.07.07.044.15s-.079.21-.174.458c-.095.247-.229.601-.339.87s-.196.447-.48.479c-.285.032-.756-.073-1.081-.165-.509-.144-.822-.208-1.014-.263l-.005-.002c-.101-.029-.175-.05-.21-.116-.05-.091-.094-.194-.067-.267.039-.107.028-.312.326-.846M156.879 57.3c.005.478-.057.91-.061.912-.256.1-.11.024-.146.036-.083.028-.202.06-.738.261-.213.075-.489.163-.642.213-.182.059-.342.1-.535.09-.069-.004-.082-.023-.096-.094-.015-.072-.031-.192-.066-.419s-.087-.548-.119-.797c-.033-.249-.045-.419.154-.565.2-.146.598-.27.881-.341.444-.11.705-.196.873-.238h.004c.088-.022.153-.038.208-.004.076.047.153.105.164.172.016.096.113.246.119.774M158.566 52.824c-.228.42-.495.767-.498.766-.273-.039-.108-.032-.145-.04-.086-.016-.205-.046-.771-.132-.223-.039-.507-.097-.665-.129a1.4 1.4 0 0 1-.51-.183c-.058-.037-.06-.06-.039-.129.022-.07.067-.182.147-.397.08-.214.192-.52.286-.754.092-.233.164-.388.41-.418s.653.056.935.133c.441.12.711.174.878.22h.004c.087.025.152.042.183.099.043.078.082.167.059.23-.033.093-.021.27-.274.734M165.931 51.636a4 4 0 0 1-.363.541c-.194-.03-.076-.024-.103-.03-.061-.012-.146-.035-.548-.102-.158-.03-.36-.074-.473-.099a1 1 0 0 1-.361-.136c-.042-.027-.042-.043-.026-.092.016-.05.049-.13.108-.281.06-.152.142-.37.211-.535s.122-.274.297-.293c.175-.02.465.047.666.104.312.09.505.131.623.166h.003c.062.019.108.032.129.073.03.056.057.12.04.164-.024.066-.018.192-.203.52M174.423 55.246c-.167.296-.36.541-.363.54-.194-.03-.076-.023-.103-.03-.061-.011-.145-.034-.548-.102-.158-.03-.36-.074-.472-.098a1 1 0 0 1-.362-.136c-.042-.027-.042-.043-.026-.093.016-.049.049-.129.108-.28.06-.153.143-.37.211-.535.069-.166.122-.275.298-.294.174-.019.464.047.665.105.313.09.505.13.623.165h.003c.062.019.108.032.13.073.029.056.056.12.039.165-.024.065-.018.192-.203.52M165.939 56.095a4 4 0 0 1-.363.541c-.194-.03-.077-.024-.103-.03-.061-.012-.146-.035-.548-.102-.159-.03-.361-.075-.473-.098a1 1 0 0 1-.361-.136c-.042-.028-.043-.044-.026-.093.016-.05.049-.13.108-.281s.142-.37.211-.535.122-.274.298-.293c.174-.02.464.047.664.104.314.09.506.131.624.166h.003c.062.018.108.032.129.072.03.057.057.12.04.165-.024.066-.018.192-.203.52M142.185 56.943c-.167.297-.36.541-.362.541-.195-.03-.077-.024-.104-.03-.061-.012-.146-.035-.548-.102-.158-.03-.36-.075-.473-.099a1 1 0 0 1-.361-.136c-.042-.027-.043-.043-.027-.092.017-.05.05-.13.109-.282.06-.152.142-.37.211-.534s.122-.275.297-.294c.176-.018.466.047.666.105.313.09.504.13.623.165l.003.001c.062.018.107.032.129.072.03.056.057.12.04.165-.025.065-.018.192-.203.52M151.347 48.797c.328-.093.638-.13.639-.129.116.159.037.071.052.094.035.052.079.128.318.459.091.132.204.306.266.403a1 1 0 0 1 .161.35c.011.049 0 .061-.046.085-.046.023-.126.057-.275.123-.149.067-.361.163-.526.231-.165.07-.28.11-.417 0-.138-.11-.298-.361-.4-.543-.159-.285-.267-.448-.326-.556l-.002-.003c-.031-.057-.055-.098-.041-.142.018-.061.044-.125.087-.146.064-.029.149-.123.51-.226"/><path fill="#ED6222" d="M533.887 175.954c-.305 1.804-.409 2.732-.425 2.901-.017.185.172.782.182.954s.048.332.257.435c.577.151 2.388.658 3.419.048.766-.452 1.62-1.109 3.935-1.115 1.83-.004 5.245.131 7.21.068 2.47-.08 3.634-.268 4.4-.855.29-.222.335-.433.261-.659-.159-.488-1.178-.916-1.468-1.922-.056-.198-.012-.433.281-.511.749-.198 2.12-.16 4.353-1.31.537-.276 1.014-.681.684-1.02-.926-.954-5.205 1.184-6.394-3.113-.168-.606.755-1.459.241-1.647-1.231-.45-3.658.533-3.195-.151.227-.339.603-1.107 1.1-1.649.494-.54 1.158-1.167 1.017-2.215-.095-.708-.376-1.468-1-1.805-.314-.171-.718-.336-1.167-.293-.399.037-1.417.187-3.071 1.045-2.151 1.115-3.636 1.911-4.176 2.429-1.36 1.304-3.62 3.213-4.548 5.111-.657 1.344-1.549 3.215-1.896 5.274"/><path fill="#FFDD6F" d="M467.756 219.288c1.284 2.379 3.695 6.041 5.423 6.945-.08 1.344.155 1.849.389 2.403.461 1.138.735 2.953 1.947 4.816 1.078.246 2.466.774 3.458.137 1.092-.7 2.201-3.902 5.261-4.264 5.295-.626 7.38-.834 13.167-3.537 1.608-.751 1.23-4.285 3.558-4.552 2.914-.334 5.806.097 6.774-.902.826-.852.818-3.609 2.739-3.798 2.678-.264 6.455.885 8.141-1.427 2.105-2.886 3.017-6.705 5.764-8.863.933-.733 3.645-.294 4.532-2.219 1.802-3.91-1.456-14.174 2.129-15.417 1.98-.687 4.539-1.682 5.49-3.874.46-1.063.72-2.257.472-3.129-.812-2.852-2.437-5.692-4.278-6.515-.912-.408-3.233-.809-5.859-.062-1.731.491-2.363 2.274-3.108 1.945-.769-.339-7.387-2.849-10.05.318-.729.866-.569 2.884-2.031 3.81-3.608 2.285-5.717 9.361-7.987 8.029-2.046-1.202-5.806-2.938-8.461-1.064-1.136.802-1.867 2.573-3.329 3.709-.613.475-1.304.322-1.979.513-2.864.813-4.456 3.941-6.659 5-3.218 1.546-8.244 2.297-8.504 3.843-.389 2.32-.268 4.588-1.116 5.285-.824.677-4.398 1.492-5.298 4.612-.888 3.076-1.892 5.839-.585 8.258"/><path fill="#C08C48" d="M156.741 331.909c3.624.273 5.95.451 5.974.453.264-.085 1.458-.278 2.333-.369.876-.092 2.397-.217 3.255-.315 1.949-.41 3.673-.908 4.436-1.354 1.122-.657 2.327-1.605 3.206-2.644.858-1.014 1.946-2.215 2.535-3.646 1.041-2.529 1.705-3.979 1.671-6.499-.033-2.48.065-4.259-.62-5.784-.63-1.402-1.481-2.321-2.131-2.927-.845-.788-2.697-2.428-4.801-3.218-2.022-.759-3.624-1.296-4.176-1.596-.736-.399-1.525-.613-3.638-1.832-1.466-.846-2.495-2.981-3.486-2.569-.895.372-1.995 2.238-2.699 2.804-1.003.805-1.667 1.568-2.636 2.043-.712.348-1.978.906-2.937 1.464a81 81 0 0 1-3.808 2.068c-.872.441-1.656.793-2.335 1.349-1.139.933-2.988 2.312-3.872 4.55-.764 1.937-1.367 2.76-1.276 5.778.073 2.444.276 3.541.652 4.716.346 1.081.421 2.256 1.977 3.359 1.464 1.038 3.784 2.492 6.734 3.204 2.622.633 4.102.849 5.642.965"/><path fill="#FFE9C2" d="M161.079 332.382c.639.04.999.014 1.445.005 0 0 .973.003 1.046.006.072.002 1.046.005 1.121 0 .315-.053.357-.052 1.012-.141.893-.121 1.635-.16 2.037-.258.456-.112.804-.227 1.289-.31.458-.078 1.256-.453 1.964-.61.368-.081 1.464-.303 2.086-.678.413-.249 1.258-.831 1.595-1.149.424-.401.806-.726 1.159-1.3.246-.403.665-1.149.583-1.734-.141-1.013.146-.433-.284-1.302-.325-.655-.946-1.112-1.47-1.493-.365-.265-.827-.619-2.371-1.032-.6-.161-1.389-.343-4.757-.663-3.307-.316-8.931-.751-11.913-.982l-.166-.013c-2.934-.227-3.025-.239-3.101-.237-.136.005-1.159-.071-2.633.082-.721.075-1.057.098-1.43.202-.522.147-1.194.14-2.062.571-.523.26-1.738.904-2.172 1.44-.792.977-1.102 1.577-1.161 2.02-.087.637-.294.867.137 1.736.369.742 1.07 1.07 1.442 1.45.369.377 1.103.79 2.306 1.363.66.315 1.104.594 1.463.748.453.195 1.094.747 2.33.931.905.134 1.5.21 1.672.245.383.078.812.175 1.198.29.308.091.563.166 2.792.334 1.527.115 2.144.189 2.532.183.637-.012 1.775.262 2.311.296"/><path fill="#59671E" d="M197.768 160.782c6.677 1.789 9.682 7.046 8.68 15.21-.779 5.145-2.559 10.626-5.676 16.889-3.561 6.71-8.68 13.309-14.911 19.125-7.679 7.158-17.249 13.086-26.374 15.994-3.672 1.454-8.012 2.572-12.352 2.572-.89 0-1.67 0-2.671-.224-6.343-.782-9.459-5.48-10.238-9.171-.222-2.013-.779-8.5 6.455-12.638 1.78-1.007 3.338-1.566 4.896-2.349 1.446-.671 2.781-1.23 4.006-1.789 3.45-2.013 11.128-5.704 17.583-12.415 7.9-7.941 14.911-20.132 17.471-25.053 3.116-5.816 8.68-6.599 10.794-6.599.779 0 1.78.224 2.337.448"/><path fill="#FFDE22" d="M146.849 168.602c.569.343 1.391 1.301 1.535 1.547q.074.192.137.364c.076.217.145.426.235.7.258.751.554 1.29.786 1.793.25.544.662 1.348.874 2.159.282 1.081.54 1.586.838 2.399.667 1.822.893 2.599 1.238 3.75.175.584.378 1.108.547 2.092.123.711.237 1.543.331 2.214.083.595-.112 1.486.3 1.543.163.024.998-.147 2.156-.997 1.521-1.116 3.652-1.597 4.165-2.073.117-.108.263-.301-.72-1.163-.651-.571-1.166-.323-2.978-3.239-.752-1.208-1.154-2.085-2.011-3.632-.418-.754-1.142-1.748-1.497-2.92-.344-1.137-.766-2.048-1.038-2.65-.434-.961-.456-2.256-.664-2.901-.261-.807-.588-1.095-.336-2.302.299-1.433.689-2.753 1.304-3.579.785-1.053 1.942-2.605 2.827-3.863.799-1.135 1.32-1.964 1.585-2.363.9-1.359 1.404-2.403 2.252-3.102 1.437-1.185 3.731-1.233 3.388-2.33-.081-.261-.437-.81-1.091-1.149-.893-.464-1.679-1.359-2.613-1.73-.633-.251-1.122-.467-1.94-.433-1.73.07-2.446.379-2.925.129-.123-.065-.276-.192-.216-.328.283-.629.509-1.066.338-1.156-.191-.1-.865-.05-1.735-.11l-.04-.003c-.918-.064-1.839-.127-2.598.235-.663.317-1.486.883-1.678.519-.301-.569-.489-1.103-.706-1.412-.131-.187-.315-.422-.668-.256s-.859.715-1.141.943-.344.137-.388.019c-.092-.248.023-1.171-.485-1.429a.44.44 0 0 0-.362-.014c-.967.331-2.434 1.08-3.081 1.774-.52.557-.823 1.068-.786 1.682.078 1.317.209 2.656.452 3.502.251.869.656 2.329.657 3.172 0 1.527.668 2.314.392 2.683-.027.036-.14-.034-.229-.115-.452-.402-1.159-1.218-2.32-2.714a225 225 0 0 1-2.425-3.193c-.824-1.107-1.465-1.995-2.12-2.316-.654-.32-1.303-.08-2.283.467-.979.548-2.267 1.357-2.982 1.882-.916.673-1.216.91-1.309 1.124-.098.223-.184.536-.099.868.184.722 1.377 1.775.71 2.456-.126.128-1.476-1.158-2.121-.292-.493.661-.114 1.65-.648 1.852-.25.093-.87-.14-1.393.154-.257.144-.305.38-.482.609-.45.583-.57 1.085-.997 2.476-.191.625-.323 1.254-.002 1.574.375.37 1.112.648 1.36 1.234.046.107.034.212-.211.233-.244.021-.71-.081-1.006-.043-.749.097-1.412.107-1.619.481-.103.185-.199.396-.182.676.043.726-.006 2.126.427 3.584.554 1.863 1.29 3.677 1.989 4.54.256.315.377.398.761.152a49 49 0 0 1 2.714-1.606c.314-.174 1.152-.604 2.376-1.333 1.323-.788 2.484-1.602 4.257-2.184 1.222-.401 2.929-.874 4.537-.915.821-.021 1.163-.054 1.483-.03.93.073 1.981.291 2.833.556 1.217.379 3.237 1.071 4.341 1.738"/><path fill="#FFF0CA" d="M412.135 315.458a.62.62 0 0 0-.395.359c-.072.159-.092.219-.122.281s-.066.127-.096.207a6 6 0 0 0-.165.921c-.031.29-.04.628-.524 2.292-.195.671-.446 1.524-.636 2.357-.189.832-.337 1.619-.369 2.097-.044.635-.082.999-.051 1.5.044.703.075 1.444.123 1.998.047.555.066.903.199 1.234.124.308.365.778 1.095 1.716.185.238.477.566.938.932.261.206.546.71 1.42.975 1.245.378 2.049.54 2.361.56 1.187.074 1.741-.047 2.042-.3.316-.265.619-.526.759-1.089.364-1.472.457-1.953.341-2.203-.144-.312-.276-.611-.748-.996-.338-.275-.795-.518-1.223-1.194-.213-.337-.348-1.337-.571-2.363-.124-.576-.202-.991-.254-1.223-.153-.678-.181-1.296-.135-1.653.021-.16.267-1.137.525-2.525.12-.65.188-.875.198-1.102.027-.616.011-1.286-.404-1.552-.35-.225-.906-.594-1.786-.806-1.141-.276-2.074-.534-2.522-.423"/><path fill="#E8740F" d="M416.639 317.876c.538.191 1.16.525 1.339.623.071.123.566.438.648.547.174.208 2.822.99 4.6 1.4.857.098 1.803.455 2.457.01.817-.558 1.877-1.397 2.246-2.288.438-1.058 1.124-3.521.69-5.184-.166-.638-.747-2.447-2.163-4.817-.642-1.075-1.246-1.874-2-2.452-1.467-1.126-2.359-1.716-2.732-1.863-.522-.208-1.76-.633-3.474-.917-1.367-.227-2.124-.283-2.749-.378-1.249-.188-2.607-.421-3.543-.395-.848.023-1.893.058-2.756.224-.974.187-1.807.377-2.459.7-.702.347-3.073 2.013-4.267 3.753-.86 1.256-1.708 2.473-2.014 3.521-.356 1.223-.747 2.382-.622 3.515.293 2.634.738 4.085 1.486 4.587.968.65 3.018 1.846 5.055 1.429 1.129-.23 1.644-.416 2.494-.975.627-.413 1.162-.832 3.38-1.565.879-.29 3.023.044 4.384.525"/><path fill="#59671E" d="M669.452 293.622c-.165 1.488-1.468 3.051-4.006 4.651-.255.238-.333.597-.01.772a14.2 14.2 0 0 1 3.594 4.661c1.587 3.636 1.589 7.955.033 12.136-1.556 4.182-4.345 7.35-7.923 9.062-3.208 1.462-7.211 1.631-10.623.36-3.509-1.308-6.427-4.056-7.898-7.261-2.384-5.373-.656-10.764.866-14.404 1.31-3.221 3.52-6.328 6.39-8.968 2.82-2.658 6.246-4.704 9.455-5.722 1.781-.61 4.42-1.288 6.71-.434 2.096.781 3.582 3.051 3.412 5.147m-12.513 21.246c.954-.475 1.791-1.381 2.181-2.73.569-1.228.582-2.607.153-3.542-.398-.868-1.003-1.481-1.977-1.844l-.098-.036c-.78-.291-1.57-.254-2.319-.034-1.148.403-2.088 1.436-2.533 2.931-.261.402-.344.924-.44 1.332-.195 1.865.644 3.339 2.252 3.938l.098.037c.974.363 1.832.296 2.683-.052M607.764 295.907c-2.586-1.255-3.891-3.577-3.406-6.02.456-1.76 1.634-3.113 3.995-4.495 2.145-1.372 4.621-2.255 6.953-3.22 2.979-1.259 6.184-2.58 8.263-4.969 1.126-1.363 1.563-3.022 1.094-4.437-.269-.795-1.033-1.529-1.96-1.713-1.801-.358-3.102 1.341-4.198 2.551-.747 1.068-2.499 3.154-5.484 2.56-1.75-.348-3.144-1.683-3.788-3.292-.354-1.181-.566-2.81 1.059-5.872l.01-.051c1.502-2.717 3.922-4.933 6.623-6.142 2.609-1.28 5.683-1.674 8.617-1.09 2.007.399 3.883 1.194 5.554 2.478 3.517 2.498 5.723 6.745 5.843 11.265.212 4.326-1.358 8.457-4.288 11.63-.984 1.18-2.317 2.238-3.754 3.274-.307.204-.244.692.096.866 1.257.408 2.194.806 2.596.939 2.978 1.438 3.698 4.014 3.324 5.897s-2.003 3.887-5.324 4.178c-3.25.201-6.565-.352-9.91-1.017l-2.265-.45c-3.449-.686-6.723-1.442-9.65-2.87M586.716 262.248c3.836 2.977 6.079 8.072 6.867 15.112.764 6.832-.389 12.412-3.459 16.267-2.429 3.05-5.835 4.846-9.81 5.292-4.079.457-7.797-.541-10.736-2.989-3.848-3.081-6.315-8.308-6.97-15.099-.892-7.029.272-12.505 3.355-16.256 2.326-3.039 5.731-4.836 9.913-5.304 4.078-.457 7.9.529 10.84 2.977m-5.365 24.448c1.042-1.427 1.44-4.406 1.029-8.082-.418-3.726-1.419-6.601-2.687-7.665-.224-.132-.914-.683-2.565-.498-1.756.197-2.203.876-2.392 1.054-1.054 1.324-1.355 4.24-.926 8.07.417 3.727 1.355 6.504 2.791 7.653.402.323 1.073.719 2.468.563 1.341-.151 1.96-.692 2.282-1.095M534.571 314.461c-2.935.09-5.198-1.364-5.886-3.757-.398-1.775.049-3.523 1.56-5.848 1.318-2.215 3.164-4.15 4.842-6.091 2.13-2.503 4.437-5.164 5.225-8.253.396-1.734.026-3.409-1.055-4.447-.614-.579-1.649-.875-2.578-.608-1.806.52-2.204 2.633-2.643 4.217-.186 1.296-.817 3.96-3.809 4.822-1.755.505-3.642-.032-4.972-1.16-.869-.883-1.815-2.23-1.752-5.704l-.015-.049c.112-3.11 1.29-6.202 3.191-8.532 1.782-2.348 4.4-4.128 7.341-4.975 2.013-.58 4.089-.745 6.205-.382 4.358.58 8.332 3.323 10.531 7.278 2.193 3.742 2.675 8.138 1.475 12.317-.35 1.504-1.075 3.062-1.904 4.651-.186.323.098.727.488.723 1.333-.222 2.371-.305 2.798-.374 3.377-.109 5.224 1.843 5.754 3.688.531 1.844-.025 4.38-2.915 6.184-2.867 1.689-6.141 2.74-9.495 3.706l-2.271.654c-3.458.995-6.789 1.847-10.115 1.94"/><path fill="#E54839" d="M615.552 304.932c-15.801-6.839-48.539-4.644-53.082 28.164-1.152-.742-5.975-3.36-16.049-7.905-3.868 5.023-13.826 14.156-17.776 17.54 7.901 2.298 24.69 5.485 36.54 10.623-.246 3.458 1.186 11.364 8.889 15.317-2.14 1.153-8.345 3.211-16.048 2.223-5.432-.741-17.777-4.369-23.209-10.128-6.172-5.93-6.666-8.817-11.11-10.13-.982-.289-2.469.05-2.469 4.2.165 2.059 2.469 7.906 10.37 14.823 7.736 5.271 26.121 14.971 37.775 11.611-1.481 1.812-5.975 6.028-12.098 8.399-4.362.659-13.777 2.668-16.542 5.436-.823.823-1.778 2.816.988 4.199 4.115.494 14.517.346 23.208-4.199-2.88 2.388-10.123 8.229-10.123 10.205 0 1.066 2.716 2.81 5.679 1.653 3.599-1.405 11.455-5.04 16.789-9.388-2.058 4.858-5.629 15.02-3.457 16.799.247.412 2.469.653 4.691-1.729 1.152-1.236 4.642-5.979 9.382-15.07-.083 4.035.297 12.896 2.469 16.058.411.576 1.778 1.384 3.95 0 .655-.417 2.025-2.125 4.197-11.611.988 4.199 3.95 14.158 5.679 16.799 1.234 1.885 3.456.818 3.951-.988.658-3.212 1.876-10.673 1.481-14.823l4.197 6.67c1.317 2.471 4.592 7.411 7.16 7.411 3.456.742 5.925-9.733-3.951-26.928 6.996 1.648 23.702 2.301 32.344-4.446 4.938-3.856 11.851-16.009 8.888-26.681-.548-1.975-3.704-2.64-4.938 1.482-8.641 19.023-10.369 23.964-34.072 19.023 14.814-12.682 41.725-50.814-3.703-74.609"/><path fill="#fff" d="M604.043 383.673c.061-.03.076-.091.076-.138 0-.061-.015-.107-.076-.107l-2.771-1.439a1.585 1.585 0 0 1-.703-2.129c.26-.537.811-.874 1.423-.874.245 0 .49.061.704.169l5.801 2.94c.536.307.873.843.873 1.44 0 .583-.337 1.134-.873 1.394l-5.77 2.972c-.245.137-.49.199-.735.199a1.61 1.61 0 0 1-1.423-.873c-.2-.368-.215-.812-.093-1.21a1.53 1.53 0 0 1 .796-.919zM596.899 376.353c.368.153.689.459.857.857.138.398.138.843-.03 1.21l-4.316 10.216a1.6 1.6 0 0 1-1.455.981c-.214 0-.429-.062-.628-.138a1.5 1.5 0 0 1-.857-.873 1.52 1.52 0 0 1 0-1.21l4.347-10.216a1.6 1.6 0 0 1 1.455-.965c.214 0 .428.046.627.138M584.116 383.428c-.062.015-.077.077-.077.107 0 .047.015.108.077.138l2.771 1.394c.796.414 1.117 1.378.704 2.16a1.59 1.59 0 0 1-1.393.873c-.276 0-.52-.062-.735-.199l-5.802-2.941a1.57 1.57 0 0 1-.872-1.41c0-.612.336-1.148.872-1.423l5.802-2.972c.215-.108.459-.169.735-.169a1.56 1.56 0 0 1 1.393.874c.199.382.214.811.107 1.21a1.52 1.52 0 0 1-.811.919z"/><path fill="#424242" d="M606.023 332.784c1.421.812 3.45-.066 4.532-1.961 1.083-1.895.809-4.09-.612-4.903-1.42-.812-3.449.066-4.532 1.961s-.809 4.09.612 4.903M582.925 324.71c1.421.812 3.45-.066 4.533-1.961 1.082-1.896.808-4.091-.612-4.903-1.421-.812-3.45.065-4.533 1.961-1.082 1.895-.808 4.09.612 4.903"/></svg>