<svg xmlns="http://www.w3.org/2000/svg" width="246" height="64" fill="none"><path stroke="#000" d="M.5.5h245v62.275H.5z"/><path fill="#59671E" d="M21.089 5.266c.14 1.094.22 2.74.086 3.733-.213 1.377-.492 2.65-.995 3.786-.424.952-.97 1.952-1.728 2.928-1.14 1.434-3.938 3.899-6.684 4.324-1.654.257-2.65-.848-3.01-1.85-.286-.813-.439-2.62 1.165-3.67 1.317-.861 4.155-3.418 4.825-5.895.11-.36.077-.613-.05-.793-.159-.233-.482-.326-.998-.303-.955.034-2.034.115-3.204.297-1.17.18-2.456.466-3.79.787l-.127.02c-.28.043-.68.162-.933.202-2.06.32-2.849-1.389-2.968-1.714-.455-1.13-.27-2.732 1.155-3.753C6.111 1.696 10.801.855 12.175.642c2.263-.351 4.78-.541 6.547.7.558.315 1.015.844 1.427 1.438.453.702.825 1.789.94 2.486M38.636 12.12c0 1.374-.225 3.279-1.37 4.851-1.308 1.839-3.454 2.725-6.458 2.725-4.905 0-7.828-2.814-7.828-7.576 0-1.329.225-3.234 1.37-4.85 1.308-1.795 3.495-2.725 6.458-2.725 2.453 0 4.19.554 5.518 1.639 1.553 1.285 2.31 3.323 2.31 5.936M30.89 9.617h-.266c-1.798 0-2.595.753-2.616 2.437-.082 1.705.756 2.48 2.739 2.57h.204c1.799 0 2.637-.754 2.678-2.393.02-1.041-.184-2.48-2.74-2.614M43.491 11.461c-.759-.065-1.415-.412-1.804-.672-.759-.5-1.312-1.237-1.517-1.996-.267-.76-.144-1.605.245-2.256.472-.759 1.313-1.236 2.174-1.236h.184c.78.087 1.435.434 1.846.694 1.578 1.084 2.09 2.863 1.25 4.251a2.57 2.57 0 0 1-2.193 1.215zm11.461-1.973c-.143.997-.471 2.06-1.046 3.275-.656 1.301-1.599 2.581-2.747 3.709-1.415 1.388-3.178 2.538-4.86 3.102-.676.282-1.475.499-2.275.499-.164 0-.307 0-.492-.044-1.169-.151-1.743-1.062-1.886-1.778-.041-.39-.144-1.649 1.189-2.451.328-.196.615-.304.902-.456.267-.13.513-.239.738-.347.636-.39 2.05-1.106 3.24-2.408 1.455-1.54 2.747-3.904 3.218-4.858a2.25 2.25 0 0 1 1.99-1.28c.143 0 .327.043.43.087 1.23.347 1.784 1.366 1.599 2.95M58.33 16.138a93 93 0 0 1-.626-5.659 93 93 0 0 1-.282-5.638c.009-.8.053-1.468.087-1.95C57.753.446 59.187.07 59.817.01c.606-.058 2.127.036 2.732 2.4.135.465.26 1.118.373 1.905.097.603.197 1.232.278 1.942.01.132.116.228.237.217.657-.036 1.34-.048 1.973-.055 1.344.005 2.594.072 3.559.22.567.078 1.04.193 1.39.293 1.857.62 1.984 2.205 2.022 2.68-.022.64-.234 2.256-2.338 2.803-.478.125-1.104.238-1.831.307-.824.078-1.749.113-2.748.129-.514-.004-1.007-.064-1.471-.073-.122.012-.258.131-.248.263.053.953.074 1.829.085 2.573.015.796-.005 1.463-.063 1.947-.22 2.442-1.703 2.822-2.308 2.88-.63.06-2.103-.039-2.732-2.4a31 31 0 0 1-.397-1.903zM79.728 19.955c-1.56-.24-3.003-.556-4.112-.797-.578-.183-1.057-.304-1.407-.428-1.922-.766-1.871-2.334-1.809-2.818.056-.439.402-1.961 2.444-2.118a9 9 0 0 1 1.457.036c.428.02.919.047 1.425.126.132-.027.204-.086.219-.202.023-.514.085-.998.154-1.528.067-.53.136-1.061.24-1.539.015-.115-.037-.217-.163-.237-.292-.068-.545-.107-.771-.189-.494-.17-.913-.258-1.233-.448-1.386-.59-1.768-1.8-1.652-2.7.118-.923.794-1.995 2.275-2.144.352-.063.78-.044 1.295-.036.981.057 2.213.176 3.52.377 1.35.207 2.564.465 3.522.706.497.147.912.258 1.235.425 1.386.59 1.765 1.824 1.647 2.746-.116.9-.788 1.949-2.27 2.098-.354.086-.779.044-1.297.059-.238.01-.49-.028-.79-.05-.125-.02-.2.062-.215.178-.02.49-.089 1.021-.157 1.552-.068.53-.13 1.014-.237 1.515-.015.116.04.194.16.26.506.078.985.199 1.4.31.588.114 1.06.28 1.41.405 1.923.766 1.872 2.334 1.816 2.772-.062.484-.409 2.007-2.45 2.163-.367.014-.858-.014-1.46-.013-1.127-.102-2.593-.233-4.196-.48zM92.974 10.043c-.776-.07-1.448-.444-1.846-.725-.777-.537-1.343-1.331-1.553-2.149-.273-.817-.147-1.728.252-2.43.482-.817 1.343-1.33 2.224-1.33h.189c.797.093 1.468.466 1.888.747 1.615 1.168 2.14 3.083 1.28 4.578-.483.818-1.322 1.309-2.245 1.309zM104.7 7.917c-.146 1.074-.482 2.219-1.07 3.527-.671 1.402-1.636 2.78-2.811 3.995-1.447 1.495-3.252 2.733-4.972 3.34-.692.304-1.51.537-2.329.537-.168 0-.314 0-.503-.046-1.196-.164-1.784-1.145-1.93-1.916-.042-.42-.147-1.775 1.216-2.64.336-.21.63-.327.924-.49.272-.14.524-.257.755-.374.65-.42 2.098-1.191 3.315-2.593 1.49-1.658 2.811-4.205 3.293-5.232.588-1.215 1.637-1.379 2.035-1.379.147 0 .336.047.441.094 1.259.373 1.825 1.471 1.636 3.177M108.305 18.103a96 96 0 0 1-.905-5.744 96 96 0 0 1-.557-5.744 33 33 0 0 1-.007-1.997c.127-2.51 1.555-2.978 2.187-3.076.608-.095 2.146-.087 2.87 2.292.159.468.317 1.128.468 1.925.127.61.258 1.247.374 1.968.017.134.128.226.25.207a52 52 0 0 1 1.986-.171c1.354-.074 2.618-.078 3.597.016.576.048 1.059.137 1.416.219 1.902.526 2.106 2.136 2.144 2.623.033.652-.102 2.315-2.197 2.996-.525.163-1.102.307-1.831.42-.316.05-.559.087-.858.079-.559.087-1.173.127-1.736.188-.566.033-1.097-.05-1.656.037-.122.02-.254.15-.237.284.099.97.163 1.863.21 2.622.054.813.067 1.495.031 1.993-.103 2.507-1.579 2.983-2.187 3.077-.632.098-2.121.082-2.87-2.292a32 32 0 0 1-.492-1.922M145.262 13.504c-.46 1.583-1.019 3.128-1.774 4.543-.756 1.443-1.497 2.381-1.946 2.872-.984 1.084-1.838 1.507-2.78 1.417a2.48 2.48 0 0 1-1.697-.892c-.585-.701-.972-1.945-.32-3.37.068-.217.16-.405.278-.59l.009-.111c.121-.241.218-.484.337-.697.372-.806.809-1.774 1.192-2.72.337-.697.758-2.115.927-2.94.011-.14-.08-.289-.207-.3a10 10 0 0 0-1.415-.248l-.051-.005q-.153-.015-.242.145c-.073.273-.144.519-.241.762a21 21 0 0 1-2.468 4.898c-1.599 2.372-2.743 2.57-3.582 2.49a2.42 2.42 0 0 1-1.482-.702c-.427-.434-1.383-1.62-.637-3.568.128-.325.286-.702.5-1.13.062-.135.126-.297.167-.49.398-.803.774-1.665 1.123-2.5.009-.112.014-.168-.031-.256-.046-.06-.093-.121-.169-.128l-.712-.069c-1.705-.163-2.536-1.309-2.653-2.414-.188-1.168.337-2.605 1.819-3.192.342-.108.661-.245 1.13-.34a17.7 17.7 0 0 1 2.692-.332.6.6 0 0 0 .194-.178c.041-.192.107-.382.171-.544.761-2.144 2.303-2.193 2.761-2.149.56.054 1.349.438 1.837 1.074.211.244.531.724.634 1.688.044.088.137.209.213.216.357.035.713.069 1.039.156.532.08 1.011.18 1.46.336 1.682.442 2.975 1.267 3.651 2.426.202.356.351.735.456 1.025.229.667.265 1.176.34 1.52-.001.336.019.73-.015 1.148-.049 1.258-.314 2.327-.508 3.15zM162.789 11.157c-.161 1.036-.508 2.136-1.105 3.39-.68 1.342-1.649 2.657-2.82 3.81-1.444 1.418-3.234 2.58-4.932 3.136-.684.28-1.49.49-2.293.476a2 2 0 0 1-.494-.055c-1.171-.18-1.733-1.14-1.865-1.888-.034-.408-.116-1.72 1.235-2.53.333-.197.623-.304.914-.457.27-.13.518-.238.747-.347.645-.394 2.077-1.112 3.293-2.445 1.487-1.575 2.823-4.012 3.313-4.997.595-1.164 1.627-1.302 2.018-1.295.145.003.329.052.431.099 1.23.385 1.769 1.457 1.558 3.102M178.827 10.012c-.097.874-.345 2.162-.634 2.897-.423 1.012-.878 1.93-1.48 2.691a10.4 10.4 0 0 1-1.885 1.863c-1.15.846-3.776 2.108-5.978 1.811-1.326-.179-1.889-1.257-1.98-2.111-.067-.692.154-2.12 1.591-2.563 1.179-.365 3.853-1.688 4.835-3.446.153-.252.175-.454.111-.622-.079-.216-.311-.361-.714-.461a22 22 0 0 0-2.532-.501c-.938-.127-1.986-.2-3.077-.256l-.102-.014c-.224-.03-.555-.03-.759-.057-1.652-.223-1.941-1.72-1.972-1.997-.14-.975.304-2.167 1.598-2.63 2.073-.768 5.856-.348 6.958-.2 1.815.246 3.796.673 4.928 2.032.373.37.626.882.833 1.434.218.644.302 1.566.26 2.13zM186.75 13.404c.209-.188.417-.377.607-.608.076-.104.038-.293-.133-.293-.474-.042-.967-.042-1.44-.042-.759 0-1.498.042-2.275.084-.796.084-2.028.335-2.597-.482-.303-.44-.435-1.111-.246-1.635.417-1.216 1.82-1.51 2.786-1.698 1.1-.251 2.275-.398 3.374-.398 1.232 0 2.54.105 3.582.88.929.671 1.441 1.887 1.27 3.102-.17 1.258-.91 2.306-1.744 3.04-.663.586-1.232.922-1.611 1.068-.322.105-.625.19-.89.19h-.076c-.095 0-.171.083-.171.188 0 .104 0 .21-.019.335-.038.629-.208 2.222-1.004 2.955-.266.21-.702.399-1.175.357-.607-.021-1.365-.44-1.536-1.887-.076-.503-.076-1.131-.038-1.802.095-.818.304-3.333 2.066-3.333.285 0 .569.084.815.23.057.064.171.043.19 0 .114-.104.17-.188.265-.25M193.875 6.067c.035-.695.057-1.265.113-1.69.298-2.201 1.698-2.483 2.15-2.477.426-.04 1.881.092 2.371 2.267.096.361.186.92.29 1.651.157 1.393.232 2.892.374 4.68.069.858.066 1.945.42 2.429.378.482 1.047.393 1.497.08 1.145-.925 2.104-1.906 2.681-2.603.556-.67 1.02-1.357 1.728-1.82 1.228-.735 2.865-.027 3.192 1.522.076.388.311 1.353-1.023 3.58-.537.915-1.781 2.565-3.69 4.105-2.488 1.917-5.939 2.519-7.624 1.199-2.937-2.287-2.603-9.677-2.479-12.923M213.978 11.348c-.72-.11-1.329-.507-1.688-.799-.699-.559-1.192-1.353-1.352-2.15a3 3 0 0 1 .341-2.318c.486-.758 1.309-1.203 2.13-1.153l.176.01c.738.135 1.347.531 1.725.824 1.454 1.211 1.858 3.08.992 4.467-.485.757-1.289 1.181-2.148 1.13zM235.468 11.41c.732-.637 1.088-1.386 1.118-1.855.007-.11-.086-.256-.213-.266-.229-.017-.488.02-.768-.002-1.35-.103-2.923-.332-3.861-.486-.607-.102-1.11-.25-1.512-.364-2.052-.737-2.12-2.461-2.084-3.013.03-.468.322-2.22 2.445-2.586.417-.107.93-.124 1.549-.188 1.152.005 2.637.006 4.191.124 1.58.12 3.05.342 4.191.51.656.161 1.136.253 1.535.422 1.096.471 2.371 1.732 2.16 3.822-.108.879-.344 1.748-.683 2.636-.378 1.108-.934 2.175-1.64 3.202-.2.318-.452.659-.703.972-.085.132-.02.303.077.394.745.749 1.463 1.524 1.979 2.256 1.594 2.282.882 3.78.299 4.485-.55.596-1.288.928-2.104.866-.408-.031-1.58-.12-4.269-2.873-.17-.152-.361-.36-.529-.539-.071-.088-.198-.098-.255-.02a19.3 19.3 0 0 1-2.998 1.63c-.789.33-2.312.907-3.407.824-1.3-.099-2.082-1.073-2.356-1.98-.245-.96-.027-2.358 1.36-3.223.267-.174.509-.35.828-.52 1.658-1.093 3.739-2.404 5.65-4.228"/><path fill="#A73D2A" d="M21.155 56.667c-.802.082-2.336.237-9.184-4.857-.292-.123-.654-.24-.611.254.43 4.9-1.785 6.121-3.424 6.288-.872.088-3.063-.034-3.966-3.508-.199-.67-.425-1.643-.56-2.78-.409-2.258-.71-5.294-.986-8.447-.276-3.154-.507-6.197-.498-8.497a17 17 0 0 1 .068-2.844c.283-3.593 2.415-4.154 3.287-4.243.906-.091 3.098.031 4.035 3.5.13.678.31 1.54.474 2.597.092.26.36.5.58.21 3.39-3.87 7.26-5.872 8.307-5.978 1.15-.116 2.243.31 2.96 1.272.468.527 1.767 2.504.069 5.206-.954 1.553-4.042 4.856-6.841 7.44-.196.172-.166.514.053.607 2.366 1.715 6.725 5.298 8.241 6.946 2.14 2.352.97 4.655.564 5.233a3.39 3.39 0 0 1-2.568 1.601M26.383 51.007c.135-.622.362-1.366.68-2.295.638-1.827 1.58-4.207 2.614-6.677 1.059-2.406 2.084-4.626 2.977-6.38 1.202-2.369 2.209-4.056 3.992-3.985 1.841.073 2.787 1.93 3.832 4.295a186 186 0 0 1 2.459 6.594 135 135 0 0 1 2.22 6.868c.227.95.46 1.714.526 2.344.539 2.846-.992 3.822-1.662 4.078-.294.177-.7.255-1.074.24-1.927-.076-2.727-1.991-3.714-4.353-.053-.127-.183-.572-.384-.58-.606.038-1.67-.003-2.792-.048-1.122-.044-2.359-.093-2.788-.173-.173-.007-.389.424-.45.547-1.171 2.277-2.097 4.124-4.052 4.046-.345-.013-.688-.12-1.055-.324-.653-.308-2.085-1.4-1.33-4.196M35 44.757c.342.107 1.983.11 2.416.095.204-.054.266-.209.217-.462-.124-.6-.617-2.222-.996-2.958-.109-.193-.366-.235-.46-.019-.547.858-1.11 2.217-1.334 2.867-.037.25.044.41.157.477M55.412 44.482c-.32-.38-.608-.73-.95-1.044-.099-.147-.295-.066-.277.153.163 2.03.196 3.886.228 5.362.023 1.006-.034 1.736-.07 2.369-.3 2.737-1.94 3.176-2.6 3.239-.717.069-2.403-.054-3.077-2.698-.165-.614-.314-1.387-.504-2.313-.227-1.742-.537-4.169-.735-6.637-.206-2.563-.282-4.949-.341-6.769.04-.948.063-1.738.135-2.28.127-1.65.958-3.177 2.593-3.333 1.175-.112 2.121-.202 10.3 8.81.342.315.63.665.95 1.044.122.083.318 0 .305-.155a71 71 0 0 1-.233-5.425c-.018-.944.005-1.733.077-2.275.265-2.828 1.934-3.27 2.593-3.333.689-.065 2.346.06 3.085 2.792.128.523.306 1.293.41 2.228.317 1.796.594 4.162.8 6.725.198 2.469.308 4.914.276 6.68.052 1.003-.005 1.733-.041 2.366-.136 1.556-1.047 3.154-2.653 3.307-1.118.107-2.093.2-10.271-8.813M73.021 53.918c-.496-.676-.805-1.453-1.022-2.161-.279-1.182-.124-2.33.433-3.142.527-.776 1.426-1.215 2.356-1.215 1.022 0 1.58.608 2.293 1.316.65.676 1.301 1.385 2.572 1.622.248.067.588.101.868.101 1.022 0 1.735-.473 1.735-1.182 0-.946-1.084-1.418-2.51-2.026-1.023-.406-2.138-.879-3.099-1.588-2.51-1.992-3.719-4.187-3.719-6.45 0-5.37 4.09-8.207 8.15-8.207 3.038 0 5.888 1.351 7.16 3.378 1.146 1.857.526 3.444-.28 4.221-.433.44-1.115.676-1.704.676-.806 0-1.487-.372-2.076-.71-.713-.372-1.426-.844-2.51-.844-.93 0-1.767.608-1.767 1.25 0 .945 1.395 1.62 3.006 2.33.992.472 2.046.945 2.913 1.553 2.355 1.655 3.44 3.918 3.44 6.822 0 3.58-2.231 7.802-8.646 7.802-3.315 0-5.888-1.182-7.592-3.546M91.603 52.366c.153-.617.4-1.354.746-2.272.688-1.804 1.698-4.151 2.8-6.586 1.127-2.37 2.214-4.553 3.157-6.277 1.268-2.328 2.322-3.979 4.103-3.849 1.837.135 2.731 2.024 3.708 4.422.64 1.776 1.474 4.164 2.271 6.674a136 136 0 0 1 2.024 6.94c.2.957.412 1.727.46 2.359.458 2.863-1.099 3.787-1.777 4.02-.299.167-.707.23-1.08.204-1.924-.142-2.67-2.082-3.59-4.476-.05-.13-.166-.578-.367-.593-.607.018-1.67-.06-2.79-.142s-2.355-.172-2.781-.266c-.173-.013-.401.41-.466.532-1.234 2.236-2.211 4.05-4.164 3.907-.345-.025-.684-.144-1.046-.36-.643-.33-2.044-1.47-1.21-4.238zm8.791-5.958c.338.12 1.98.177 2.412.177.205-.048.272-.2.23-.455-.107-.605-.554-2.241-.912-2.99-.103-.196-.36-.247-.459-.034-.571.839-1.173 2.178-1.415 2.82-.044.248.032.411.143.482zM121.234 35.1c.156 2.005.219 4.554.219 7.272s-.063 5.267-.219 7.272a25 25 0 0 1-.28 2.447c-.499 3.024-2.37 3.364-3.15 3.364s-2.588-.34-3.149-3.364c-.093-.578-.156-1.427-.28-2.447-.094-2.005-.219-4.553-.219-7.272 0-2.718.125-5.267.219-7.272.124-1.02.187-1.87.28-2.447.561-3.024 2.37-3.364 3.149-3.364.78 0 2.651.34 3.15 3.364.093.578.218 1.428.28 2.447"/><path fill="#ED6222" d="M223.846 10.392c-.057.37-.077.561-.08.596-.003.038.032.16.034.196.002.035.009.068.049.09.108.03.45.134.644.01.145-.094.305-.229.742-.23.345 0 .989.027 1.359.014.465-.016.685-.055.83-.176.054-.045.063-.088.049-.135-.03-.1-.222-.188-.277-.394-.011-.041-.002-.09.053-.105.141-.041.4-.033.821-.27.101-.056.191-.14.129-.209-.175-.196-.982.243-1.205-.639-.032-.124.142-.3.045-.338-.232-.093-.69.11-.603-.032.043-.069.114-.227.208-.338s.218-.24.191-.455c-.017-.145-.071-.301-.188-.37a.36.36 0 0 0-.22-.06c-.075.007-.267.038-.579.214-.406.229-.686.392-.787.498-.257.268-.683.66-.858 1.05-.124.276-.292.66-.357 1.083"/><path fill="#F8C10B" d="M211.38 19.29c.242.488.697 1.24 1.023 1.425-.015.276.029.38.073.493.087.234.139.606.367.989.203.05.465.159.652.028.206-.143.415-.801.992-.875.998-.129 1.391-.171 2.482-.727.303-.154.232-.88.671-.934.549-.069 1.094.02 1.276-.185.156-.175.155-.742.517-.78.505-.054 1.216.181 1.534-.293.397-.593.569-1.377 1.087-1.82.176-.15.687-.06.854-.456.34-.803-.274-2.91.402-3.166.373-.14.856-.345 1.035-.795.087-.218.135-.463.089-.642-.153-.586-.459-1.169-.807-1.338-.172-.084-.609-.166-1.104-.013-.327.101-.446.467-.586.4-.145-.07-1.393-.585-1.895.065-.137.178-.107.592-.383.782-.68.47-1.077 1.922-1.505 1.649-.386-.247-1.095-.604-1.595-.219-.215.165-.352.528-.628.762-.116.098-.246.066-.373.105-.54.167-.84.809-1.256 1.027-.606.317-1.554.471-1.603.789-.073.476-.05.942-.21 1.085-.155.139-.829.306-.999.947-.167.631-.356 1.199-.11 1.695z"/><path fill="#F5D000" d="M152.304 9.993c.105.07.258.264.285.313q.014.038.025.074c.015.044.027.086.044.142.048.152.103.26.146.362.047.11.123.273.162.437.053.219.101.321.156.485.124.369.166.526.23.759.032.118.07.224.101.423.023.144.044.312.062.448.015.12-.021.3.056.312.03.005.185-.03.4-.202.283-.226.678-.323.773-.42.022-.021.049-.06-.133-.235-.121-.115-.217-.065-.553-.655-.14-.244-.215-.422-.374-.735-.077-.152-.212-.353-.278-.59-.064-.23-.142-.415-.193-.536-.081-.195-.084-.457-.123-.587-.048-.164-.109-.222-.062-.466.055-.29.128-.557.242-.724.146-.213.36-.527.525-.781.148-.23.245-.397.294-.478.167-.275.261-.486.419-.628.266-.24.693-.25.629-.471a.45.45 0 0 0-.202-.233c-.166-.094-.312-.275-.486-.35-.118-.05-.208-.094-.36-.087-.322.014-.454.077-.543.026-.024-.013-.052-.039-.04-.066.052-.127.094-.216.062-.234-.036-.02-.161-.01-.322-.022h-.008c-.17-.014-.341-.027-.482.047-.123.064-.276.178-.312.105-.056-.116-.09-.224-.131-.286-.024-.038-.058-.085-.124-.052-.065.034-.159.145-.212.19-.052.047-.063.029-.071.005-.018-.05.004-.237-.09-.29-.017-.009-.038-.013-.068-.002-.179.067-.452.219-.572.359-.097.112-.153.215-.146.34.015.267.039.537.084.708.047.176.122.472.122.642 0 .309.124.468.073.543-.005.007-.026-.007-.042-.023-.084-.082-.216-.246-.432-.55-.113-.158-.297-.421-.45-.645s-.272-.404-.394-.469c-.121-.064-.242-.016-.424.095a6 6 0 0 0-.554.38c-.17.137-.225.184-.243.228a.3.3 0 0 0-.018.176c.034.145.255.359.132.496-.024.026-.274-.234-.395-.059-.091.134-.021.334-.12.375-.046.02-.161-.028-.258.031-.048.03-.057.077-.09.123-.084.118-.106.22-.185.501-.036.126-.06.254 0 .318.069.075.206.132.252.25.009.022.007.043-.039.047-.045.005-.132-.016-.187-.008-.139.02-.262.022-.3.097a.26.26 0 0 0-.034.137c.008.147-.001.43.079.725.103.377.24.744.369.918.048.064.07.08.141.031.2-.14.399-.261.505-.325.058-.035.214-.122.441-.27.246-.159.461-.324.791-.441.226-.082.544-.177.842-.186.153-.004.216-.01.276-.006.172.015.368.06.526.113.226.077.601.217.806.352"/><path fill="#CA810C" d="M117.242 1.789c.07-.266.167-.47.197-.522a.8.8 0 0 1 .249-.244c.226-.14.329-.222.52-.169.18.05.213.11.769.494.255.176.493.288.841.674.157.174.499.555.869 1.221.522.939.742 1.239.76 1.568.013.254.049.513-.069.7-.122.195-.511.514-.94.699-.432.185-.882.474-1.179.41a.76.76 0 0 1-.347-.162c-.152-.134-.755-.621-1.07-1.547-.128-.374-.199-.756-.281-1.074-.088-.343-.172-.61-.234-1.046-.089-.626-.132-.823-.085-1.002"/><path fill="#7A4C33" d="M118.462 6.143c-.045-.05-.168-.133-.229-.332-.002-.009-.057-.123-.06-.133-.008-.021.059-.146.06-.199.012-.045.085-.136.229-.265.04-.037.093-.072.159-.133.052-.048.138-.112.282-.2.131-.08.309-.204.548-.331s.389-.2.609-.266c.172-.052.307-.056.366-.066.068-.012.231.006.365 0 .046-.002.202-.015.244 0 .153.054.219.013.275.12.035.067.135.268.151.332.032.133.036.23.032.332-.003.088-.032.212-.032.344s-.086.217-.121.265c-.039.053 0 0-.061.067-.073.079-.159.158-.305.265-.046.034-.129.098-.182.133-.092.059-.206.088-.244.132-.052.061-.277.123-.365.159-.079.031-.125.06-.244.107-.051.02-.083.048-.182.082-.113.04-.222.044-.244.05-.046.014-.096.047-.151.055-.056.008-.155-.045-.215-.054-.1-.017-.172-.062-.211-.079-.051-.022-.149-.132-.181-.161-.042-.038-.063-.013-.133-.092-.042-.048-.121-.09-.159-.133z"/><path fill="#E7C3A6" d="M119.597 2.925a.03.03 0 0 1-.023-.014l-.004-.007-.106-.192-.035-.054-.057-.09a4 4 0 0 0-.299-.34c-.088-.09-.164-.162-.211-.208a.3.3 0 0 0-.091-.062c-.014-.003-.023-.017-.021-.033.003-.015.016-.025.03-.022a.3.3 0 0 1 .116.075c.048.045.124.118.212.21.123.126.222.239.305.345l.058.092.035.055c.027.046.067.118.109.195l.004.007c.007.014.003.031-.009.039z"/><path fill="#FFF0CA" d="M101.106 45.91c-.066.017-.096.093-.095.093l-.029.074q-.012.023-.023.055a2 2 0 0 0-.04.241c-.008.076-.01.165-.126.602-.047.176-.108.4-.154.618a5 5 0 0 0-.089.55c-.011.167-.02.263-.012.394.011.185.018.38.03.525.011.145.016.237.048.323.029.081.088.205.264.45.044.063.114.15.226.245.063.054.131.186.342.256.3.1.494.142.569.147.286.02.42-.012.492-.078a.5.5 0 0 0 .183-.286c.088-.386.11-.513.082-.578-.034-.082-.066-.16-.18-.262-.082-.072-.192-.136-.295-.313-.051-.088-.083-.35-.137-.62q-.044-.228-.061-.32a1.5 1.5 0 0 1-.033-.435c.005-.042.065-.298.127-.663.029-.17.045-.23.048-.289.006-.161.002-.338-.097-.407-.085-.06-.219-.156-.431-.212-.275-.072-.5-.14-.608-.11z"/><path fill="#E8740F" d="M102.19 46.545c.13.05.28.137.323.163.017.032.136.115.156.144.042.054.68.26 1.109.367.206.026.434.12.592.003.197-.147.452-.367.541-.601.106-.278.271-.924.166-1.36-.04-.168-.18-.643-.521-1.264-.155-.283-.3-.492-.482-.644-.353-.295-.568-.45-.658-.49a4 4 0 0 0-.837-.24c-.33-.06-.512-.074-.663-.099-.301-.05-.629-.11-.854-.104a4 4 0 0 0-.664.06c-.235.049-.435.098-.592.183-.17.091-.741.529-1.028.985-.208.33-.412.65-.486.925-.086.32-.18.625-.15.922.071.692.178 1.073.358 1.205.234.17.728.484 1.219.375.272-.06.396-.11.601-.256.151-.109.28-.219.814-.41.212-.077.729.01 1.057.137z"/><path fill="#C08C48" d="m34.948 48.088 1.436.118c.064-.022.35-.072.562-.097.21-.023.576-.056.782-.082.469-.108.884-.238 1.067-.355.27-.172.56-.42.772-.693.206-.265.468-.58.61-.955.25-.662.409-1.042.401-1.703-.008-.65.016-1.115-.149-1.515a2.3 2.3 0 0 0-.513-.767c-.203-.207-.648-.636-1.154-.843-.487-.199-.872-.34-1.005-.418-.177-.105-.367-.16-.875-.48-.352-.222-.6-.781-.838-.673-.216.097-.48.587-.65.735-.24.21-.4.41-.634.534-.17.091-.475.238-.706.384-.359.228-.742.446-.916.542-.21.116-.398.208-.562.354-.274.244-.718.606-.93 1.192-.185.507-.33.723-.308 1.513.018.64.066.928.157 1.236.083.282.101.59.475.88.352.271.91.652 1.62.839.63.165.987.222 1.357.252z"/><path fill="#FFE9C2" d="M35.99 48.21c.154.01.24.004.347.001l.252.002h.27c.075-.014.085-.014.243-.037.215-.032.393-.043.49-.068.11-.03.193-.06.31-.081.11-.02.302-.119.472-.16.089-.022.352-.08.502-.178.1-.065.303-.218.384-.301.102-.105.194-.19.279-.341.059-.106.16-.3.14-.454-.034-.265.035-.114-.069-.342-.078-.171-.227-.29-.353-.39-.088-.07-.2-.163-.57-.271-.145-.042-.335-.09-1.145-.174-.795-.082-2.148-.196-2.865-.257l-.04-.003c-.706-.06-.728-.063-.746-.062-.033 0-.279-.019-.633.021-.174.02-.255.026-.344.053-.126.039-.288.037-.496.15-.126.068-.418.236-.523.377-.19.256-.264.413-.279.529-.02.166-.07.227.033.454.089.195.257.281.347.38.089.1.265.208.555.358.158.082.265.155.352.196.109.05.263.195.56.243.218.036.36.055.402.065.092.02.195.046.288.075.074.024.136.044.672.088.367.03.516.05.609.048.153-.003.427.069.556.078z"/><path fill="#E9B855" d="M31.524 16.04c.21-.021.445-.055.477-.062.082-.033.214-.062.245-.079q.046-.026.099-.051c.16-.065.305-.16.49-.279.198-.125.43-.33.56-.441.117-.102.287-.199.515-.537.256-.382.452-.565.627-1.093.063-.188.104-.333.106-.66a22 22 0 0 0-.02-.983 2.8 2.8 0 0 0-.082-.649c-.128-.5-.24-.923-.331-1.132-.088-.203-.394-.45-.902-.801-.136-.094-.485-.292-1.091-.412a3.7 3.7 0 0 0-.778-.056c-.224.003-.422.01-.625.016h-.025c-.428.015-.773.01-.993.025-.155.01-.246.027-.335.05-.284.075-.788.145-1.088.314-.15.084-.339.184-.527.4-.36.414-.459.536-.522.69-.078.191-.204.432-.328 1.05-.052.26-.127.61-.137.83-.022.446-.039.657.088 1.198.038.164.126.49.308.92.11.261.219.43.356.542.286.234.767.505.924.595.152.087.327.155.585.21.264.057.58.104.903.162.363.063.6.116.708.15.24.072.575.103.793.082"/><path fill="#813300" d="M29.772 8.682c.208-.022.478-.037.503-.03.174.004.806-.007.85-.002.091.011.315.028.644.053.298.023.54.063.705.088.092.014.185.024.283.068.178.08.458.12.586.262.106.116.296.183.434.314.27.26.188.184.27.26.064.058.15.12.21.219.06.1.154.206.292.751.049.192.07.278.08.34.03.197.06.457.016.611-.029.105-.094.3-.19.354a.17.17 0 0 1-.105.026.25.25 0 0 1-.128-.059c-.104-.085-.178-.268-.254-.231-.06.029-.328.19-.522.516a2.1 2.1 0 0 0-.238.635c-.038.184-.064.29-.103.32-.113.09-.197.177-.301.253-.096.071-.256.202-.347.133-.033-.024-.2-.307-.335-.556-.1-.18-.198-.329-.276-.456a2 2 0 0 0-.537-.58c-.093-.064-.139-.073-.188-.062-.119.025-.37.035-.456.15-.037.049-.067.1-.091.142l-.002.002c-.047.08-.128.21-.213.56-.061.248-.095.417-.105.483-.02.135-.014.384-.22.512-.128.08-.291.234-.586.104-.34-.15-.506-.318-.607-.476-.099-.155-.175-.488-.218-.804-.026-.188-.037-.575-.193-.69-.103-.075-.267-.218-.509-.13-.125.045-.24.077-.306.16-.075.095-.13.24-.226.245-.105.006-.187-.001-.217-.024a.44.44 0 0 1-.155-.184c-.034-.092-.041-.364-.002-.82.01-.122.008-.25.042-.392.034-.14.08-.278.16-.396.112-.166.192-.305.237-.372.061-.093.108-.163.19-.292.184-.295.236-.414.494-.514.12-.046.227-.121.353-.184.118-.058.357-.152.533-.188.336-.068.608-.104.749-.118z"/><path fill="#08950A" d="M28.92 9.916a1.3 1.3 0 0 1 .1-.164c.054.009.021.007.029.009.017.003.04.01.151.03l.131.029a.3.3 0 0 1 .1.04c.012.008.012.013.008.028l-.03.085-.058.161c-.019.05-.033.083-.082.09a.5.5 0 0 1-.184-.031c-.087-.027-.14-.039-.172-.05h-.001c-.017-.005-.03-.009-.036-.021-.008-.017-.016-.036-.011-.05.006-.02.004-.057.055-.156M30.968 10.796c0 .088-.01.169-.01.169-.045.018-.02.005-.026.007-.014.005-.034.011-.125.048l-.11.04a.2.2 0 0 1-.09.016c-.013 0-.015-.004-.017-.017l-.012-.077c-.006-.043-.015-.102-.02-.148s-.008-.078.026-.105a.5.5 0 0 1 .15-.063c.076-.021.12-.037.149-.044q.023-.01.036-.001c.013.008.026.02.028.032.003.018.02.045.02.143M31.255 9.967a1 1 0 0 1-.085.142c-.047-.007-.019-.006-.025-.008-.015-.003-.035-.008-.131-.024l-.114-.024a.2.2 0 0 1-.086-.034c-.01-.006-.01-.01-.007-.024l.025-.073.048-.14c.016-.043.029-.072.07-.078a.5.5 0 0 1 .16.025c.075.022.121.032.15.04q.023.006.031.02c.007.014.014.03.01.042-.005.017-.004.05-.046.136M32.504 9.746a1 1 0 0 1-.062.1c-.033-.005-.013-.004-.017-.005l-.093-.019c-.027-.005-.062-.014-.08-.018a.2.2 0 0 1-.062-.025c-.007-.005-.008-.008-.005-.018l.019-.052.036-.1c.011-.03.02-.05.05-.054s.08.009.114.02c.053.017.086.024.106.03q.017.004.022.014.01.016.007.03c-.004.012-.003.036-.034.097M33.953 10.416a1 1 0 0 1-.062.1c-.033-.005-.013-.004-.017-.005l-.093-.019c-.027-.005-.062-.014-.08-.018a.2.2 0 0 1-.062-.025c-.007-.005-.007-.008-.005-.018l.02-.052.035-.1c.012-.03.02-.05.05-.054a.3.3 0 0 1 .114.02l.106.03q.017.004.023.014.01.016.007.03c-.005.012-.004.036-.035.096zM32.508 10.573a1 1 0 0 1-.062.1c-.033-.006-.013-.005-.017-.006-.01-.002-.025-.006-.094-.018l-.08-.019a.2.2 0 0 1-.061-.025c-.007-.005-.008-.008-.005-.018l.019-.052.036-.099c.011-.03.02-.05.05-.055a.3.3 0 0 1 .114.02c.053.017.085.024.105.03h.001q.016.005.022.014c.005.01.01.023.007.03-.004.013-.003.037-.034.097zM28.461 10.729a1 1 0 0 1-.062.1c-.033-.006-.013-.004-.017-.006-.01-.002-.025-.006-.093-.018l-.08-.019a.2.2 0 0 1-.062-.025c-.007-.005-.007-.008-.005-.017l.019-.053.036-.099c.012-.03.02-.05.05-.054a.3.3 0 0 1 .114.02l.106.03q.017.004.023.014c.005.01.01.022.007.03-.005.012-.003.036-.035.096M30.024 9.22a1 1 0 0 1 .108-.025c.02.03.007.013.01.018.005.009.013.023.054.085l.045.074a.2.2 0 0 1 .027.066c.002.009 0 .01-.008.015l-.047.023-.089.043c-.028.013-.047.02-.071 0a.4.4 0 0 1-.068-.101c-.027-.053-.046-.083-.055-.103q-.01-.016-.007-.027c.003-.011.007-.023.014-.027.011-.005.026-.023.087-.042"/><path fill="#CA810C" d="M121.84 1.978c.07-.266.166-.47.197-.521a.8.8 0 0 1 .249-.245c.226-.139.328-.222.519-.168.18.05.213.109.77.493.254.176.493.288.841.674a6.3 6.3 0 0 1 .869 1.222c.522.938.742 1.238.759 1.568.014.253.049.512-.068.699-.123.196-.511.514-.94.7-.432.185-.882.473-1.179.41a.76.76 0 0 1-.348-.163c-.152-.134-.754-.62-1.07-1.547-.127-.374-.199-.755-.28-1.073-.088-.344-.172-.61-.234-1.047-.089-.626-.133-.822-.085-1.002"/><path fill="#7A4C33" d="M123.06 6.332c-.045-.049-.168-.133-.229-.332l-.061-.133c-.008-.021.059-.146.061-.199.012-.045.085-.135.229-.265.04-.036.092-.071.159-.133.052-.048.138-.111.282-.2.131-.079.309-.203.548-.33.239-.128.389-.2.609-.266.172-.052.307-.057.365-.067.069-.011.231.007.366 0 .045-.002.202-.014.243 0 .154.054.22.014.276.12.035.067.135.269.151.333.032.132.036.229.032.331-.004.088-.032.212-.032.344 0 .133-.086.217-.122.266-.039.053 0 0-.061.066a2 2 0 0 1-.304.265c-.046.034-.13.099-.183.133-.092.059-.206.089-.243.133-.053.06-.277.122-.366.158-.078.032-.125.061-.243.107-.051.02-.083.048-.183.083-.113.04-.221.043-.243.05-.047.014-.096.046-.151.054-.057.008-.156-.044-.215-.054-.101-.017-.172-.062-.211-.079-.052-.022-.15-.132-.182-.16-.041-.039-.063-.013-.132-.093-.042-.047-.121-.09-.16-.132"/><path fill="#E7C3A6" d="M124.19 3.115a.03.03 0 0 1-.022-.014l-.111-.2-.034-.053-.058-.09a4 4 0 0 0-.299-.34 7 7 0 0 0-.21-.208.3.3 0 0 0-.091-.062c-.014-.003-.023-.018-.021-.033.003-.015.016-.026.03-.023a.3.3 0 0 1 .115.075c.07.066.144.139.213.21q.183.188.304.346l.059.091.035.056c.028.047.069.122.112.202a.03.03 0 0 1-.009.039.02.02 0 0 1-.013.004"/><path fill="#E54839" d="M233.02 26.146c-4.722-2.21-14.507-1.501-15.865 9.103-.344-.24-1.786-1.086-4.796-2.555-1.156 1.623-4.133 4.575-5.313 5.669 2.361.742 7.379 1.772 10.921 3.433-.074 1.118.354 3.673 2.656 4.95-.639.373-2.494 1.038-4.796.72-1.624-.24-5.313-1.413-6.937-3.275-1.844-1.916-1.992-2.85-3.32-3.273-.294-.094-.738.016-.738 1.357.049.666.738 2.555 3.099 4.79 2.312 1.704 7.807 4.84 11.29 3.754-.442.585-1.785 1.948-3.615 2.714-1.304.213-4.118.863-4.944 1.757-.246.266-.532.91.295 1.357 1.23.16 4.339.112 6.936-1.357-.861.772-3.025 2.66-3.025 3.299 0 .344.811.907 1.697.534 1.075-.455 3.424-1.63 5.018-3.035-.615 1.57-1.683 4.855-1.033 5.43.073.133.737.21 1.402-.559.344-.4 1.387-1.932 2.804-4.87-.025 1.303.088 4.167.738 5.19.123.186.531.447 1.18 0 .196-.136.605-.687 1.255-3.753.295 1.357 1.18 4.576 1.697 5.429.369.61 1.033.264 1.181-.32.196-1.037.56-3.449.442-4.79l1.255 2.156c.393.798 1.372 2.395 2.14 2.395 1.033.24 1.771-3.146-1.181-8.703 2.091.532 7.084.744 9.667-1.437 1.476-1.246 3.542-5.174 2.656-8.623-.164-.639-1.107-.854-1.476.479-2.582 6.148-3.099 7.745-10.183 6.148 4.428-4.1 12.471-16.423-1.107-24.114"/><path fill="#fff" d="M229.585 51.593c.019-.01.023-.03.023-.045 0-.02-.004-.034-.023-.034l-.828-.466c-.238-.128-.324-.435-.21-.688a.47.47 0 0 1 .425-.282q.113.002.211.054l1.734.951c.16.1.261.272.261.465a.51.51 0 0 1-.261.45l-1.725.961a.4.4 0 0 1-.22.065.48.48 0 0 1-.425-.283.55.55 0 0 1-.028-.39.5.5 0 0 1 .238-.298zM227.448 49.226a.5.5 0 0 1 .256.277.58.58 0 0 1-.009.391l-1.29 3.302a.48.48 0 0 1-.435.317.5.5 0 0 1-.188-.044.47.47 0 0 1-.256-.282.53.53 0 0 1 0-.392l1.299-3.302a.48.48 0 0 1 .435-.311q.097 0 .188.044M223.623 51.514c-.018.005-.023.024-.023.034 0 .015.005.035.023.045l.828.45a.54.54 0 0 1 .211.698.47.47 0 0 1-.416.283.37.37 0 0 1-.22-.065l-1.734-.95a.51.51 0 0 1-.261-.456.52.52 0 0 1 .261-.46l1.734-.96a.45.45 0 0 1 .22-.055c.173 0 .338.109.416.282a.58.58 0 0 1 .032.392.48.48 0 0 1-.243.296z"/><path fill="#424242" d="M230.167 35.147c.425.262 1.031-.021 1.355-.634.324-.612.242-1.322-.183-1.584-.424-.263-1.031.02-1.355.633-.323.613-.241 1.322.183 1.585M223.269 32.538c.425.262 1.031-.022 1.355-.634.323-.613.241-1.322-.183-1.585-.425-.262-1.031.021-1.355.634s-.242 1.322.183 1.585"/><path fill="#59671E" d="M197.175 35.443c.181.784-.154 1.821-1.055 3.11-.077.169-.052.365.129.393a7 7 0 0 1 2.471 1.682c1.364 1.541 2.111 3.728 2.111 6.138s-.747 4.54-2.111 6.082c-1.236 1.346-3.064 2.187-4.866 2.187-1.853 0-3.681-.841-4.917-2.187-2.034-2.27-2.162-5.325-2.085-7.455.051-1.878.541-3.868 1.416-5.746.849-1.878 2.085-3.56 3.398-4.681.721-.645 1.828-1.486 3.038-1.486 1.107 0 2.188.87 2.471 1.963m-2.136 13.117c.36-.42.592-1.037.54-1.794.052-.729-.18-1.43-.54-1.822-.335-.364-.721-.56-1.236-.56h-.052c-.412 0-.772.168-1.081.42-.463.42-.721 1.121-.669 1.962-.052.252 0 .533.025.757.232.98.876 1.57 1.725 1.57h.052c.515 0 .901-.197 1.236-.533M170.257 53.624c-1.364-.393-2.214-1.486-2.214-2.831.051-.981.489-1.822 1.493-2.803.901-.953 2.008-1.682 3.038-2.439 1.313-.98 2.729-2.018 3.501-3.503.412-.84.464-1.766.103-2.467-.206-.392-.643-.7-1.107-.7-.901 0-1.364 1.037-1.776 1.794-.258.644-.901 1.934-2.394 1.934-.876 0-1.674-.561-2.137-1.346-.283-.588-.541-1.43-.052-3.223v-.028c.464-1.598 1.416-3.027 2.6-3.952a6.3 6.3 0 0 1 4.042-1.486 6 6 0 0 1 2.909.729c1.931.953 3.399 2.971 3.888 5.354a9.36 9.36 0 0 1-.953 6.614c-.36.729-.901 1.43-1.493 2.13-.129.14-.051.393.129.449.643.084 1.133.196 1.338.224 1.571.449 2.163 1.738 2.163 2.775s-.592 2.27-2.163 2.775c-1.544.448-3.192.504-4.865.504h-1.133c-1.725 0-3.372-.056-4.917-.504M161.47 35.75c1.725 1.822 2.549 4.68 2.549 8.493 0 3.7-.875 6.615-2.6 8.493-1.365 1.485-3.141 2.242-5.123 2.242-2.034 0-3.81-.757-5.123-2.242-1.725-1.878-2.652-4.821-2.601-8.493-.051-3.812.824-6.671 2.549-8.493 1.313-1.485 3.089-2.242 5.175-2.242 2.033 0 3.861.757 5.174 2.242m-3.99 12.753c.592-.7.952-2.27.952-4.26 0-2.018-.334-3.616-.901-4.26-.103-.085-.412-.421-1.235-.421-.876 0-1.133.336-1.236.42-.592.645-.901 2.187-.901 4.26 0 2.019.309 3.56.952 4.261.181.196.49.449 1.185.449.669 0 1.004-.253 1.184-.449M131.546 53.393c-1.364-.392-2.214-1.485-2.214-2.83.052-.982.489-1.822 1.493-2.803.901-.953 2.008-1.682 3.038-2.439 1.313-.98 2.729-2.018 3.501-3.503.412-.841.464-1.766.103-2.467-.206-.392-.643-.7-1.107-.7-.901 0-1.364 1.036-1.776 1.793-.258.645-.901 1.934-2.394 1.934-.876 0-1.674-.56-2.137-1.345-.283-.589-.541-1.43-.052-3.224v-.028c.464-1.597 1.416-3.027 2.601-3.952a6.3 6.3 0 0 1 4.041-1.485c1.004 0 1.983.224 2.909.728 1.931.953 3.399 2.971 3.888 5.354a9.36 9.36 0 0 1-.953 6.615c-.36.729-.901 1.43-1.493 2.13-.129.14-.051.392.129.448.643.084 1.133.197 1.339.225 1.57.448 2.162 1.737 2.162 2.774 0 1.038-.592 2.27-2.162 2.775-1.545.449-3.193.505-4.866.505h-1.133c-1.725 0-3.372-.056-4.917-.505"/></svg>