<svg xmlns="http://www.w3.org/2000/svg" width="140" height="145" fill="none"><path fill="#59671E" d="M132.757 32.542c-.147 1.316-1.299 2.698-3.544 4.113-.226.21-.295.527-.009.682a12.6 12.6 0 0 1 3.178 4.12c1.405 3.215 1.407 7.033.03 10.73-1.376 3.695-3.843 6.496-7.008 8.01-2.838 1.292-6.379 1.441-9.397.317-3.104-1.156-5.685-3.585-6.986-6.419-2.109-4.75-.58-9.514.766-12.733 1.158-2.847 3.114-5.594 5.652-7.928 2.495-2.35 5.525-4.157 8.364-5.058 1.575-.539 3.909-1.138 5.935-.383 1.854.69 3.169 2.697 3.019 4.55m-11.069 18.783c.843-.42 1.584-1.222 1.929-2.414.503-1.085.515-2.304.136-3.13-.353-.768-.888-1.31-1.75-1.631l-.086-.032c-.69-.257-1.389-.224-2.051-.03-1.016.356-1.847 1.27-2.241 2.591-.23.355-.304.817-.389 1.177-.172 1.649.569 2.953 1.992 3.482l.086.032c.863.322 1.621.262 2.374-.045M78.194 34.561c-2.288-1.109-3.443-3.162-3.014-5.321.404-1.556 1.446-2.752 3.535-3.974 1.897-1.213 4.087-1.994 6.15-2.846 2.635-1.114 5.47-2.28 7.309-4.394.996-1.204 1.382-2.67.968-3.922-.239-.702-.914-1.35-1.734-1.513-1.594-.317-2.744 1.185-3.714 2.255-.66.944-2.21 2.787-4.85 2.262-1.549-.307-2.781-1.487-3.35-2.91-.314-1.044-.501-2.484.936-5.19l.009-.046c1.329-2.401 3.469-4.36 5.858-5.43 2.307-1.13 5.027-1.48 7.622-.964 1.776.353 3.435 1.057 4.913 2.192 3.111 2.208 5.063 5.962 5.168 9.958.187 3.824-1.201 7.476-3.793 10.281-.87 1.043-2.05 1.978-3.32 2.895-.272.18-.216.611.085.765 1.111.36 1.94.713 2.296.83 2.634 1.271 3.271 3.549 2.94 5.213s-1.771 3.436-4.71 3.694c-2.874.177-5.806-.312-8.765-.9l-2.004-.398c-3.05-.606-5.946-1.274-8.535-2.537M59.573 4.807c3.393 2.631 5.377 7.135 6.074 13.358.676 6.04-.344 10.972-3.06 14.38-2.148 2.697-5.16 4.285-8.677 4.68-3.608.403-6.897-.48-9.497-2.644-3.403-2.723-5.585-7.343-6.165-13.348-.788-6.212.241-11.053 2.968-14.37 2.057-2.686 5.07-4.274 8.768-4.689 3.608-.404 6.988.469 9.589 2.633m-4.746 21.612c.922-1.262 1.274-3.896.91-7.144-.369-3.295-1.254-5.836-2.377-6.776-.198-.117-.807-.605-2.269-.441-1.552.174-1.947.774-2.115.932-.932 1.17-1.198 3.748-.819 7.134.369 3.294 1.199 5.75 2.469 6.766.355.284.95.634 2.182.496 1.187-.133 1.735-.61 2.019-.967M13.451 50.964c-2.597.08-4.598-1.206-5.206-3.321-.353-1.57.042-3.115 1.379-5.17 1.166-1.958 2.8-3.669 4.283-5.384 1.884-2.213 3.925-4.566 4.622-7.296.35-1.533.023-3.013-.933-3.931-.543-.512-1.459-.774-2.28-.537-1.598.46-1.95 2.327-2.338 3.727-.165 1.145-.723 3.5-3.37 4.263-1.552.446-3.221-.028-4.398-1.026-.768-.78-1.605-1.972-1.55-5.042l-.012-.044c.098-2.749 1.14-5.482 2.821-7.541 1.578-2.077 3.893-3.65 6.495-4.399 1.78-.512 3.616-.659 5.488-.338 3.855.513 7.37 2.938 9.315 6.435 1.94 3.307 2.367 7.193 1.305 10.887-.31 1.33-.951 2.708-1.684 4.112-.165.286.086.643.431.64 1.18-.197 2.098-.27 2.476-.331 2.987-.096 4.62 1.629 5.09 3.26s-.023 3.872-2.58 5.467c-2.535 1.493-5.431 2.422-8.398 3.276l-2.009.578c-3.058.88-6.005 1.632-8.947 1.715"/><path fill="#E54839" d="M85.082 42.54c-13.977-6.046-42.936-4.106-46.954 24.896-1.02-.655-5.285-2.969-14.196-6.987-3.421 4.44-12.23 12.514-15.724 15.505 6.989 2.032 21.84 4.849 32.322 9.391-.218 3.058 1.048 10.046 7.862 13.54-1.893 1.02-7.382 2.84-14.196 1.966-4.804-.655-15.724-3.863-20.528-8.954-5.46-5.241-5.897-7.794-9.828-8.954-.868-.256-2.184.044-2.184 3.713.146 1.82 2.184 6.988 9.173 13.103 6.843 4.659 23.106 13.235 33.414 10.264-1.31 1.602-5.285 5.329-10.702 7.426-3.858.582-12.186 2.358-14.632 4.804-.728.728-1.572 2.49.874 3.713 3.64.437 12.841.306 20.529-3.713-2.548 2.112-8.955 7.275-8.955 9.023 0 .941 2.403 2.483 5.024 1.46 3.183-1.242 10.133-4.455 14.85-8.299-1.82 4.295-4.98 13.278-3.057 14.851.218.364 2.184.577 4.15-1.529 1.018-1.092 4.105-5.285 8.298-13.322-.073 3.567.262 11.4 2.184 14.196.364.509 1.572 1.223 3.494 0 .58-.369 1.791-1.878 3.713-10.265.873 3.713 3.494 12.517 5.023 14.851 1.092 1.667 3.057.723 3.494-.874.582-2.839 1.66-9.434 1.31-13.103l3.713 5.896c1.165 2.184 4.062 6.552 6.334 6.552 3.057.655 5.24-8.604-3.495-23.804 6.188 1.456 20.966 2.033 28.609-3.931 4.368-3.408 10.483-14.152 7.863-23.587-.485-1.746-3.277-2.334-4.368 1.31-7.644 16.817-9.173 21.185-30.138 16.817 13.103-11.211 36.908-44.92-3.276-65.956"/><path fill="#fff" d="M74.904 112.149c.054-.027.067-.081.067-.122 0-.054-.013-.094-.067-.094l-2.451-1.273a1.4 1.4 0 0 1-.623-1.882 1.39 1.39 0 0 1 1.26-.772c.216 0 .432.054.622.149l5.132 2.6c.474.27.772.744.772 1.272 0 .515-.298 1.002-.772 1.232l-5.105 2.627a1.3 1.3 0 0 1-.65.176 1.43 1.43 0 0 1-1.26-.771c-.175-.325-.189-.718-.08-1.07.122-.366.365-.65.704-.813zM68.584 105.677c.325.135.61.406.758.758.122.352.122.745-.027 1.069l-3.818 9.032a1.41 1.41 0 0 1-1.287.866c-.19 0-.379-.054-.555-.121a1.33 1.33 0 0 1-.758-.772 1.34 1.34 0 0 1 0-1.07l3.845-9.031a1.41 1.41 0 0 1 1.287-.853c.19 0 .379.04.555.122M57.275 111.933c-.055.013-.068.067-.068.094 0 .041.013.095.068.122l2.45 1.232c.704.366.989 1.219.623 1.91-.23.46-.718.771-1.232.771a1.17 1.17 0 0 1-.65-.176l-5.132-2.599a1.39 1.39 0 0 1-.772-1.246c0-.542.298-1.016.772-1.259l5.132-2.627c.19-.095.406-.149.65-.149.514 0 1.002.298 1.232.772.176.338.19.717.095 1.069-.108.366-.38.65-.718.813z"/><ellipse cx="78.389" cy="64.129" fill="#424242" rx="2.621" ry="3.494" transform="rotate(29.75 78.39 64.13)"/><ellipse cx="57.956" cy="56.99" fill="#424242" rx="2.621" ry="3.494" transform="rotate(29.75 57.956 56.99)"/></svg>