<svg xmlns="http://www.w3.org/2000/svg" width="126" height="113" fill="none"><mask id="a" width="126" height="115" x="0" y="-1" fill="#000" maskUnits="userSpaceOnUse"><path fill="#fff" d="M0-1h126v115H0z"/><path d="M28.992 8.284c2.602-5.078 6.498-7.586 11.31-7.255 7.438.512 15.713 7.516 22.438 14.857C71.077 9.668 80.665 5.544 91.346 4.641h.095c8.28 0 12.666 4.826 12.666 13.972 0 4.83-1.278 10.852-3.618 17.572 12.678 3.134 23.266 8.466 23.902 17.53.724 10.438-8.77 18.795-26.117 23.673 3.876 12.01 6.466 26.502-.59 32.941q-.165.141-.378.236a21.3 21.3 0 0 1-7.65 1.42v.016c-8.77 0-18.313-5.272-28.073-15.56-8.597 8.147-16.56 12.654-22.864 12.657-3.687-.001-6.84-1.262-9.11-3.641-2.728-2.855-4.1-7.129-3.864-12.05-.02-4.873.454-10.061 1.396-15.388-14.078-3.594-24.718-9.8-26.096-19.115v-.08C.73 54.978 2.101 51.367 5.13 48.087c5.068-5.502 14.263-9.47 23.913-12.117-2.836-11.57-3.15-21.63-.05-27.685m66.983 69.719c-5.16 1.309-10.953 2.33-17.327 3.026q-1.799.194-3.653.346c-3.959 5.123-7.895 9.623-11.721 13.424 8.67 9.134 20.919 18.119 32.959 13.653 4.75-4.586 4.645-15.324-.258-30.45m-57.25 31.096h-.015l.008-.001zm-9.288-30.523c-.896 5.148-1.346 10.164-1.326 14.88-.205 4.257.978 8.01 3.217 10.36 1.846 1.924 4.322 2.854 7.398 2.901 5.67 0 13.13-4.334 21.24-12.025l-.122-.133c-3.574-3.976-6.974-8.39-10.138-13.072-7.03-.502-13.95-1.46-20.27-2.911m42.37 3.027c-3.29.202-6.676.309-10.1.309h-.015c-2.974 0-5.978-.079-8.974-.238 2.806 4.052 5.781 7.864 8.877 11.308l.06.067c3.316-3.299 6.725-7.135 10.152-11.446m-14.2-47.489c-2.712 0-6.12.21-9.903.647-4.09 5.682-7.589 11.903-10.449 18.338 3.668 8.896 8.401 17.95 13.832 26.161 7.429.468 15.14.42 22.674-.168a186.632 186.632 0 0 0 14.041-21.244 183 183 0 0 0-13.294-23.092 238 238 0 0 0-16.901-.642m-21.67 22.074c-2.714 6.64-4.755 13.45-6.07 20.082 5.601 1.31 11.78 2.24 18.227 2.774-4.695-7.267-8.819-15.085-12.156-22.856m53.104 4.286a193 193 0 0 1-8.785 13.743 193 193 0 0 1-3.316 4.594q.72-.07 1.44-.148c5.677-.617 11.431-1.602 16.819-2.98q-.044-.126-.086-.253a166 166 0 0 0-6.072-14.956m-59.42-22.257C20.391 40.74 11.65 44.5 6.865 49.694c-2.556 2.775-3.723 5.772-3.471 8.91v-.015c1.196 7.857 10.808 13.633 24.184 17.116 1.494-7.446 3.884-15.111 7.104-22.528-2.06-5.1-3.767-10.143-5.06-14.96m70.061.2c-2.302 6.15-5.442 12.812-9.262 19.634 2.714 5.646 5.067 11.253 6.933 16.591q.073.21.144.423c14.184-4.012 25.246-10.9 24.527-21.191-.576-8.237-11.859-12.897-22.342-15.457m-40.531 7.192c6.703-2.428 10.851.126 12.728 1.86 3.17 2.934 4.464 7.617 3.266 11.922-1.136 4.085-4.307 7.081-8.786 8.374-.158.11-.331.205-.536.237q-.923.141-1.798.142v-.016c-6.12 0-10.584-4.763-11.815-9.699-1.088-4.4.08-10.391 6.94-12.82m5.253 1.388q-2.106 0-4.449.851c-5.378 1.909-6.341 6.419-5.442 10.014 1.041 4.21 4.953 8.263 10.222 7.885 5.74-1.23 7.57-4.89 8.138-6.986.947-3.407-.095-7.238-2.587-9.556-1.593-1.467-3.595-2.208-5.882-2.208m12.973-12.01A203 203 0 0 1 89.14 55.44c3.322-6.089 6.098-12.047 8.191-17.567q-.304-.068-.606-.132c-6.413-1.367-13.199-2.222-19.347-2.755m-32.779.174c-4.04.57-8.38 1.38-12.677 2.454 1.096 4.029 2.491 8.233 4.143 12.5 2.441-5.197 5.294-10.237 8.534-14.954M91.503 7.007c-10.131.866-19.247 4.752-27.198 10.623a142 142 0 0 1 7.195 8.93c1.42 1.913 2.821 3.89 4.197 5.912 7.013.549 15.002 1.506 22.453 3.164 2.322-6.576 3.605-12.437 3.605-17.023 0-7.79-3.36-11.59-10.252-11.606M39.45 3.379c-3.55 0-6.294 1.972-8.36 5.993-2.85 5.564-2.475 15.024.247 25.993a128 128 0 0 1 15.121-2.822c4.203-5.701 8.996-10.856 14.333-15.148-7.899-8.425-15.347-13.634-20.664-14-.236-.016-.473-.032-.694-.032zm22.92 15.736c-4.688 3.74-8.947 8.175-12.745 13.074 3.014-.295 5.732-.44 7.982-.44 2.773 0 8.36.07 15.177.515-3.442-4.88-6.96-9.308-10.414-13.149"/></mask><path fill="#FACC15" fill-opacity=".3" d="M28.992 8.284c2.602-5.078 6.498-7.586 11.31-7.255 7.438.512 15.713 7.516 22.438 14.857C71.077 9.668 80.665 5.544 91.346 4.641h.095c8.28 0 12.666 4.826 12.666 13.972 0 4.83-1.278 10.852-3.618 17.572 12.678 3.134 23.266 8.466 23.902 17.53.724 10.438-8.77 18.795-26.117 23.673 3.876 12.01 6.466 26.502-.59 32.941q-.165.141-.378.236a21.3 21.3 0 0 1-7.65 1.42v.016c-8.77 0-18.313-5.272-28.073-15.56-8.597 8.147-16.56 12.654-22.864 12.657-3.687-.001-6.84-1.262-9.11-3.641-2.728-2.855-4.1-7.129-3.864-12.05-.02-4.873.454-10.061 1.396-15.388-14.078-3.594-24.718-9.8-26.096-19.115v-.08C.73 54.978 2.101 51.367 5.13 48.087c5.068-5.502 14.263-9.47 23.913-12.117-2.836-11.57-3.15-21.63-.05-27.685m66.983 69.719c-5.16 1.309-10.953 2.33-17.327 3.026q-1.799.194-3.653.346c-3.959 5.123-7.895 9.623-11.721 13.424 8.67 9.134 20.919 18.119 32.959 13.653 4.75-4.586 4.645-15.324-.258-30.45m-57.25 31.096h-.015l.008-.001zm-9.288-30.523c-.896 5.148-1.346 10.164-1.326 14.88-.205 4.257.978 8.01 3.217 10.36 1.846 1.924 4.322 2.854 7.398 2.901 5.67 0 13.13-4.334 21.24-12.025l-.122-.133c-3.574-3.976-6.974-8.39-10.138-13.072-7.03-.502-13.95-1.46-20.27-2.911m42.37 3.027c-3.29.202-6.676.309-10.1.309h-.015c-2.974 0-5.978-.079-8.974-.238 2.806 4.052 5.781 7.864 8.877 11.308l.06.067c3.316-3.299 6.725-7.135 10.152-11.446m-14.2-47.489c-2.712 0-6.12.21-9.903.647-4.09 5.682-7.589 11.903-10.449 18.338 3.668 8.896 8.401 17.95 13.832 26.161 7.429.468 15.14.42 22.674-.168a186.632 186.632 0 0 0 14.041-21.244 183 183 0 0 0-13.294-23.092 238 238 0 0 0-16.901-.642m-21.67 22.074c-2.714 6.64-4.755 13.45-6.07 20.082 5.601 1.31 11.78 2.24 18.227 2.774-4.695-7.267-8.819-15.085-12.156-22.856m53.104 4.286a193 193 0 0 1-8.785 13.743 193 193 0 0 1-3.316 4.594q.72-.07 1.44-.148c5.677-.617 11.431-1.602 16.819-2.98q-.044-.126-.086-.253a166 166 0 0 0-6.072-14.956m-59.42-22.257C20.391 40.74 11.65 44.5 6.865 49.694c-2.556 2.775-3.723 5.772-3.471 8.91v-.015c1.196 7.857 10.808 13.633 24.184 17.116 1.494-7.446 3.884-15.111 7.104-22.528-2.06-5.1-3.767-10.143-5.06-14.96m70.061.2c-2.302 6.15-5.442 12.812-9.262 19.634 2.714 5.646 5.067 11.253 6.933 16.591q.073.21.144.423c14.184-4.012 25.246-10.9 24.527-21.191-.576-8.237-11.859-12.897-22.342-15.457m-40.531 7.192c6.703-2.428 10.851.126 12.728 1.86 3.17 2.934 4.464 7.617 3.266 11.922-1.136 4.085-4.307 7.081-8.786 8.374-.158.11-.331.205-.536.237q-.923.141-1.798.142v-.016c-6.12 0-10.584-4.763-11.815-9.699-1.088-4.4.08-10.391 6.94-12.82m5.253 1.388q-2.106 0-4.449.851c-5.378 1.909-6.341 6.419-5.442 10.014 1.041 4.21 4.953 8.263 10.222 7.885 5.74-1.23 7.57-4.89 8.138-6.986.947-3.407-.095-7.238-2.587-9.556-1.593-1.467-3.595-2.208-5.882-2.208m12.973-12.01A203 203 0 0 1 89.14 55.44c3.322-6.089 6.098-12.047 8.191-17.567q-.304-.068-.606-.132c-6.413-1.367-13.199-2.222-19.347-2.755m-32.779.174c-4.04.57-8.38 1.38-12.677 2.454 1.096 4.029 2.491 8.233 4.143 12.5 2.441-5.197 5.294-10.237 8.534-14.954M91.503 7.007c-10.131.866-19.247 4.752-27.198 10.623a142 142 0 0 1 7.195 8.93c1.42 1.913 2.821 3.89 4.197 5.912 7.013.549 15.002 1.506 22.453 3.164 2.322-6.576 3.605-12.437 3.605-17.023 0-7.79-3.36-11.59-10.252-11.606M39.45 3.379c-3.55 0-6.294 1.972-8.36 5.993-2.85 5.564-2.475 15.024.247 25.993a128 128 0 0 1 15.121-2.822c4.203-5.701 8.996-10.856 14.333-15.148-7.899-8.425-15.347-13.634-20.664-14-.236-.016-.473-.032-.694-.032zm22.92 15.736c-4.688 3.74-8.947 8.175-12.745 13.074 3.014-.295 5.732-.44 7.982-.44 2.773 0 8.36.07 15.177.515-3.442-4.88-6.96-9.308-10.414-13.149"/><path fill="#FACC15" fill-opacity=".3" d="m28.992 8.284-.89-.456zm11.31-7.255-.07.998zM62.74 15.886l-.737.676.61.667.726-.541zM91.346 4.641v-1h-.042l-.042.004zm12.761 13.972h1zm-3.618 17.572-.945-.329-.36 1.037 1.065.263zm23.902 17.53.998-.069zM98.273 77.389l-.27-.962-1 .28.318.99zm-.59 32.941.652.759.012-.01.011-.011zm-.378.236.357.934.025-.009.024-.011zm-7.65 1.42v-1h-1v1zm0 .016v1h1v-1zm-28.073-15.56.726-.689-.688-.725-.725.687zm-31.973 9.016.723-.69v-.001zm-3.865-12.05 1 .049v-.052zM27.14 78.02l.985.174.161-.913-.899-.23zM1.044 58.904h-1v.074l.011.072zm0-.08h1v-.04l-.003-.04zM5.13 48.087l.735.678zm23.913-12.117.265.964.938-.258-.231-.945zm66.933 42.034.951-.309-.289-.891-.908.23zm-17.327 3.026.108.994zm-3.653.346-.082-.997-.44.036-.269.35zM63.274 94.799l-.705-.709-.694.69.673.708zm32.959 13.653.347.937.197-.072.15-.146zm-57.523.647v-1 2zm-9.273-30.523.224-.975-1.028-.236-.181 1.04zm-1.326 14.88.999.048v-.052zm3.217 10.36-.723.69.002.002zm7.398 2.901-.015 1h.015zm21.24-12.025.687.726.708-.672-.653-.724zm-.122-.133-.744.669zM49.706 81.487l.829-.56-.272-.403-.485-.034zm22.101.116.783.623 1.397-1.758-2.241.137zm-19.089.072.053-1-2.036-.107 1.161 1.676zm8.877 11.307-.744.669zm.06.067-.742.669.703.78.745-.74zm-4.048-58.935v-1zm-9.903.647-.114-.994-.44.05-.257.36zM37.255 53.099l-.914-.406-.174.392.164.395zM51.087 79.26l-.834.552.275.415.496.031zm22.674-.168.078.998.445-.035.271-.355zm4.571-6.248-.819-.573zm9.47-14.996.87.493.258-.456-.227-.471zM74.508 34.756l.828-.562-.272-.4-.482-.036zm-38.57 21.432.919-.394-.942-2.192-.903 2.208zM29.866 76.27l-.98-.194-.188.948.94.22zm18.228 2.774-.082.996 2.025.168-1.103-1.707zm40.947-18.57.908-.42-.807-1.745-.966 1.663zm-8.785 13.743-.819-.574zM76.94 78.81l-.802-.597-1.352 1.815 2.252-.223zm1.44-.148-.109-.994zm16.819-2.98.247.97 1.053-.27-.355-1.027zm-.086-.253.944-.329zM29.62 38.217l.966-.26-.26-.97-.97.265zM6.865 49.694l-.736-.678zm-3.471 8.91-.997.08 1.997-.08zm0-.015.988-.15-1.988.15zm24.184 17.116-.252.968 1.024.266.208-1.037zm7.104-22.528.917.398.167-.385-.157-.388zm65-14.76.237-.972-.862-.21-.312.831zM90.42 58.05l-.872-.488-.254.453.225.469zm6.933 16.591.944-.328v-.002zm.144.423-.945.326.308.894.91-.258zm24.527-21.191.997-.07zm-62.873-8.265.333.943.007-.003zm12.728 1.86.68-.734h-.001zm3.266 11.922-.963-.268zm-8.786 8.374-.278-.96-.16.046-.136.095zm-.536.237.152.988zm-1.798.142h-1v1h1zm0-.016h1v-1h-1zM52.21 58.429l-.97.24v.002zm12.194-11.432v-1zm-4.449.851.335.943.007-.003zm-5.442 10.014.97-.24v-.003zm10.222 7.885.071.997.07-.005.068-.014zm8.138-6.986-.963-.268-.002.006zm-2.587-9.556.681-.732-.003-.004zm7.091-14.219.087-.996-2.054-.178 1.131 1.723zM89.14 55.44l-.895.447.856 1.713.917-1.68zm8.191-17.567.935.354.411-1.083-1.132-.248zm-.606-.132-.209.978h.001zm-52.126-2.58.824.566 1.287-1.874-2.25.318zm-12.677 2.454-.242-.97-.99.247.267.985zm4.143 12.5-.933.36.844 2.181.994-2.116zm55.44-43.108.001-1h-.043l-.044.003zM64.304 17.63l-.594-.805-.876.647.719.818zm7.195 8.93.803-.596zm4.197 5.912-.827.563.27.397.479.037zm22.453 3.164-.218.977.866.192.295-.836zm3.605-17.023h1zM39.45 3.379v1h2.521L40.135 2.65zm-8.36 5.993-.89-.457v.001zm.247 25.993-.97.24.241.975.973-.245zm15.121-2.822.125.992.426-.053.254-.346zm14.333-15.148.627.78.84-.677-.737-.787zm-20.664-14 .069-.997h-.002zm-.694-.032v-1H36.91l1.837 1.728zM62.37 19.115l.744-.669-.63-.7-.737.587zM49.625 32.189l-.79-.612-1.422 1.834 2.31-.227zm7.982-.44v-1zm15.177.515-.065.998 2.09.137-1.207-1.711zM28.991 8.284l.89.456c2.463-4.806 6.026-7.011 10.351-6.713l.07-.998.068-.998c-5.296-.364-9.526 2.447-12.268 7.797zm11.31-7.255-.069.998c3.452.237 7.2 1.997 10.977 4.684 3.76 2.677 7.457 6.208 10.794 9.85l.737-.675.738-.675c-3.389-3.699-7.192-7.34-11.11-10.13C48.466 2.305 44.357.307 40.37.032zm22.44 14.857.598.802c8.208-6.124 17.622-10.166 28.09-11.05l-.084-.997-.084-.996c-10.894.92-20.657 5.127-29.118 11.44zM91.345 4.641v1h.095v-2h-.095zm.095 0v1c3.945 0 6.807 1.144 8.697 3.228 1.906 2.101 2.969 5.315 2.969 9.744h2c0-4.718-1.13-8.49-3.487-11.088-2.372-2.615-5.843-3.884-10.18-3.884zm12.666 13.972h-1c0 4.673-1.241 10.577-3.563 17.243l.945.33.944.328c2.359-6.773 3.674-12.915 3.674-17.901zm-3.618 17.572-.24.971c6.292 1.555 11.981 3.638 16.154 6.404 4.166 2.761 6.702 6.117 6.99 10.225l.998-.07.998-.07c-.348-4.956-3.424-8.798-7.881-11.752-4.449-2.95-10.393-5.1-16.779-6.678zm23.902 17.53-.998.07c.337 4.851-1.681 9.266-5.953 13.108-4.295 3.863-10.844 7.117-19.437 9.533l.27.962.271.963c8.755-2.462 15.626-5.826 20.234-9.97 4.631-4.166 6.998-9.149 6.611-14.735zM98.273 77.389l-.952.307c1.927 5.97 3.513 12.497 3.757 18.295.246 5.833-.873 10.684-4.068 13.6l.674.739.674.738c3.86-3.522 4.973-9.137 4.719-15.162-.256-6.06-1.903-12.784-3.853-18.824zm-.59 32.941-.65-.76a.5.5 0 0 1-.134.082l.406.914.406.914q.336-.147.624-.391zm-.378.236-.357-.934a20.3 20.3 0 0 1-7.293 1.354v2c2.741 0 5.418-.496 8.007-1.486zm-7.65 1.42h-1v.016h2v-.016zm0 .016v-1c-8.369 0-17.665-5.042-27.347-15.249l-.726.688-.725.688c9.837 10.371 19.625 15.873 28.798 15.873zm-28.073-15.56-.687-.727c-4.258 4.035-8.332 7.142-12.092 9.236-3.767 2.097-7.163 3.147-10.085 3.148v2c3.382-.002 7.119-1.207 11.058-3.401 3.947-2.198 8.154-5.418 12.494-9.531zm-22.864 12.657v-1c-3.45-.001-6.328-1.175-8.386-3.331l-.723.69-.724.69c2.482 2.602 5.908 3.949 9.833 3.951zm-9.11-3.641.723-.691c-2.494-2.61-3.815-6.592-3.588-11.31l-.998-.048-1-.048c-.246 5.122 1.178 9.689 4.14 12.788zm-3.864-12.05 1-.003c-.02-4.808.448-9.936 1.38-15.21l-.984-.175-.985-.174c-.95 5.379-1.43 10.626-1.41 15.567zM27.14 78.02l.247-.969c-6.977-1.781-13.032-4.194-17.49-7.266-4.454-3.07-7.229-6.735-7.864-11.026l-.989.146-.989.146c.743 5.025 3.977 9.12 8.707 12.38 4.726 3.258 11.03 5.745 18.13 7.558zM1.044 58.904h1v-.08h-2v.08zm0-.08.997-.08c-.29-3.526.952-6.87 3.823-9.98l-.735-.678-.735-.679c-3.186 3.451-4.688 7.329-4.346 11.5zM5.13 48.087l.736.677c4.866-5.283 13.825-9.192 23.442-11.83l-.265-.965-.264-.964C19.095 37.66 9.662 41.688 4.394 47.408zm23.913-12.117.972-.239c-1.406-5.733-2.178-11.061-2.223-15.681-.045-4.633.643-8.481 2.09-11.31l-.89-.455-.89-.456c-1.651 3.227-2.356 7.436-2.31 12.24.047 4.815.85 10.302 2.28 16.138zm66.933 42.034-.246-.97c-5.107 1.296-10.855 2.31-17.19 3.002l.109.994.108.994c6.413-.7 12.254-1.729 17.465-3.051zm-17.327 3.026-.109-.994q-1.781.193-3.626.343l.082.997.083.996q1.863-.151 3.678-.348zm-3.653.346-.79-.612c-3.938 5.095-7.845 9.56-11.636 13.327l.705.71.704.709c3.863-3.837 7.828-8.371 11.809-13.523zM63.274 94.799l-.726.689c4.375 4.607 9.697 9.229 15.494 12.132 5.808 2.908 12.177 4.129 18.539 1.769l-.348-.937-.348-.938c-5.678 2.107-11.454 1.068-16.947-1.683-5.505-2.756-10.642-7.194-14.939-11.72zm32.959 13.653.694.719c2.664-2.571 3.843-6.736 3.797-12-.047-5.289-1.33-11.862-3.798-19.477l-.951.309-.951.308c2.434 7.51 3.656 13.869 3.7 18.877.044 5.033-1.099 8.53-3.186 10.544zm-57.507.647v-1h-.016v2h.016zm-.016 0v1a1 1 0 0 0 .141-.01l.035-.005.009-.002h.003-.002l-.008.002-.032.005a1 1 0 0 1-.137.009v-1l-.002-1a1 1 0 0 0-.175.016l-.009.001-.002.001h-.001.002l.008-.002.033-.005q.022-.004.057-.006l.08-.004zm.008-.001v1a1 1 0 0 1-.137-.009l-.033-.005-.008-.002h-.002.004l.008.002.035.005.058.007.083.003v-2q.046 0 .08.004.035.002.057.006l.033.005.007.001.003.001h-.001l-.002-.001-.01-.001-.034-.006a1 1 0 0 0-.14-.01zm-9.281-30.522-.985-.172c-.906 5.2-1.361 10.274-1.341 15.056l1-.004 1-.004c-.02-4.651.424-9.608 1.311-14.705zm-1.326 14.88-1-.048c-.213 4.447 1.014 8.497 3.494 11.098l.723-.69.724-.69c-2-2.098-3.138-5.554-2.942-9.622zm3.217 10.36-.721.692c2.069 2.157 4.822 3.159 8.104 3.209l.015-1 .015-.999c-2.87-.045-5.069-.903-6.69-2.594zm7.398 2.901v1c3.076 0 6.534-1.169 10.2-3.259 3.677-2.096 7.634-5.158 11.727-9.04l-.688-.726-.688-.725c-4.016 3.808-7.844 6.76-11.342 8.753-3.508 2-6.616 2.997-9.21 2.997zm21.24-12.025.742-.67c-.09-.1-.047-.05-.12-.131l-.744.668-.744.669.123.134zm-.122-.133.744-.668c-3.54-3.938-6.911-8.315-10.053-12.964l-.829.56-.828.56c3.186 4.715 6.613 9.166 10.222 13.18zM49.706 81.487l.072-.997c-6.99-.5-13.856-1.45-20.117-2.889l-.224.975-.224.975c6.38 1.465 13.35 2.429 20.422 2.933zm22.101.116-.061-.998c-3.271.2-6.636.307-10.039.307v2c3.444 0 6.85-.108 10.161-.31zm-10.1.309v-1h-.015v2h.015zm-.015 0v-1c-2.956 0-5.942-.078-8.921-.236l-.053.998-.053 1c3.014.159 6.036.238 9.027.238zm-8.974-.238-.822.57c2.827 4.081 5.828 7.927 8.955 11.407l.744-.669.744-.668c-3.065-3.41-6.013-7.187-8.799-11.209zm8.877 11.308-.743.669.037.04.024.027.743-.67.742-.669-.036-.04-.023-.026zm.06.067.706.708c3.347-3.329 6.781-7.195 10.229-11.532l-.783-.622-.783-.622c-3.406 4.285-6.79 8.092-10.074 11.359zm-4.048-58.935v-1c-2.759 0-6.207.213-10.017.653l.114.993.115.994c3.754-.433 7.123-.64 9.788-.64zm-9.903.647-.811-.585c-4.134 5.743-7.666 12.025-10.552 18.517l.914.406.914.407c2.835-6.379 6.3-12.54 10.347-18.161zM37.255 53.099l-.924.382c3.69 8.952 8.454 18.063 13.922 26.331l.834-.552.834-.551c-5.393-8.156-10.097-17.151-13.741-25.99zM51.087 79.26l-.063.998c7.475.471 15.234.422 22.815-.168l-.078-.998-.078-.996c-7.486.583-15.151.631-22.533.166zm22.674-.168.794.608c1.533-2.005 3.07-4.1 4.597-6.282l-.82-.574-.819-.573c-1.51 2.159-3.03 4.23-4.546 6.214zm4.571-6.248.82.574a188 188 0 0 0 9.52-15.077l-.87-.493-.87-.492a186 186 0 0 1-9.419 14.915zm9.47-14.996.9-.434a184 184 0 0 0-13.367-23.22l-.827.562-.827.561A182 182 0 0 1 86.9 58.283zM74.508 34.756l.074-.998a239 239 0 0 0-16.975-.644v2c2.731 0 9.097.07 16.828.639zm-38.57 21.432-.926-.378c-2.739 6.698-4.798 13.57-6.126 20.266l.98.194.981.195c1.303-6.568 3.325-13.316 6.016-19.898zM29.866 76.27l-.227.974c5.656 1.323 11.885 2.26 18.373 2.796l.082-.996.082-.997c-6.405-.53-12.535-1.453-18.082-2.75zm18.228 2.774.84-.543c-4.663-7.217-8.761-14.987-12.077-22.707l-.92.394-.918.395c3.359 7.82 7.509 15.688 12.235 23.003zm40.947-18.57-.865-.502a192 192 0 0 1-8.739 13.671l.82.573.818.574a194 194 0 0 0 8.831-13.814zm-8.785 13.743-.82-.574q-1.648 2.355-3.298 4.571l.802.597.802.597a195 195 0 0 0 3.334-4.618zM76.94 78.81l.098.995q.724-.07 1.45-.15l-.109-.993-.108-.994q-.71.076-1.43.147zm1.44-.148.107.994c5.717-.621 11.52-1.614 16.96-3.005l-.248-.969-.248-.969c-5.335 1.365-11.042 2.342-16.68 2.955zm16.819-2.98.945-.327-.087-.255-.944.33-.945.328c.047.133.03.093.086.251zm-.086-.253.944-.329a167 167 0 0 0-6.108-15.046l-.908.42-.907.419a165 165 0 0 1 6.034 14.866zM29.62 38.217l-.263-.965c-9.263 2.533-18.242 6.352-23.229 11.764l.736.678.735.678c4.583-4.974 13.086-8.675 22.285-11.19zM6.865 49.694l-.736-.677c-2.703 2.936-4.011 6.197-3.732 9.667l.997-.08.997-.08c-.226-2.806.802-5.538 3.21-8.153zm-3.471 8.91h1v-.015h-2v.015zm0-.015-.989.15c.657 4.31 3.604 7.93 7.953 10.876 4.353 2.95 10.219 5.3 16.968 7.058l.252-.968.251-.968c-6.626-1.725-12.254-4.003-16.35-6.777-4.1-2.778-6.556-5.974-7.097-9.522zm24.184 17.116.98.197c1.48-7.376 3.85-14.974 7.041-22.327l-.917-.399-.917-.398c-3.248 7.481-5.66 15.214-7.168 22.73zm7.104-22.528.927-.375c-2.047-5.065-3.74-10.07-5.022-14.845l-.966.26-.965.259c1.305 4.86 3.025 9.942 5.099 15.075zm65-14.76-.937-.35c-2.281 6.093-5.398 12.71-9.197 19.496l.872.488.873.489c3.84-6.859 7.002-13.568 9.325-19.773zM90.42 58.05l-.901.434c2.7 5.616 5.038 11.19 6.89 16.487l.944-.33.944-.33c-1.88-5.378-4.248-11.02-6.975-16.694zm6.933 16.591-.944.33.143.419.945-.326.946-.325-.146-.426zm.144.423.273.962c7.151-2.023 13.604-4.793 18.199-8.418 4.611-3.639 7.442-8.223 7.052-13.805l-.997.07-.998.07c.329 4.708-2.011 8.713-6.296 12.095-4.303 3.394-10.472 6.075-17.505 8.064zm24.527-21.191.997-.07c-.322-4.606-3.631-8.068-7.94-10.646-4.329-2.59-9.883-4.423-15.162-5.713l-.237.972-.237.971c5.203 1.271 10.532 3.047 14.609 5.487 4.098 2.451 6.718 5.437 6.972 9.069zm-62.873-8.265.34.94c6.273-2.272 10.039.111 11.71 1.655l.678-.735.679-.734c-2.084-1.926-6.614-4.65-13.748-2.066zm12.728 1.86-.679.734c2.886 2.67 4.083 6.963 2.981 10.92l.964.268.963.269c1.296-4.654-.095-9.728-3.55-12.925zm3.266 11.922-.964-.268c-1.03 3.707-3.908 6.472-8.1 7.682l.278.96.277.961c4.768-1.376 8.232-4.605 9.472-9.067zm-8.786 8.374-.574-.819c-.1.07-.126.07-.114.067l.152.989.152.988c.421-.065.742-.255.957-.405zm-.536.237-.152-.989q-.854.132-1.646.131v2q.957 0 1.95-.154zm-1.798.142h1v-.016h-2v.016zm0-.016v-1c-5.559 0-9.698-4.342-10.844-8.94l-.97.241-.971.242c1.314 5.274 6.103 10.457 12.785 10.457zM52.21 58.429l.971-.24c-.502-2.03-.474-4.4.437-6.513.898-2.084 2.686-3.999 5.866-5.124l-.333-.943-.334-.943c-3.681 1.303-5.907 3.6-7.036 6.218-1.116 2.59-1.127 5.416-.541 7.785zm12.194-11.432v-1c-1.54 0-3.139.311-4.79.911l.341.94.342.94c1.472-.535 2.839-.791 4.107-.791zm-4.449.851-.334-.942c-2.925 1.038-4.735 2.824-5.656 4.913-.91 2.062-.913 4.323-.422 6.286l.97-.243.97-.243c-.408-1.632-.38-3.424.312-4.993.68-1.542 2.042-2.965 4.495-3.835zm-5.442 10.014-.97.24c1.125 4.554 5.388 9.064 11.263 8.642l-.071-.997-.072-.998c-4.661.335-8.223-3.26-9.18-7.127zm10.222 7.885.21.978c6.193-1.328 8.253-5.338 8.894-7.703l-.966-.261-.965-.262c-.495 1.83-2.094 5.137-7.383 6.27zm8.138-6.986.964.267c1.042-3.75-.092-7.972-2.87-10.555l-.68.732-.682.732c2.207 2.053 3.156 5.493 2.305 8.556zm-2.587-9.556.678-.736c-1.793-1.65-4.043-2.472-6.56-2.472v2c2.056 0 3.811.66 5.205 1.944zm7.091-14.219-.836.549a202 202 0 0 1 11.703 20.352l.895-.447.895-.447a204 204 0 0 0-11.82-20.556zM89.14 55.44l.878.48c3.34-6.124 6.136-12.123 8.248-17.693l-.935-.354-.935-.355c-2.074 5.471-4.83 11.388-8.134 17.443zm8.191-17.567.214-.977c-.2-.044-.407-.09-.612-.133l-.208.978-.208.978.6.13zm-.606-.132.208-.978c-6.466-1.378-13.295-2.238-19.468-2.773l-.087.996-.086.996c6.123.531 12.865 1.382 19.225 2.737zm-52.126-2.58-.14-.99a126 126 0 0 0-12.78 2.474l.243.97.243.97a124 124 0 0 1 12.574-2.434zm-12.677 2.454-.965.262c1.106 4.066 2.513 8.303 4.175 12.599l.933-.361.932-.361c-1.64-4.238-3.024-8.41-4.11-12.401zm4.143 12.5.905.425c2.42-5.151 5.246-10.143 8.453-14.813l-.824-.566-.824-.566C40.5 39.36 37.62 44.447 35.159 49.69zm55.44-43.108-.086-.997c-10.341.884-19.63 4.851-27.707 10.815l.594.805.594.804c7.825-5.778 16.768-9.583 26.69-10.431zM64.304 17.63l-.751.66a141 141 0 0 1 7.144 8.867l.802-.597.803-.596c-1.96-2.639-4.44-5.801-7.247-8.994zm7.195 8.93-.803.596a174 174 0 0 1 4.173 5.879l.827-.563.827-.562a176 176 0 0 0-4.22-5.946zm4.197 5.912-.078.997c6.987.547 14.925 1.5 22.314 3.144l.217-.977.217-.976c-7.513-1.672-15.552-2.634-22.592-3.185zm22.453 3.164.943.333c2.339-6.625 3.662-12.608 3.662-17.356h-2c0 4.424-1.243 10.163-3.548 16.69zm3.605-17.023h1c0-4.015-.862-7.197-2.792-9.38-1.95-2.209-4.83-3.218-8.457-3.226l-.003 1-.002 1c3.265.007 5.511.906 6.963 2.55 1.474 1.668 2.291 4.281 2.291 8.056zM39.45 3.379v-1c-4.033 0-7.069 2.29-9.25 6.536l.89.457.889.457c1.95-3.797 4.405-5.45 7.47-5.45zm-8.36 5.993-.89-.456c-1.53 2.987-2.155 6.93-2.076 11.443.08 4.528.87 9.713 2.243 15.247l.97-.241.97-.24c-1.348-5.436-2.107-10.466-2.183-14.801-.077-4.35.536-7.92 1.855-10.496zm.247 25.993.244.97a127 127 0 0 1 15.002-2.8l-.125-.992-.124-.992c-4.75.595-10.017 1.53-15.24 2.844zm15.121-2.822.805.593c4.159-5.641 8.894-10.731 14.155-14.961l-.627-.78-.626-.78C54.75 20.97 49.9 26.19 45.653 31.95zm14.333-15.148.73-.684c-3.983-4.247-7.874-7.71-11.466-10.164-3.57-2.44-6.939-3.949-9.86-4.15l-.068.998-.068.998c2.396.165 5.41 1.443 8.868 3.806 3.436 2.348 7.218 5.703 11.135 9.88zm-20.664-14 .067-.998c-.227-.015-.5-.034-.761-.034v2c.18 0 .38.014.628.03zm-.694-.032-.685.728.016.016.685-.728.686-.729-.017-.015zM62.37 19.115l-.623-.782c-4.759 3.796-9.073 8.29-12.912 13.244l.79.612.79.613c3.756-4.845 7.96-9.22 12.579-12.905zM49.625 32.189l.098.995c2.989-.292 5.674-.435 7.884-.435v-2c-2.29 0-5.042.147-8.08.445zm7.982-.44v1c2.757 0 8.323.069 15.112.513l.066-.998.065-.998a240 240 0 0 0-15.243-.517zm15.177.515.818-.576c-3.464-4.91-7.005-9.368-10.488-13.242l-.744.669-.743.669c3.424 3.809 6.918 8.205 10.34 13.057z" mask="url(#a)"/></svg>