<svg xmlns="http://www.w3.org/2000/svg" width="598" height="92" fill="none"><g clip-path="url(#a)"><path fill="#FEFEFE" d="M26.97 47.68c-2.055 1.998-4.877 4.88-7.945 2.532-.622-.476-1.733-2.075-2.01-2.843-.977-2.716-1.34-5.84-1.686-8.704-.659-9.827 1.029-20.848 5.478-29.697.748-1.325 1.518-2.993 2.54-4.118C25.867 2.074 29.23.17 33.024.105c11.029-.184 22.268 6.176 30.43 13.174 3.418 2.93 7.64 7.698 8.23 12.227.367 3.153-2.53 4.175-5.131 4.174 1.23 2.073 3.266 5.868 3.966 8.175a66 66 0 0 1 2.373 11.306c.202 1.708.114 6.4.97 7.583.873 1.207 3.754 2.385 5.215 2.58 2.789.37 6.176-.41 8.416-2.15 3.192-2.48 5.1-7.129 5.944-10.975.362-1.656.542-3.41.757-5.092.997-7.816.525-23.177-3.95-29.936-.266-.404-.566-.882-.93-1.203-.832-.737-2.357-.752-2.987-1.636-.342-.48-.368-1.237-.275-1.8a1.9 1.9 0 0 1 .866-1.314c.948-.608 2.325-.616 3.403-.39 2.784.584 4.72 2.786 6.2 5.062 1.199 1.845 1.954 4.44 2.294 6.611.147.942.18 1.902.297 2.848.262 2.107.556 4.194.673 6.316.389 7.043-.524 14.095-1.951 20.976-.252 1.215-.505 2.477-.916 3.649-1.351 3.849-4.048 7.11-7.443 9.325-3.678 2.4-7.968 3.276-12.276 2.366 1.31 1.178 2.832 2.116 4.209 3.212 1.305.99 2.17 1.893 3.36 3.041 2.52 2.43 3.008 6.255-1.283 6.989-1.722.294-3.17-1.961-4.135-3.101a22 22 0 0 0-1.908-2.015c-.508-.503-1.028-1.032-1.546-1.522.168.307.903 1.739 1.029 1.908.36.91.908 1.825 1.338 2.697.833 1.691 2.744 4.212 1.256 6.032-.763.999-2.107.504-2.96-.2-1.633-1.348-2.473-3.657-3.754-5.36-.734-.979-.954-1.672-1.886-2.567l-.097-.092c.526 1.368 1.498 2.972 2.302 4.211 1.943 3 3.716 6.502-1.547 6.843-2.72-1.094-3.51-5.602-4.468-5.85-.13.164-.15.287-.047.49.866 1.584 1.375 3.161 2.044 4.814.916 2.263 1.232 5.53-2.24 5.266-2.232-.17-3.483-3.625-4.307-5.308-.21-.429-.62-.935-.923-1.333.642 2.332 1.294 4.637.652 7.048-.311 1.17-1.92 1.964-2.95 1.44-2.842-1.45-3.8-6.013-4.975-8.72.08 2.444 1.917 8.523.63 10.45-.43.643-1.204 1.22-1.972 1.36-.558.102-1.084-.047-1.537-.382-2.284-1.694-2.81-6.872-3.221-9.518-.35 2.24-1.452 7.35-2.839 9.261-.449.557-1.277.914-1.967.922-4.49.06-1.638-6.424-1.369-8.817.096-.852.163-1.38.166-2.279-.972 2.088-3.304 6.362-5.013 7.9-.84.756-2.54 1.68-3.728 1.412-4.458-1-.894-4.44.105-5.976 2.163-3.33 4.975-6.898 5.452-10.786-2.195 1.301-2.68 1.376-5.127 1.858-4.307.85-8.286.354-12.328-1.398-5.45-2.364-9.953-6.58-13.294-11.448-1.064-1.585-3.16-5.898-3.842-7.754C1.7 46.977-.873 38.199.424 29.925c.324-2.074 1.125-4.716 3.305-5.51 1.975-.72 3.131 1.28 3.332 2.983.144 1.225-.13 2.088-.285 3.274a109 109 0 0 0-.506 4.282c-.387 4.252 1.14 10.348 2.393 14.456 1.53 5.018 6.323 14.595 9.777 18.486.813.915 1.732 1.702 2.818 2.273 1.104.58 2.32 1.114 3.535 1.41 2.82.69 7.19.573 9.96-.316 1.736-.557 3.033-1.354 3.88-3.012l.06-.121c-.109-.333-.351-1.095-.517-1.362-.947-1.523-3.232-2.282-4.334-3.723-2.721-3.557-4.153-7.192-5.54-11.418-.517-1.575-.938-2.175-1.332-3.947"/><path fill="#21419E" d="M58.327 36.308c.866-.068 1.647.015 2.392.495a2.92 2.92 0 0 1 1.29 1.975c.414 2.514-2.356 2.733-4.03 2.953-4.476.749-5.44-4.69.348-5.423M39.556 42.668c4.878-.12 1.947 6.051-.899 6.862-.965.035-2.147-.317-2.522-1.27-.962-2.443 1.472-4.74 3.42-5.592"/></g><path fill="#59671E" d="M429.2 63.79c-.18-1.08-.42-2.58-.6-4.38-.24-3.48-.42-8.04-.42-12.9 0-4.74.18-9.3.42-12.78.18-1.8.42-3.3.6-4.38 1.08-5.46 4.68-6 6.24-6 1.5 0 5.22.54 6.24 6 .24 1.08.42 2.58.54 4.38.12 1.38.24 2.82.3 4.44 0 .3.24.54.54.54 1.62.06 3.3.18 4.86.3 3.3.3 6.36.72 8.7 1.26 1.38.3 2.52.66 3.36.96 4.44 1.8 4.44 5.4 4.44 6.48-.18 1.44-1.02 5.04-6.3 5.82-1.2.18-2.76.3-4.56.3-2.04 0-4.32-.12-6.78-.3-1.26-.12-2.46-.36-3.6-.48-.3 0-.66.24-.66.54-.06 2.16-.18 4.14-.3 5.82-.12 1.8-.3 3.3-.54 4.38-1.02 5.46-4.74 6-6.24 6-1.56 0-5.16-.54-6.24-6M413 31.389c3.6.96 5.22 3.78 4.68 8.16-.42 2.76-1.38 5.7-3.06 9.06-1.92 3.6-4.68 7.14-8.04 10.26-4.14 3.84-9.3 7.02-14.22 8.58-1.98.78-4.32 1.38-6.66 1.38-.48 0-.9 0-1.44-.12-3.42-.42-5.1-2.94-5.52-4.92-.12-1.08-.42-4.56 3.48-6.78.96-.54 1.8-.84 2.64-1.26.78-.36 1.5-.66 2.16-.96 1.86-1.08 6-3.06 9.48-6.66 4.26-4.26 8.04-10.8 9.42-13.44 1.68-3.12 4.68-3.54 5.82-3.54.42 0 .96.12 1.26.24m-28.32 13.62h-.54c-2.22-.18-4.14-1.14-5.28-1.86-2.22-1.38-3.84-3.42-4.44-5.52-.78-2.1-.42-4.44.72-6.24 1.38-2.1 3.84-3.42 6.36-3.42h.54c2.28.24 4.2 1.2 5.4 1.92 4.62 3 6.12 7.92 3.66 11.76-1.38 2.1-3.78 3.36-6.42 3.36M366.559 54.85c.42.78.78 1.5 1.08 2.22 1.38 3.54-.12 6.36-2.04 7.74-1.02.96-2.4 1.38-3.9 1.38-2.94 0-5.28-2.34-8.76-5.82l-.78-.6c-4.62-4.68-8.76-8.28-10.86-9.84-.24-.12-.78-.12-1.08 0-2.4 1.26-4.44 3.12-6.54 4.92l-.84.9c-1.8 1.56-3.84 3.36-6.6 3.36-1.38 0-2.76-.42-3.9-1.26-1.14-.96-4.44-4.26-.72-10.14 2.52-3.96 6-7.56 10.02-10.32 3.18-2.1 6.6-3.24 9.66-3.24.72 0 1.38 0 1.98.12 1.92.3 3.96 1.14 6.06 2.4 2.76 1.68 5.4 4.02 8.46 7.2s6.42 6.9 8.76 10.98m-.96-33.18c2.58 0 4.92 1.44 6.18 3.9.72 1.38 1.02 2.94.96 4.44-.36 2.1-1.5 3.78-3.18 4.74-.96.54-1.92.78-2.88.78-1.08 0-2.1-.24-2.94-.78-.36-.06-.54 0-.78.24-.42.6-1.02 1.26-1.68 1.68-.96.66-1.98.96-3.18.96-2.4 0-4.74-1.38-6.24-3.72-2.22-3.48-1.68-7.74 1.38-9.6.96-.66 2.04-.96 3.18-.96 1.26 0 2.46.3 3.6.96.18.18.54.12.6-.12.66-.72 1.32-1.38 2.16-1.92.84-.42 1.92-.6 2.82-.6M295.7 70.03c-2.64 0-5.94-1.62-7.02-6.06-.3-.96-.54-2.1-.6-3.72-.36-2.4-.42-5.58-.42-8.88 0-.3-.36-.42-.54-.3-5.7 3.06-7.44 3.06-8.4 3.06-2.4 0-4.62-1.14-5.88-3.18-1.5-2.34-1.8-6.12 1.8-9.54.72-.84 1.86-1.68 3.24-2.7 2.58-2.04 6.06-4.44 9.84-6.9 13.68-8.7 16.44-8.7 17.82-8.7 2.4 0 4.62 1.2 5.88 3.18 1.5 2.34 1.8 6.06-1.8 9.54-1.98 1.92-4.32 3.6-6.12 4.86-.12.12-.18.24-.18.3.3 2.64.42 6.06.42 9.54 0 3.72-.12 7.08-.42 9.72-.24 1.62-.36 2.76-.66 3.72-1.14 4.44-4.32 6.06-6.96 6.06M225.2 63.79c-.18-1.08-.42-2.58-.6-4.38-.24-3.48-.42-8.04-.42-12.9 0-4.74.18-9.3.42-12.78.18-1.8.42-3.3.6-4.38 1.08-5.46 4.68-6 6.24-6 1.5 0 5.22.54 6.24 6 .24 1.08.42 2.58.54 4.38.12 1.38.24 2.82.3 4.44 0 .3.24.54.54.54 1.5.06 3.3.18 4.86.3 3.3.3 6.36.72 8.7 1.26 1.38.3 2.52.66 3.36.96 4.44 1.8 4.44 5.4 4.38 6.48-.12 1.44-.96 5.04-6.24 5.82-1.32.18-2.76.3-4.56.3-.78 0-1.38 0-2.1-.12-1.38 0-2.88-.12-4.26-.18-1.38-.12-2.64-.48-4.02-.48-.3 0-.66.24-.66.54-.06 2.16-.18 4.14-.3 5.82-.12 1.8-.3 3.3-.54 4.38-1.02 5.46-4.74 6-6.24 6-1.56 0-5.16-.54-6.24-6m40.14-28.8c-.9.54-1.8.72-2.88.72-.96 0-2.04-.18-2.94-.72-.24-.12-.54 0-.66.18-.42.66-1.08 1.32-1.68 1.74-.96.6-2.1.9-3.3.9-2.34 0-4.62-1.32-6.12-3.66-2.34-3.48-1.68-7.74 1.26-9.66.96-.6 2.1-.96 3.3-.96 1.14 0 2.4.36 3.48.96.18.24.6.12.72-.06.54-.78 1.26-1.38 2.1-1.92.9-.42 1.8-.66 2.88-.66 2.46 0 4.86 1.5 6.12 3.9.78 1.38 1.08 3 .9 4.5-.24 2.1-1.38 3.78-3.18 4.74M193.7 70.03c-2.64 0-5.94-1.62-7.02-6.06-.3-.96-.54-2.1-.6-3.72-.36-2.4-.42-5.58-.42-8.88 0-.3-.36-.42-.54-.3-5.7 3.06-7.44 3.06-8.4 3.06-2.4 0-4.62-1.14-5.88-3.18-1.5-2.34-1.8-6.12 1.8-9.54.72-.84 1.86-1.68 3.24-2.7 2.58-2.04 6.06-4.44 9.84-6.9 13.68-8.7 16.44-8.7 17.82-8.7 2.4 0 4.62 1.2 5.88 3.18 1.5 2.34 1.8 6.06-1.8 9.54-1.98 1.92-4.32 3.6-6.12 4.86-.12.12-.18.24-.18.3.3 2.64.42 6.06.42 9.54 0 3.72-.12 7.08-.42 9.72-.24 1.62-.36 2.76-.66 3.72-1.14 4.44-4.32 6.06-6.96 6.06M152.3 59.95c-1.56 2.34-3.36 4.44-5.28 6.06-2.04 1.8-3.78 2.82-4.98 3.36-1.5.66-2.64.96-3.78.96-2.16 0-4.02-1.08-5.1-2.88-1.08-1.68-1.5-4.56.72-7.08 1.2-1.38 2.46-2.4 3.6-3.78 1.08-1.26 2.16-2.64 2.88-4.02 1.08-1.8 1.92-3.72 2.64-5.76.12-.48.3-1.02.54-1.68.12-.3-.24-.6-.54-.6h-5.9399999999999995c-.18 0-.54.18-.54.48 0 .24 0 .54-.06.78-.12 1.14-.24 2.22-.54 3.06-1.26 4.14-4.56 4.68-5.64 4.68-.06 0-.18.06-.3.06-3.36 0-5.7-2.4-6.78-7.08-.12-.72-.3-1.56-.42-2.52-.12-.24-.18-.42-.54-.42h-.06c-5.52-1.08-6.18-4.68-6.18-6.24 0-1.5.66-5.1 6.06-6.06.18-.12.42-.3.54-.54.06-.48.18-1.02.3-1.56 1.14-3.72 4.14-4.68 5.58-4.68 3.06 0 5.4 1.92 6.66 5.4 0 .24.24.42.54.42 1.5-.06 3.06-.06 4.68-.06 1.56 0 3.18 0 4.74.06.24 0 .54-.18.54-.54.54-3.36 2.34-5.34 5.28-5.7.24-.12.42-.12.66-.12 1.14 0 4.86.48 6.24 5.82.12.36.18.66.18.96.12.24.24.42.42.42 5.52 1.08 6.18 4.68 6.18 6.24 0 1.38-.54 4.98-5.94 6.06-.24.12-.3.18-.42.54-.3 2.52-.96 5.04-1.8 7.5-1.08 3.06-2.46 5.94-4.14 8.46"/><g clip-path="url(#b)"><path fill="#FEFEFE" d="M553.448 47.68c2.055 1.998 4.877 4.88 7.945 2.533.622-.477 1.733-2.076 2.009-2.844.978-2.716 1.341-5.84 1.687-8.704.659-9.827-1.029-20.848-5.478-29.697-.748-1.325-1.518-2.993-2.54-4.118-2.52-2.776-5.883-4.68-9.677-4.745-11.029-.184-22.268 6.176-30.43 13.174-3.418 2.93-7.64 7.698-8.231 12.227-.366 3.153 2.53 4.175 5.132 4.174-1.231 2.073-3.266 5.868-3.967 8.175a66 66 0 0 0-2.372 11.306c-.202 1.708-.114 6.4-.97 7.583-.873 1.207-3.754 2.385-5.215 2.58-2.789.37-6.176-.41-8.416-2.15-3.192-2.48-5.1-7.129-5.944-10.975-.362-1.656-.542-3.41-.757-5.092-.997-7.816-.525-23.177 3.949-29.936.267-.404.567-.882.931-1.203.832-.737 2.357-.752 2.987-1.636.342-.48.368-1.237.275-1.8a1.9 1.9 0 0 0-.866-1.314c-.948-.608-2.325-.616-3.403-.39-2.784.584-4.721 2.786-6.2 5.062-1.199 1.845-1.954 4.44-2.294 6.611-.147.942-.18 1.902-.297 2.848-.262 2.107-.556 4.194-.673 6.316-.389 7.043.524 14.095 1.951 20.976.252 1.215.505 2.477.916 3.649 1.351 3.849 4.048 7.11 7.443 9.325 3.678 2.4 7.968 3.276 12.276 2.366-1.309 1.178-2.832 2.116-4.209 3.212-1.305.99-2.17 1.893-3.36 3.041-2.52 2.43-3.008 6.255 1.283 6.989 1.722.294 3.17-1.961 4.135-3.101a22 22 0 0 1 1.908-2.015c.508-.503 1.028-1.032 1.546-1.522-.168.307-.903 1.739-1.029 1.908-.36.91-.908 1.825-1.338 2.697-.833 1.691-2.744 4.212-1.256 6.032.763.999 2.107.504 2.959-.2 1.634-1.348 2.474-3.657 3.755-5.36.734-.978.954-1.672 1.886-2.567l.097-.092c-.526 1.368-1.498 2.972-2.302 4.211-1.943 3-3.716 6.502 1.547 6.843 2.72-1.094 3.511-5.602 4.468-5.85.129.164.149.287.047.49-.866 1.584-1.375 3.161-2.044 4.814-.916 2.263-1.232 5.53 2.24 5.266 2.232-.17 3.482-3.625 4.307-5.308.21-.429.62-.935.923-1.333-.642 2.332-1.294 4.637-.652 7.048.311 1.17 1.92 1.964 2.951 1.44 2.841-1.45 3.798-6.013 4.974-8.72-.08 2.445-1.917 8.523-.63 10.45.429.643 1.204 1.22 1.972 1.36.558.102 1.084-.047 1.537-.382 2.284-1.694 2.809-6.872 3.221-9.518.349 2.24 1.452 7.35 2.839 9.261.448.557 1.277.914 1.967.922 4.491.06 1.637-6.424 1.369-8.817-.096-.852-.163-1.38-.166-2.279.972 2.088 3.304 6.362 5.013 7.9.839.756 2.54 1.68 3.728 1.412 4.458-1 .894-4.44-.105-5.976-2.163-3.33-4.975-6.898-5.452-10.786 2.195 1.301 2.68 1.376 5.127 1.858 4.307.85 8.286.354 12.328-1.398 5.45-2.364 9.953-6.58 13.294-11.448 1.063-1.585 3.159-5.898 3.842-7.754 2.781-7.732 5.352-16.51 4.055-24.784-.325-2.074-1.125-4.715-3.305-5.51-1.975-.72-3.131 1.28-3.332 2.983-.144 1.225.13 2.088.285 3.274a108 108 0 0 1 .506 4.282c.387 4.252-1.141 10.348-2.393 14.456-1.531 5.018-6.323 14.595-9.777 18.486-.813.915-1.732 1.702-2.818 2.273-1.104.58-2.321 1.114-3.535 1.41-2.82.69-7.19.573-9.96-.316-1.736-.557-3.033-1.354-3.879-3.012l-.061-.121c.109-.333.351-1.095.517-1.362.947-1.523 3.232-2.282 4.334-3.723 2.721-3.557 4.153-7.192 5.541-11.418.516-1.575.937-2.175 1.331-3.947"/><path fill="#21419E" d="M522.091 36.308c-.866-.068-1.647.015-2.392.495a2.92 2.92 0 0 0-1.29 1.975c-.414 2.514 2.356 2.733 4.029 2.953 4.477.749 5.44-4.69-.347-5.423M540.862 42.668c-4.878-.12-1.947 6.051.899 6.862.965.035 2.147-.317 2.522-1.27.962-2.443-1.472-4.74-3.421-5.592"/></g><defs><clipPath id="a"><path fill="#fff" d="M0 0h100v92H0z"/></clipPath><clipPath id="b"><path fill="#fff" d="M580.418 0h-100v92h100z"/></clipPath></defs></svg>