<svg xmlns="http://www.w3.org/2000/svg" width="190" height="163" fill="none"><path fill="#E54839" d="M130.097 4.338C108.301-5.09 63.142-2.064 56.875 43.163c-1.59-1.021-8.242-4.63-22.137-10.897-5.335 6.925-19.072 19.516-24.52 24.18 10.897 3.169 34.056 7.561 50.403 14.645-.34 4.768 1.635 15.666 12.26 21.116-2.95 1.589-11.51 4.427-22.136 3.065-7.493-1.022-24.521-6.024-32.014-13.964-8.514-8.173-9.195-12.154-15.325-13.963-1.355-.4-3.406.068-3.406 5.79.227 2.838 3.406 10.898 14.304 20.434 10.671 7.265 36.032 20.638 52.107 16.007-2.043 2.497-8.242 8.309-16.688 11.579-6.017.908-19.004 3.678-22.818 7.492-1.135 1.136-2.452 3.883 1.362 5.79 5.677.681 20.026.477 32.014-5.79-3.973 3.293-13.964 11.345-13.964 14.07 0 1.469 3.747 3.873 7.834 2.278 4.964-1.937 15.802-6.948 23.158-12.942-2.838 6.698-7.764 20.707-4.767 23.159.34.567 3.405.9 6.47-2.384 1.59-1.703 6.403-8.242 12.942-20.775-.113 5.563.409 17.778 3.406 22.137.567.795 2.452 1.907 5.449 0 .903-.575 2.792-2.929 5.789-16.007 1.363 5.79 5.449 19.519 7.834 23.159 1.702 2.599 4.767 1.128 5.449-1.362.908-4.428 2.588-14.713 2.043-20.434l5.79 9.195c1.816 3.406 6.334 10.217 9.876 10.217 4.768 1.022 8.174-13.418-5.449-37.122 9.65 2.27 32.694 3.171 44.615-6.13 6.811-5.315 16.347-22.07 12.26-36.782-.756-2.723-5.109-3.64-6.811 2.044-11.92 26.224-14.304 33.035-46.999 26.224 20.434-17.483 57.556-70.051-5.109-102.854"/><path fill="#fff" d="M114.223 112.891c.084-.042.105-.127.105-.19 0-.085-.021-.148-.105-.148l-3.822-1.985c-1.098-.549-1.499-1.858-.971-2.935a2.17 2.17 0 0 1 1.963-1.203c.338 0 .676.084.972.232l8.002 4.054c.739.422 1.204 1.161 1.204 1.985a2.15 2.15 0 0 1-1.204 1.921l-7.96 4.097c-.338.19-.676.274-1.014.274a2.23 2.23 0 0 1-1.963-1.203c-.275-.507-.296-1.119-.127-1.668.19-.571.57-1.014 1.098-1.267zM104.367 102.799c.507.212.95.634 1.182 1.183.19.549.19 1.161-.042 1.668l-5.954 14.084a2.2 2.2 0 0 1-2.006 1.351c-.296 0-.592-.084-.866-.19-.55-.232-.971-.633-1.183-1.203-.232-.507-.232-1.119 0-1.668l5.997-14.084a2.2 2.2 0 0 1 2.006-1.331c.296 0 .591.064.866.19M86.735 112.553c-.085.021-.106.106-.106.148 0 .063.021.148.106.19l3.822 1.921c1.098.571 1.541 1.901.971 2.978-.359.718-1.12 1.203-1.922 1.203-.38 0-.717-.084-1.013-.274l-8.003-4.054a2.16 2.16 0 0 1-1.203-1.943 2.19 2.19 0 0 1 1.203-1.964l8.003-4.096a2.24 2.24 0 0 1 1.013-.232 2.15 2.15 0 0 1 1.922 1.203c.274.528.296 1.119.148 1.668-.17.57-.591 1.014-1.12 1.267z"/><ellipse cx="119.661" cy="38.007" fill="#424242" rx="4.087" ry="5.449" transform="rotate(29.75 119.661 38.007)"/><ellipse cx="87.797" cy="26.874" fill="#424242" rx="4.087" ry="5.449" transform="rotate(29.75 87.797 26.874)"/></svg>