<svg xmlns="http://www.w3.org/2000/svg" width="104" height="146" fill="none"><path fill="#FACC15" fill-opacity=".3" d="M46.555 1.486c19.24-4.237 45.301.676 51.563 13.645 2.529 5.237 2.719 13.71-10.608 24.421-3.91 3.135-8.524 5.714-13.577 7.73a37 37 0 0 1 3.804-.268c12.54.475 22.211 7.694 24.752 18.416 2.386 10.061-2.352 19.719-12.38 25.258-.025.002-.051.004-.075.031-3.535 1.748-7.052 2.744-10.47 3.011-6.119.472-11.825-1.413-16.472-5.629-2.547-2.298-4.583-5.13-6.04-8.222.606 8.73 1.112 17.666 1.535 26.978.412 4.329.624 8.526.51 12.467q.06 1.582.114 3.181c.013.459-.137.889-.396 1.233-.746 7.296-2.917 13.418-7.449 17.411-3.15 2.781-7.194 4.362-12.16 4.748-4.992.387-10.93-.419-17.868-2.417a2.3 2.3 0 0 1-.374-.152c-6.261-3.291-10.226-10.022-10.937-18.506-.822-10.26 3.312-20.698 10.331-25.978a18 18 0 0 1 3.627-1.963c-6.75-.589-12.553-2.649-15.494-8.19-5.042-9.597-5.72-17.67-2.015-23.96 3.851-6.544 12.301-10.961 25.202-13.205-8.35-1.38-16.183-4.105-22.594-8.215C-1.159 36.731-.58 29.183.67 25.282 4.796 12.412 27.466.665 46.555 1.486m6.955 95.587c-4.61 1.626-9.605 1.651-14.443 1.69-6.106.034-11.874.094-16.42 3.215-5.918 4.47-9.456 13.568-8.734 22.543.573 7.045 3.747 12.595 8.694 15.29 12.254 3.473 21.068 2.97 26.23-1.57 4.309-3.793 6.076-10.205 6.417-17.948-.17-4.745-.358-9.381-.566-13.927a218 218 0 0 0-1.178-9.293m26.068-3.343-.027.002.013-.002zM50.637 53.722c-22.017.493-36.113 4.977-40.825 12.976-2.997 5.071-2.288 11.873 2.112 20.2 3.916 7.432 16.483 6.586 27.555 5.83 5.362-.368 10.432-.713 14.497-.18a982 982 0 0 0-2.984-38.879 2 2 0 0 1-.355.053m25.234-2.735c-8.208.638-14.022 4.427-16.401 10.796-2.853 7.596-.155 17.685 6.222 23.478 3.508 3.169 11.132 7.674 22.6 2.022 10.051-5.567 11.976-14.462 10.437-20.94-2.12-8.97-10.384-15.056-21.027-15.446-.62.022-1.24.044-1.831.09m-11.47-.683a81 81 0 0 1-9.677 1.73c.298 3.019.579 6.04.848 9.072q.115-.35.244-.695c1.112-2.977 3.515-7.2 8.586-10.107M41.22 5.446C25.138 6.694 7.583 16.31 4.332 26.448c-1.625 5.068.672 9.65 6.828 13.597 10.325 6.624 25.034 9.364 39.298 8.386A1002 1002 0 0 0 45.04 5.304a47 47 0 0 0-3.82.142m53.43 11.377C89.838 6.847 68 1.296 48.947 4.95l-.026.002c2.168 14.917 3.962 29.035 5.419 43.128 11.75-1.352 22.915-5.247 30.76-11.548 6.262-5.04 13.005-12.55 9.55-19.708"/></svg>