<svg xmlns="http://www.w3.org/2000/svg" width="18" height="18" fill="none"><path fill="#9F9F9F" d="m17.494 0-5.738.006a.506.506 0 0 0-.506.506v1.171a.506.506 0 0 0 .516.507l2.589-.096.072.072-9.803 9.804a.42.42 0 0 0 0 .598l.808.809a.42.42 0 0 0 .598 0l9.804-9.804.072.072-.096 2.589a.506.506 0 0 0 .507.516h1.17a.506.506 0 0 0 .507-.506L18 .506A.506.506 0 0 0 17.494 0m-2.306 10.125h-.563a.56.56 0 0 0-.562.563v5.414a.21.21 0 0 1-.211.21H1.898a.21.21 0 0 1-.21-.21V4.148a.21.21 0 0 1 .21-.21h5.415a.563.563 0 0 0 .562-.563v-.562a.563.563 0 0 0-.562-.563H1.688A1.687 1.687 0 0 0 0 3.938v12.375A1.687 1.687 0 0 0 1.688 18h12.375a1.687 1.687 0 0 0 1.687-1.687v-5.625a.56.56 0 0 0-.562-.563"/></svg>