<svg xmlns="http://www.w3.org/2000/svg" width="172" height="161" fill="none"><path fill="#FACC15" fill-opacity=".3" d="M56.663 7.172C70.352 8.912 78.27 10 80.769 11.385c.51.291.892.746 1.098 1.293.06.17 4.975 14.89 11.31 31.346a370 370 0 0 0 18.712-22.93 2.32 2.32 0 0 1 2.296-.898c5.799 1.162 11.483 2.111 17.064 3.103 2.91.503 5.784 1.002 8.647 1.516.268 0 .536.047.792.14 9.298 1.681 18.498 3.556 28.428 6.373a2.33 2.33 0 0 1 1.609 1.585c.224.772.03 1.586-.505 2.205L73.397 144.477a2.29 2.29 0 0 1-2.168.734l-.055-.043a2.3 2.3 0 0 1-1.724-1.482C52.8 98.64 37.954 52.314 25.289 5.983c-.225-.771.001-1.579.53-2.167a2.28 2.28 0 0 1 2.13-.71c8.205 1.455 18.303 2.752 27.236 3.879l1.206.153q.138.009.272.034m-2.244 4.374c-7.688-.975-16.213-2.058-23.683-3.272l-.03-.006a1659 1659 0 0 0 41.752 130.179L164.22 34.799c-8.066-2.142-15.732-3.702-23.47-5.113a8410 8410 0 0 1-13.232 14.876L98.46 77.126a8644 8644 0 0 0-14.114 15.868 2.29 2.29 0 0 1-2.169.733l-.06-.012a2.29 2.29 0 0 1-1.718-1.512c-9.388-26.54-18.14-53.654-25.98-80.657m23.355 3.595c-2.734-.862-10.442-1.938-18.334-2.954a1503 1503 0 0 0 24.033 74.76c8.402-9.463 17.229-19.314 26.031-29.2 8.756-9.807 17.509-19.616 25.862-29.02q-2.47-.432-4.969-.863c-5.186-.912-10.379-1.795-15.728-2.835a365 365 0 0 1-20.624 24.915 2.38 2.38 0 0 1-2.139.74c-.783-.189-1.44-.699-1.73-1.452-6.032-15.448-11.073-30.162-12.402-34.09"/></svg>